<svg xmlns="http://www.w3.org/2000/svg" xmlns:xlink="http://www.w3.org/1999/xlink" width="570" height="443" viewBox="0 0 570 443">
    <defs>
        <filter id="prefix__a" width="121.2%" height="130%" x="-10.6%" y="-15%" filterUnits="objectBoundingBox">
            <feGaussianBlur in="SourceGraphic" stdDeviation="15"/>
        </filter>
        <filter id="prefix__b" width="127.4%" height="228.1%" x="-13.7%" y="-51.6%" filterUnits="objectBoundingBox">
            <feOffset dy="11" in="SourceAlpha" result="shadowOffsetOuter1"/>
            <feGaussianBlur in="shadowOffsetOuter1" result="shadowBlurOuter1" stdDeviation="17"/>
            <feColorMatrix in="shadowBlurOuter1" values="0 0 0 0 0.365103676 0 0 0 0 0.43993433 0 0 0 0 0.0115013319 0 0 0 0.0977381993 0"/>
        </filter>
        <filter id="prefix__d" width="117.7%" height="182.8%" x="-8.8%" y="-28.9%" filterUnits="objectBoundingBox">
            <feOffset dy="-5" in="SourceAlpha" result="shadowOffsetInner1"/>
            <feComposite in="shadowOffsetInner1" in2="SourceAlpha" k2="-1" k3="1" operator="arithmetic" result="shadowInnerInner1"/>
            <feColorMatrix in="shadowInnerInner1" values="0 0 0 0 0.901960784 0 0 0 0 0.901960784 0 0 0 0 0.901960784 0 0 0 1 0"/>
        </filter>
        <filter id="prefix__e" width="101.3%" height="106.2%" x="-.7%" y="-3.1%" filterUnits="objectBoundingBox">
            <feOffset dy="-5" in="SourceAlpha" result="shadowOffsetInner1"/>
            <feComposite in="shadowOffsetInner1" in2="SourceAlpha" k2="-1" k3="1" operator="arithmetic" result="shadowInnerInner1"/>
            <feColorMatrix in="shadowInnerInner1" values="0 0 0 0 0.901960784 0 0 0 0 0.901960784 0 0 0 0 0.901960784 0 0 0 1 0"/>
        </filter>
        <filter id="prefix__g" width="101.3%" height="106.2%" x="-.7%" y="-3.1%" filterUnits="objectBoundingBox">
            <feOffset dy="-5" in="SourceAlpha" result="shadowOffsetInner1"/>
            <feComposite in="shadowOffsetInner1" in2="SourceAlpha" k2="-1" k3="1" operator="arithmetic" result="shadowInnerInner1"/>
            <feColorMatrix in="shadowInnerInner1" values="0 0 0 0 0.901960784 0 0 0 0 0.901960784 0 0 0 0 0.901960784 0 0 0 1 0"/>
        </filter>
        <filter id="prefix__i" width="104.7%" height="113.5%" x="-2.3%" y="-6.7%" filterUnits="objectBoundingBox">
            <feOffset dy="-5" in="SourceAlpha" result="shadowOffsetInner1"/>
            <feComposite in="shadowOffsetInner1" in2="SourceAlpha" k2="-1" k3="1" operator="arithmetic" result="shadowInnerInner1"/>
            <feColorMatrix in="shadowInnerInner1" values="0 0 0 0 0.901960784 0 0 0 0 0.901960784 0 0 0 0 0.901960784 0 0 0 1 0"/>
        </filter>
        <filter id="prefix__l" width="105.8%" height="116.6%" x="-2.9%" y="-8.3%" filterUnits="objectBoundingBox">
            <feOffset dy="-5" in="SourceAlpha" result="shadowOffsetInner1"/>
            <feComposite in="shadowOffsetInner1" in2="SourceAlpha" k2="-1" k3="1" operator="arithmetic" result="shadowInnerInner1"/>
            <feColorMatrix in="shadowInnerInner1" values="0 0 0 0 0.901960784 0 0 0 0 0.901960784 0 0 0 0 0.901960784 0 0 0 1 0"/>
        </filter>
        <filter id="prefix__m" width="167.4%" height="293.9%" x="-33.7%" y="-88.9%" filterUnits="objectBoundingBox">
            <feOffset dy="3" in="SourceAlpha" result="shadowOffsetOuter1"/>
            <feGaussianBlur in="shadowOffsetOuter1" result="shadowBlurOuter1" stdDeviation="11.5"/>
            <feComposite in="shadowBlurOuter1" in2="SourceAlpha" operator="out" result="shadowBlurOuter1"/>
            <feColorMatrix in="shadowBlurOuter1" values="0 0 0 0 0.396078431 0 0 0 0 0.654901961 0 0 0 0 0 0 0 0 0.361806163 0"/>
        </filter>
        <rect id="prefix__c" width="413.136" height="88.179" x="0" y="0" rx="9.284"/>
        <rect id="prefix__f" width="380.642" height="81.217" x="0" y="0" rx="8.123"/>
        <rect id="prefix__h" width="380.642" height="81.217" x="0" y="0" rx="9.284"/>
        <rect id="prefix__j" width="106.765" height="37.128" x="0" y="0" rx="18.564"/>
        <rect id="prefix__k" width="106.765" height="37.136" x="0" y="0" rx="18.568"/>
        <rect id="prefix__n" width="106.765" height="37.136" x="0" y="0" rx="18.568"/>
    </defs>
    <g fill="none" fill-rule="evenodd">
        <path fill="#FFF" d="M0 0H570V420H0z"/>
        <g transform="translate(43 22)">
            <path fill="#EEB728" d="M351.5 352c2.485 0 4.5 2.015 4.5 4.5s-2.015 4.5-4.5 4.5-4.5-2.015-4.5-4.5 2.015-4.5 4.5-4.5zm27 0c2.485 0 4.5 2.015 4.5 4.5s-2.015 4.5-4.5 4.5-4.5-2.015-4.5-4.5 2.015-4.5 4.5-4.5zm28 0c2.485 0 4.5 2.015 4.5 4.5s-2.015 4.5-4.5 4.5-4.5-2.015-4.5-4.5 2.015-4.5 4.5-4.5zm27 0c2.485 0 4.5 2.015 4.5 4.5s-2.015 4.5-4.5 4.5-4.5-2.015-4.5-4.5 2.015-4.5 4.5-4.5zm27 0c2.485 0 4.5 2.015 4.5 4.5s-2.015 4.5-4.5 4.5-4.5-2.015-4.5-4.5 2.015-4.5 4.5-4.5zm28 0c2.485 0 4.5 2.015 4.5 4.5s-2.015 4.5-4.5 4.5-4.5-2.015-4.5-4.5 2.015-4.5 4.5-4.5zm27 0c2.485 0 4.5 2.015 4.5 4.5s-2.015 4.5-4.5 4.5-4.5-2.015-4.5-4.5 2.015-4.5 4.5-4.5zm-164-27c2.485 0 4.5 2.015 4.5 4.5s-2.015 4.5-4.5 4.5-4.5-2.015-4.5-4.5 2.015-4.5 4.5-4.5zm27 0c2.485 0 4.5 2.015 4.5 4.5s-2.015 4.5-4.5 4.5-4.5-2.015-4.5-4.5 2.015-4.5 4.5-4.5zm28 0c2.485 0 4.5 2.015 4.5 4.5s-2.015 4.5-4.5 4.5-4.5-2.015-4.5-4.5 2.015-4.5 4.5-4.5zm27 0c2.485 0 4.5 2.015 4.5 4.5s-2.015 4.5-4.5 4.5-4.5-2.015-4.5-4.5 2.015-4.5 4.5-4.5zm27 0c2.485 0 4.5 2.015 4.5 4.5s-2.015 4.5-4.5 4.5-4.5-2.015-4.5-4.5 2.015-4.5 4.5-4.5zm28 0c2.485 0 4.5 2.015 4.5 4.5s-2.015 4.5-4.5 4.5-4.5-2.015-4.5-4.5 2.015-4.5 4.5-4.5zm27 0c2.485 0 4.5 2.015 4.5 4.5s-2.015 4.5-4.5 4.5-4.5-2.015-4.5-4.5 2.015-4.5 4.5-4.5zm-164-28c2.485 0 4.5 2.015 4.5 4.5s-2.015 4.5-4.5 4.5-4.5-2.015-4.5-4.5 2.015-4.5 4.5-4.5zm27 0c2.485 0 4.5 2.015 4.5 4.5s-2.015 4.5-4.5 4.5-4.5-2.015-4.5-4.5 2.015-4.5 4.5-4.5zm28 0c2.485 0 4.5 2.015 4.5 4.5s-2.015 4.5-4.5 4.5-4.5-2.015-4.5-4.5 2.015-4.5 4.5-4.5zm27 0c2.485 0 4.5 2.015 4.5 4.5s-2.015 4.5-4.5 4.5-4.5-2.015-4.5-4.5 2.015-4.5 4.5-4.5zm27 0c2.485 0 4.5 2.015 4.5 4.5s-2.015 4.5-4.5 4.5-4.5-2.015-4.5-4.5 2.015-4.5 4.5-4.5zm28 0c2.485 0 4.5 2.015 4.5 4.5s-2.015 4.5-4.5 4.5-4.5-2.015-4.5-4.5 2.015-4.5 4.5-4.5zm27 0c2.485 0 4.5 2.015 4.5 4.5s-2.015 4.5-4.5 4.5-4.5-2.015-4.5-4.5 2.015-4.5 4.5-4.5zm0-27c2.485 0 4.5 2.015 4.5 4.5s-2.015 4.5-4.5 4.5-4.5-2.015-4.5-4.5 2.015-4.5 4.5-4.5zm-82 0c2.485 0 4.5 2.015 4.5 4.5s-2.015 4.5-4.5 4.5-4.5-2.015-4.5-4.5 2.015-4.5 4.5-4.5zm-82 0c2.485 0 4.5 2.015 4.5 4.5s-2.015 4.5-4.5 4.5-4.5-2.015-4.5-4.5 2.015-4.5 4.5-4.5zm27 0c2.485 0 4.5 2.015 4.5 4.5s-2.015 4.5-4.5 4.5-4.5-2.015-4.5-4.5 2.015-4.5 4.5-4.5zm82 0c2.485 0 4.5 2.015 4.5 4.5s-2.015 4.5-4.5 4.5-4.5-2.015-4.5-4.5 2.015-4.5 4.5-4.5zm-54 0c2.485 0 4.5 2.015 4.5 4.5s-2.015 4.5-4.5 4.5-4.5-2.015-4.5-4.5 2.015-4.5 4.5-4.5zm82 0c2.485 0 4.5 2.015 4.5 4.5s-2.015 4.5-4.5 4.5-4.5-2.015-4.5-4.5 2.015-4.5 4.5-4.5zm27-27c2.485 0 4.5 2.015 4.5 4.5s-2.015 4.5-4.5 4.5-4.5-2.015-4.5-4.5 2.015-4.5 4.5-4.5zm-164 0c2.485 0 4.5 2.015 4.5 4.5s-2.015 4.5-4.5 4.5-4.5-2.015-4.5-4.5 2.015-4.5 4.5-4.5zm55 0c2.485 0 4.5 2.015 4.5 4.5s-2.015 4.5-4.5 4.5-4.5-2.015-4.5-4.5 2.015-4.5 4.5-4.5zm54 0c2.485 0 4.5 2.015 4.5 4.5s-2.015 4.5-4.5 4.5-4.5-2.015-4.5-4.5 2.015-4.5 4.5-4.5zm-82 0c2.485 0 4.5 2.015 4.5 4.5s-2.015 4.5-4.5 4.5-4.5-2.015-4.5-4.5 2.015-4.5 4.5-4.5zm110 0c2.485 0 4.5 2.015 4.5 4.5s-2.015 4.5-4.5 4.5-4.5-2.015-4.5-4.5 2.015-4.5 4.5-4.5zm-55 0c2.485 0 4.5 2.015 4.5 4.5s-2.015 4.5-4.5 4.5-4.5-2.015-4.5-4.5 2.015-4.5 4.5-4.5zm-82-28c2.485 0 4.5 2.015 4.5 4.5s-2.015 4.5-4.5 4.5-4.5-2.015-4.5-4.5 2.015-4.5 4.5-4.5zm27 0c2.485 0 4.5 2.015 4.5 4.5s-2.015 4.5-4.5 4.5-4.5-2.015-4.5-4.5 2.015-4.5 4.5-4.5zm28 0c2.485 0 4.5 2.015 4.5 4.5s-2.015 4.5-4.5 4.5-4.5-2.015-4.5-4.5 2.015-4.5 4.5-4.5zm27 0c2.485 0 4.5 2.015 4.5 4.5s-2.015 4.5-4.5 4.5-4.5-2.015-4.5-4.5 2.015-4.5 4.5-4.5zm27 0c2.485 0 4.5 2.015 4.5 4.5s-2.015 4.5-4.5 4.5-4.5-2.015-4.5-4.5 2.015-4.5 4.5-4.5zm28 0c2.485 0 4.5 2.015 4.5 4.5s-2.015 4.5-4.5 4.5-4.5-2.015-4.5-4.5 2.015-4.5 4.5-4.5zm27 0c2.485 0 4.5 2.015 4.5 4.5s-2.015 4.5-4.5 4.5-4.5-2.015-4.5-4.5 2.015-4.5 4.5-4.5zm-164-27c2.485 0 4.5 2.015 4.5 4.5s-2.015 4.5-4.5 4.5-4.5-2.015-4.5-4.5 2.015-4.5 4.5-4.5zm27 0c2.485 0 4.5 2.015 4.5 4.5s-2.015 4.5-4.5 4.5-4.5-2.015-4.5-4.5 2.015-4.5 4.5-4.5zm28 0c2.485 0 4.5 2.015 4.5 4.5s-2.015 4.5-4.5 4.5-4.5-2.015-4.5-4.5 2.015-4.5 4.5-4.5zm27 0c2.485 0 4.5 2.015 4.5 4.5s-2.015 4.5-4.5 4.5-4.5-2.015-4.5-4.5 2.015-4.5 4.5-4.5zm27 0c2.485 0 4.5 2.015 4.5 4.5s-2.015 4.5-4.5 4.5-4.5-2.015-4.5-4.5 2.015-4.5 4.5-4.5zm28 0c2.485 0 4.5 2.015 4.5 4.5s-2.015 4.5-4.5 4.5-4.5-2.015-4.5-4.5 2.015-4.5 4.5-4.5zm27 0c2.485 0 4.5 2.015 4.5 4.5s-2.015 4.5-4.5 4.5-4.5-2.015-4.5-4.5 2.015-4.5 4.5-4.5z" opacity=".2"/>
            <path fill="#302F2D" fill-opacity=".08" d="M24 76H449V376H24z" filter="url(#prefix__a)"/>
            <rect width="386.444" height="347.98" x="18.568" y="8.122" fill="#FFF" stroke="#EEB728" stroke-width=".696" rx="5.802"/>
            <g>
                <g transform="translate(50.81 100.33)">
                    <rect width="413.136" height="88.179" fill="#FFF" rx="9.284"/>
                    <rect width="411.975" height="87.018" x=".58" y=".58" stroke="#E6E6E6" stroke-width="1.16" rx="9.284"/>
                    <use fill="#000" filter="url(#prefix__b)" xlink:href="#prefix__c"/>
                    <use fill="#FFF" xlink:href="#prefix__c"/>
                    <use fill="#000" filter="url(#prefix__d)" xlink:href="#prefix__c"/>
                </g>
                <path fill="#3D91F3" d="M385.15 42.797l-6.5-6.682c-.695-.714-1.821-.714-2.516 0-.694.714-.694 1.871 0 2.585l5.243 5.39-5.243 5.389c-.694.714-.694 1.871 0 2.585.695.714 1.82.714 2.515 0l6.5-6.682c.695-.714.695-1.871 0-2.585z" transform="translate(50.81 100.33)"/>
                <text fill="#000" fill-opacity=".5" font-family="Nunito-Light, Nunito" font-size="13.926" font-weight="300" transform="translate(50.81 100.33)">
                    <tspan x="23.21" y="60.242">Dec 27, 2019</tspan>
                </text>
                <g>
                    <text fill="#111D31" font-family="Nunito-SemiBold, Nunito" font-size="16.247" font-weight="500" transform="translate(50.81 100.33) translate(25.191 15.116)">
                        <tspan x="0" y="16.992">Sick Leave</tspan>
                    </text>
                    <text fill="#172B4D" font-family="Nunito-ExtraBold, Nunito" font-size="11.605" font-weight="600" transform="translate(50.81 100.33) translate(25.191 15.116)">
                        <tspan x="87.037" y="16.474">:</tspan>
                    </text>
                    <text fill="#172B4D" font-family="Nunito-Bold, Nunito" font-size="16.247" font-weight="bold" transform="translate(50.81 100.33) translate(25.191 15.116)">
                        <tspan x="99.802" y="18.351">1 day</tspan>
                    </text>
                </g>
                <g transform="translate(50.81 100.33) translate(117.21 47.402)">
                    <rect width="63.827" height="18.568" fill="#EEB728" rx="2.321"/>
                    <path stroke="#FFF" stroke-dasharray="1.16 2.321" stroke-linecap="round" stroke-linejoin="bevel" stroke-width=".635" d="M2.901 1.74h58.025c.64 0 1.16.52 1.16 1.161v12.766c0 .64-.52 1.16-1.16 1.16H2.9c-.64 0-1.16-.52-1.16-1.16V2.9c0-.64.52-1.16 1.16-1.16z"/>
                    <path fill="#FFF" fill-rule="nonzero" d="M11.194 12.185c.147 0 .284-.028.41-.085.127-.056.238-.135.335-.235.096-.1.173-.217.23-.351.056-.134.084-.279.084-.434V9.046h1.298c.498 0 .954-.052 1.365-.156.412-.104.764-.261 1.057-.473.293-.212.52-.477.68-.796.16-.32.241-.696.241-1.13 0-.503-.093-.919-.278-1.247-.185-.329-.432-.589-.742-.78-.31-.19-.666-.323-1.068-.399-.402-.075-.82-.113-1.255-.113h-2.046c-.306 0-.548.04-.728.122-.18.08-.315.191-.408.331-.092.14-.153.305-.181.496-.029.19-.043.394-.043.61v5.57c0 .154.028.299.082.433.055.134.13.25.224.351.095.1.205.179.332.235.126.057.263.085.41.085zm2.011-4.403h-.952V5.227h1.048c.227 0 .434.02.621.062.187.042.348.11.482.204.134.095.239.218.314.371.076.153.113.362.113.626 0 .269-.04.482-.119.64-.079.16-.19.287-.331.383-.142.097-.313.165-.513.207-.2.042-.421.062-.663.062zm6.885 4.471c.23 0 .472-.013.725-.04.253-.026.493-.074.72-.144.227-.07.427-.164.6-.283.174-.12.299-.27.375-.45.026-.069.04-.14.04-.216 0-.129-.039-.24-.114-.337-.076-.097-.176-.145-.3-.145-.038 0-.082.01-.13.029l-.426.141c-.136.046-.272.086-.408.122-.136.036-.275.064-.416.085-.142.02-.294.031-.456.031-.5 0-.87-.125-1.114-.377-.244-.25-.375-.605-.394-1.062H22.3c.181 0 .323-.038.425-.113.102-.076.153-.191.153-.346-.004-.37-.063-.723-.176-1.057-.113-.334-.285-.627-.515-.878-.23-.251-.522-.452-.873-.6-.351-.15-.769-.225-1.252-.225-.446 0-.855.076-1.227.227-.372.151-.693.357-.964.618-.27.26-.48.568-.631.923-.151.355-.227.737-.227 1.145 0 .487.078.916.235 1.286.157.37.373.678.649.924.276.245.602.43.977.555.376.125.781.187 1.216.187zm1.275-3.45h-2.578c.011-.193.048-.374.11-.542.062-.168.15-.315.26-.442.112-.126.244-.226.397-.3.153-.074.324-.11.513-.11.208 0 .39.034.547.104.157.07.29.167.397.292.107.125.19.272.249.442.059.17.094.355.105.555zm7.36 3.382c.337 0 .578-.096.723-.289.146-.192.218-.468.218-.827V8.508c0-.355-.053-.666-.158-.932-.106-.267-.246-.488-.42-.663-.173-.176-.375-.307-.603-.394-.229-.087-.464-.13-.706-.13-.234 0-.457.029-.668.087-.212.059-.405.14-.581.247-.176.105-.328.233-.456.382-.129.15-.227.315-.295.496 0-.359-.073-.635-.218-.827-.146-.193-.386-.29-.723-.29-.317 0-.54.097-.671.29-.13.192-.196.468-.196.827l.006 3.468c0 .359.065.635.196.827.13.193.354.29.671.29.336 0 .577-.097.723-.29.145-.192.218-.468.218-.827V8.723c0-.2.03-.376.09-.527.06-.151.143-.278.247-.38.104-.102.227-.178.368-.23.142-.05.292-.076.45-.076.13 0 .25.023.36.068.112.046.21.113.292.202.083.088.149.2.196.334.047.134.07.292.07.473v2.482c0 .359.066.635.196.827.13.193.354.29.672.29zm4.29.068c.446 0 .836-.092 1.17-.277.335-.186.619-.488.853-.907 0 .359.065.635.196.827.13.193.354.29.671.29.336 0 .577-.097.723-.29.145-.192.218-.468.218-.827V5.074c0-.36-.073-.635-.218-.828-.146-.192-.387-.289-.723-.289-.317 0-.541.097-.671.29-.13.192-.196.468-.196.827v2.408c-.219-.351-.5-.621-.841-.81-.342-.19-.723-.284-1.142-.284-.34 0-.65.07-.932.21-.282.14-.522.337-.72.592-.198.255-.352.56-.462.915-.11.355-.164.748-.164 1.179 0 .404.052.787.156 1.147.104.361.253.677.447.947.195.27.43.483.706.64.276.157.585.235.93.235zm.742-1.076c-.238 0-.431-.059-.58-.176-.15-.117-.266-.266-.349-.448-.083-.181-.14-.383-.17-.606-.03-.223-.045-.442-.045-.657 0-.246.02-.478.06-.697.039-.22.104-.411.195-.576.09-.164.212-.293.365-.388.153-.094.343-.141.57-.141.23 0 .423.042.578.127.155.085.28.206.374.363.094.157.162.345.204.564.041.219.062.462.062.73 0 .325-.022.608-.065.848-.044.24-.115.438-.215.595-.1.157-.23.273-.391.348-.161.076-.358.114-.593.114zm5.27-5.945c.125 0 .247-.016.366-.048s.224-.08.314-.144c.09-.064.165-.145.221-.241.057-.096.085-.207.085-.332 0-.12-.027-.228-.082-.323-.055-.094-.127-.173-.218-.238-.09-.064-.196-.113-.315-.147-.119-.034-.24-.05-.365-.05-.144 0-.276.018-.397.056-.12.038-.224.09-.311.158s-.156.149-.207.241c-.051.093-.077.194-.077.303 0 .121.027.229.08.323.053.095.124.175.215.241.09.066.195.116.314.15.12.034.245.051.377.051zm-.04 6.953c.337 0 .578-.096.723-.289.146-.192.218-.468.218-.827V7.6c0-.359-.072-.635-.218-.827-.145-.193-.386-.29-.722-.29-.318 0-.542.097-.672.29-.13.192-.195.468-.195.827v3.468c0 .359.065.635.195.827.13.193.354.29.672.29zm7.021 0c.337 0 .577-.096.723-.289.145-.192.218-.468.218-.827V8.508c0-.355-.053-.666-.159-.932-.105-.267-.245-.488-.419-.663-.174-.176-.375-.307-.603-.394-.229-.087-.464-.13-.706-.13-.234 0-.457.029-.669.087-.211.059-.405.14-.58.247-.176.105-.328.233-.457.382-.128.15-.226.315-.294.496 0-.359-.073-.635-.218-.827-.146-.193-.387-.29-.723-.29-.317 0-.541.097-.671.29-.13.192-.196.468-.196.827l.006 3.468c0 .359.065.635.195.827.13.193.355.29.672.29.336 0 .577-.097.722-.29.146-.192.218-.468.218-.827V8.723c0-.2.03-.376.091-.527.06-.151.143-.278.247-.38.104-.102.226-.178.368-.23.142-.05.292-.076.45-.076.129 0 .249.023.36.068.112.046.209.113.292.202.083.088.148.2.196.334.047.134.07.292.07.473v2.482c0 .359.066.635.196.827.13.193.354.29.671.29zm5.106 2.182c.521 0 .97-.065 1.348-.196.378-.13.688-.32.93-.57.242-.249.42-.555.535-.917.115-.363.173-.775.173-1.235V7.652c0-.185-.014-.35-.042-.496-.029-.145-.075-.268-.14-.368-.063-.1-.15-.176-.26-.227-.11-.05-.244-.076-.402-.076-.265 0-.471.069-.62.207-.15.137-.225.342-.225.614v.148c-.241-.378-.53-.65-.864-.816-.334-.167-.716-.25-1.147-.25-.378 0-.714.078-1.009.233-.294.155-.543.366-.745.634-.202.269-.356.584-.462.947-.105.362-.158.751-.158 1.167 0 .442.056.835.17 1.179.113.343.273.633.478.87.206.235.453.416.74.54.287.125.604.188.952.188.208 0 .41-.02.609-.06.198-.04.385-.102.561-.187.176-.085.336-.194.482-.326.145-.132.269-.293.37-.481v.674c0 .272-.03.496-.09.671-.06.176-.147.317-.26.422-.114.106-.252.18-.414.221-.163.042-.348.063-.555.063-.174 0-.336-.008-.485-.023-.15-.015-.29-.031-.425-.048l-.385-.048c-.123-.015-.245-.023-.366-.023-.113 0-.208.016-.286.048-.077.032-.14.076-.187.13-.047.055-.082.119-.105.19-.022.072-.034.148-.034.227 0 .14.052.253.156.34.104.087.258.166.462.238.204.064.447.113.728.145.281.032.605.048.972.048zm.045-3.31c-.389 0-.685-.145-.89-.436-.203-.29-.305-.725-.305-1.303 0-.253.018-.491.053-.714.036-.223.1-.417.19-.584.09-.166.213-.296.366-.39.153-.095.346-.142.58-.142.239 0 .437.044.596.133.158.089.285.213.38.374.094.16.16.354.2.58.04.227.06.479.06.754 0 .306-.03.567-.09.782-.061.216-.146.393-.256.533-.11.14-.239.243-.388.309-.15.066-.314.1-.496.105z"/>
                </g>
            </g>
            <g>
                <g transform="translate(3.481 198.904)">
                    <rect width="380.642" height="81.217" fill="#FFF" rx="9.284"/>
                    <rect width="379.481" height="80.057" x=".58" y=".58" stroke="#E6E6E6" stroke-width="1.16" rx="9.284"/>
                    <use fill="#000" filter="url(#prefix__e)" xlink:href="#prefix__f"/>
                </g>
                <path fill="#3D91F3" d="M352.656 39.316l-6.5-6.682c-.695-.714-1.821-.714-2.516 0-.694.714-.694 1.871 0 2.585l5.243 5.39-5.243 5.389c-.694.714-.694 1.872 0 2.586.695.713 1.82.713 2.516 0l6.5-6.683c.695-.714.695-1.871 0-2.585z" transform="translate(3.481 198.904)"/>
                <text fill="#000" fill-opacity=".5" font-family="Nunito-Light, Nunito" font-size="13.926" font-weight="300" transform="translate(3.481 198.904)">
                    <tspan x="23.21" y="55.767">Dec 02, 2019</tspan>
                </text>
                <g>
                    <text fill="#172B4D" font-family="Nunito-Bold, Nunito" font-size="16.247" font-weight="bold" transform="translate(3.481 198.904) translate(23.21 13.926)">
                        <tspan x="114.324" y="17.16">4 days</tspan>
                    </text>
                    <text fill="#172B4D" font-family="Nunito-ExtraBold, Nunito" font-size="11.605" font-weight="600" transform="translate(3.481 198.904) translate(23.21 13.926)">
                        <tspan x="105.432" y="15.481">:</tspan>
                    </text>
                    <text fill="#111D31" font-family="Nunito-SemiBold, Nunito" font-size="16.247" font-weight="500" transform="translate(3.481 198.904) translate(23.21 13.926)">
                        <tspan x="0" y="16">Annual Leave</tspan>
                    </text>
                </g>
                <g transform="translate(3.481 198.904) translate(117.21 42.938)">
                    <rect width="63.827" height="18.568" fill="#EEB728" rx="2.321"/>
                    <path stroke="#FFF" stroke-dasharray="1.16 2.321" stroke-linecap="round" stroke-linejoin="bevel" stroke-width=".635" d="M2.901 1.74h58.025c.64 0 1.16.52 1.16 1.161v12.766c0 .64-.52 1.16-1.16 1.16H2.9c-.64 0-1.16-.52-1.16-1.16V2.9c0-.64.52-1.16 1.16-1.16z"/>
                    <path fill="#FFF" fill-rule="nonzero" d="M11.194 12.185c.147 0 .284-.028.41-.085.127-.056.238-.135.335-.235.096-.1.173-.217.23-.351.056-.134.084-.279.084-.434V9.046h1.298c.498 0 .954-.052 1.365-.156.412-.104.764-.261 1.057-.473.293-.212.52-.477.68-.796.16-.32.241-.696.241-1.13 0-.503-.093-.919-.278-1.247-.185-.329-.432-.589-.742-.78-.31-.19-.666-.323-1.068-.399-.402-.075-.82-.113-1.255-.113h-2.046c-.306 0-.548.04-.728.122-.18.08-.315.191-.408.331-.092.14-.153.305-.181.496-.029.19-.043.394-.043.61v5.57c0 .154.028.299.082.433.055.134.13.25.224.351.095.1.205.179.332.235.126.057.263.085.41.085zm2.011-4.403h-.952V5.227h1.048c.227 0 .434.02.621.062.187.042.348.11.482.204.134.095.239.218.314.371.076.153.113.362.113.626 0 .269-.04.482-.119.64-.079.16-.19.287-.331.383-.142.097-.313.165-.513.207-.2.042-.421.062-.663.062zm6.885 4.471c.23 0 .472-.013.725-.04.253-.026.493-.074.72-.144.227-.07.427-.164.6-.283.174-.12.299-.27.375-.45.026-.069.04-.14.04-.216 0-.129-.039-.24-.114-.337-.076-.097-.176-.145-.3-.145-.038 0-.082.01-.13.029l-.426.141c-.136.046-.272.086-.408.122-.136.036-.275.064-.416.085-.142.02-.294.031-.456.031-.5 0-.87-.125-1.114-.377-.244-.25-.375-.605-.394-1.062H22.3c.181 0 .323-.038.425-.113.102-.076.153-.191.153-.346-.004-.37-.063-.723-.176-1.057-.113-.334-.285-.627-.515-.878-.23-.251-.522-.452-.873-.6-.351-.15-.769-.225-1.252-.225-.446 0-.855.076-1.227.227-.372.151-.693.357-.964.618-.27.26-.48.568-.631.923-.151.355-.227.737-.227 1.145 0 .487.078.916.235 1.286.157.37.373.678.649.924.276.245.602.43.977.555.376.125.781.187 1.216.187zm1.275-3.45h-2.578c.011-.193.048-.374.11-.542.062-.168.15-.315.26-.442.112-.126.244-.226.397-.3.153-.074.324-.11.513-.11.208 0 .39.034.547.104.157.07.29.167.397.292.107.125.19.272.249.442.059.17.094.355.105.555zm7.36 3.382c.337 0 .578-.096.723-.289.146-.192.218-.468.218-.827V8.508c0-.355-.053-.666-.158-.932-.106-.267-.246-.488-.42-.663-.173-.176-.375-.307-.603-.394-.229-.087-.464-.13-.706-.13-.234 0-.457.029-.668.087-.212.059-.405.14-.581.247-.176.105-.328.233-.456.382-.129.15-.227.315-.295.496 0-.359-.073-.635-.218-.827-.146-.193-.386-.29-.723-.29-.317 0-.54.097-.671.29-.13.192-.196.468-.196.827l.006 3.468c0 .359.065.635.196.827.13.193.354.29.671.29.336 0 .577-.097.723-.29.145-.192.218-.468.218-.827V8.723c0-.2.03-.376.09-.527.06-.151.143-.278.247-.38.104-.102.227-.178.368-.23.142-.05.292-.076.45-.076.13 0 .25.023.36.068.112.046.21.113.292.202.083.088.149.2.196.334.047.134.07.292.07.473v2.482c0 .359.066.635.196.827.13.193.354.29.672.29zm4.29.068c.446 0 .836-.092 1.17-.277.335-.186.619-.488.853-.907 0 .359.065.635.196.827.13.193.354.29.671.29.336 0 .577-.097.723-.29.145-.192.218-.468.218-.827V5.074c0-.36-.073-.635-.218-.828-.146-.192-.387-.289-.723-.289-.317 0-.541.097-.671.29-.13.192-.196.468-.196.827v2.408c-.219-.351-.5-.621-.841-.81-.342-.19-.723-.284-1.142-.284-.34 0-.65.07-.932.21-.282.14-.522.337-.72.592-.198.255-.352.56-.462.915-.11.355-.164.748-.164 1.179 0 .404.052.787.156 1.147.104.361.253.677.447.947.195.27.43.483.706.64.276.157.585.235.93.235zm.742-1.076c-.238 0-.431-.059-.58-.176-.15-.117-.266-.266-.349-.448-.083-.181-.14-.383-.17-.606-.03-.223-.045-.442-.045-.657 0-.246.02-.478.06-.697.039-.22.104-.411.195-.576.09-.164.212-.293.365-.388.153-.094.343-.141.57-.141.23 0 .423.042.578.127.155.085.28.206.374.363.094.157.162.345.204.564.041.219.062.462.062.73 0 .325-.022.608-.065.848-.044.24-.115.438-.215.595-.1.157-.23.273-.391.348-.161.076-.358.114-.593.114zm5.27-5.945c.125 0 .247-.016.366-.048s.224-.08.314-.144c.09-.064.165-.145.221-.241.057-.096.085-.207.085-.332 0-.12-.027-.228-.082-.323-.055-.094-.127-.173-.218-.238-.09-.064-.196-.113-.315-.147-.119-.034-.24-.05-.365-.05-.144 0-.276.018-.397.056-.12.038-.224.09-.311.158s-.156.149-.207.241c-.051.093-.077.194-.077.303 0 .121.027.229.08.323.053.095.124.175.215.241.09.066.195.116.314.15.12.034.245.051.377.051zm-.04 6.953c.337 0 .578-.096.723-.289.146-.192.218-.468.218-.827V7.6c0-.359-.072-.635-.218-.827-.145-.193-.386-.29-.722-.29-.318 0-.542.097-.672.29-.13.192-.195.468-.195.827v3.468c0 .359.065.635.195.827.13.193.354.29.672.29zm7.021 0c.337 0 .577-.096.723-.289.145-.192.218-.468.218-.827V8.508c0-.355-.053-.666-.159-.932-.105-.267-.245-.488-.419-.663-.174-.176-.375-.307-.603-.394-.229-.087-.464-.13-.706-.13-.234 0-.457.029-.669.087-.211.059-.405.14-.58.247-.176.105-.328.233-.457.382-.128.15-.226.315-.294.496 0-.359-.073-.635-.218-.827-.146-.193-.387-.29-.723-.29-.317 0-.541.097-.671.29-.13.192-.196.468-.196.827l.006 3.468c0 .359.065.635.195.827.13.193.355.29.672.29.336 0 .577-.097.722-.29.146-.192.218-.468.218-.827V8.723c0-.2.03-.376.091-.527.06-.151.143-.278.247-.38.104-.102.226-.178.368-.23.142-.05.292-.076.45-.076.129 0 .249.023.36.068.112.046.209.113.292.202.083.088.148.2.196.334.047.134.07.292.07.473v2.482c0 .359.066.635.196.827.13.193.354.29.671.29zm5.106 2.182c.521 0 .97-.065 1.348-.196.378-.13.688-.32.93-.57.242-.249.42-.555.535-.917.115-.363.173-.775.173-1.235V7.652c0-.185-.014-.35-.042-.496-.029-.145-.075-.268-.14-.368-.063-.1-.15-.176-.26-.227-.11-.05-.244-.076-.402-.076-.265 0-.471.069-.62.207-.15.137-.225.342-.225.614v.148c-.241-.378-.53-.65-.864-.816-.334-.167-.716-.25-1.147-.25-.378 0-.714.078-1.009.233-.294.155-.543.366-.745.634-.202.269-.356.584-.462.947-.105.362-.158.751-.158 1.167 0 .442.056.835.17 1.179.113.343.273.633.478.87.206.235.453.416.74.54.287.125.604.188.952.188.208 0 .41-.02.609-.06.198-.04.385-.102.561-.187.176-.085.336-.194.482-.326.145-.132.269-.293.37-.481v.674c0 .272-.03.496-.09.671-.06.176-.147.317-.26.422-.114.106-.252.18-.414.221-.163.042-.348.063-.555.063-.174 0-.336-.008-.485-.023-.15-.015-.29-.031-.425-.048l-.385-.048c-.123-.015-.245-.023-.366-.023-.113 0-.208.016-.286.048-.077.032-.14.076-.187.13-.047.055-.082.119-.105.19-.022.072-.034.148-.034.227 0 .14.052.253.156.34.104.087.258.166.462.238.204.064.447.113.728.145.281.032.605.048.972.048zm.045-3.31c-.389 0-.685-.145-.89-.436-.203-.29-.305-.725-.305-1.303 0-.253.018-.491.053-.714.036-.223.1-.417.19-.584.09-.166.213-.296.366-.39.153-.095.346-.142.58-.142.239 0 .437.044.596.133.158.089.285.213.38.374.094.16.16.354.2.58.04.227.06.479.06.754 0 .306-.03.567-.09.782-.061.216-.146.393-.256.533-.11.14-.239.243-.388.309-.15.066-.314.1-.496.105z"/>
                </g>
            </g>
            <g>
                <g transform="translate(50.81 290.83)">
                    <rect width="380.642" height="81.217" fill="#FFF" rx="9.284"/>
                    <rect width="379.481" height="80.057" x=".58" y=".58" stroke="#E6E6E6" stroke-width="1.16" rx="9.284"/>
                    <use fill="#000" filter="url(#prefix__g)" xlink:href="#prefix__h"/>
                </g>
                <path fill="#3D91F3" d="M352.656 39.316l-6.5-6.682c-.695-.714-1.821-.714-2.516 0-.694.714-.694 1.871 0 2.585l5.243 5.39-5.243 5.389c-.694.714-.694 1.872 0 2.586.695.713 1.82.713 2.516 0l6.5-6.683c.695-.714.695-1.871 0-2.585z" transform="translate(50.81 290.83)"/>
                <text fill="#000" fill-opacity=".5" font-family="Nunito-Light, Nunito" font-size="13.926" font-weight="300" transform="translate(50.81 290.83)">
                    <tspan x="23.21" y="55.767">Nov 29, 2019</tspan>
                </text>
                <g>
                    <text fill="#111D31" font-family="Nunito-SemiBold, Nunito" font-size="16.247" font-weight="500" transform="translate(50.81 290.83) translate(23.21 13.926)">
                        <tspan x="0" y="16">Casual Leave</tspan>
                    </text>
                    <text fill="#172B4D" font-family="Nunito-ExtraBold, Nunito" font-size="11.605" font-weight="600" transform="translate(50.81 290.83) translate(23.21 13.926)">
                        <tspan x="102.892" y="17.081">:</tspan>
                    </text>
                    <text fill="#172B4D" font-family="Nunito-Bold, Nunito" font-size="16.247" font-weight="bold" transform="translate(50.81 290.83) translate(23.21 13.926)">
                        <tspan x="111.784" y="17.27">1 day</tspan>
                    </text>
                </g>
                <g transform="translate(50.81 290.83) translate(117.21 42.938)">
                    <rect width="63.827" height="18.568" fill="#EEB728" rx="2.321"/>
                    <path stroke="#FFF" stroke-dasharray="1.16 2.321" stroke-linecap="round" stroke-linejoin="bevel" stroke-width=".635" d="M2.901 1.74h58.025c.64 0 1.16.52 1.16 1.161v12.766c0 .64-.52 1.16-1.16 1.16H2.9c-.64 0-1.16-.52-1.16-1.16V2.9c0-.64.52-1.16 1.16-1.16z"/>
                    <path fill="#FFF" fill-rule="nonzero" d="M11.194 12.185c.147 0 .284-.028.41-.085.127-.056.238-.135.335-.235.096-.1.173-.217.23-.351.056-.134.084-.279.084-.434V9.046h1.298c.498 0 .954-.052 1.365-.156.412-.104.764-.261 1.057-.473.293-.212.52-.477.68-.796.16-.32.241-.696.241-1.13 0-.503-.093-.919-.278-1.247-.185-.329-.432-.589-.742-.78-.31-.19-.666-.323-1.068-.399-.402-.075-.82-.113-1.255-.113h-2.046c-.306 0-.548.04-.728.122-.18.08-.315.191-.408.331-.092.14-.153.305-.181.496-.029.19-.043.394-.043.61v5.57c0 .154.028.299.082.433.055.134.13.25.224.351.095.1.205.179.332.235.126.057.263.085.41.085zm2.011-4.403h-.952V5.227h1.048c.227 0 .434.02.621.062.187.042.348.11.482.204.134.095.239.218.314.371.076.153.113.362.113.626 0 .269-.04.482-.119.64-.079.16-.19.287-.331.383-.142.097-.313.165-.513.207-.2.042-.421.062-.663.062zm6.885 4.471c.23 0 .472-.013.725-.04.253-.026.493-.074.72-.144.227-.07.427-.164.6-.283.174-.12.299-.27.375-.45.026-.069.04-.14.04-.216 0-.129-.039-.24-.114-.337-.076-.097-.176-.145-.3-.145-.038 0-.082.01-.13.029l-.426.141c-.136.046-.272.086-.408.122-.136.036-.275.064-.416.085-.142.02-.294.031-.456.031-.5 0-.87-.125-1.114-.377-.244-.25-.375-.605-.394-1.062H22.3c.181 0 .323-.038.425-.113.102-.076.153-.191.153-.346-.004-.37-.063-.723-.176-1.057-.113-.334-.285-.627-.515-.878-.23-.251-.522-.452-.873-.6-.351-.15-.769-.225-1.252-.225-.446 0-.855.076-1.227.227-.372.151-.693.357-.964.618-.27.26-.48.568-.631.923-.151.355-.227.737-.227 1.145 0 .487.078.916.235 1.286.157.37.373.678.649.924.276.245.602.43.977.555.376.125.781.187 1.216.187zm1.275-3.45h-2.578c.011-.193.048-.374.11-.542.062-.168.15-.315.26-.442.112-.126.244-.226.397-.3.153-.074.324-.11.513-.11.208 0 .39.034.547.104.157.07.29.167.397.292.107.125.19.272.249.442.059.17.094.355.105.555zm7.36 3.382c.337 0 .578-.096.723-.289.146-.192.218-.468.218-.827V8.508c0-.355-.053-.666-.158-.932-.106-.267-.246-.488-.42-.663-.173-.176-.375-.307-.603-.394-.229-.087-.464-.13-.706-.13-.234 0-.457.029-.668.087-.212.059-.405.14-.581.247-.176.105-.328.233-.456.382-.129.15-.227.315-.295.496 0-.359-.073-.635-.218-.827-.146-.193-.386-.29-.723-.29-.317 0-.54.097-.671.29-.13.192-.196.468-.196.827l.006 3.468c0 .359.065.635.196.827.13.193.354.29.671.29.336 0 .577-.097.723-.29.145-.192.218-.468.218-.827V8.723c0-.2.03-.376.09-.527.06-.151.143-.278.247-.38.104-.102.227-.178.368-.23.142-.05.292-.076.45-.076.13 0 .25.023.36.068.112.046.21.113.292.202.083.088.149.2.196.334.047.134.07.292.07.473v2.482c0 .359.066.635.196.827.13.193.354.29.672.29zm4.29.068c.446 0 .836-.092 1.17-.277.335-.186.619-.488.853-.907 0 .359.065.635.196.827.13.193.354.29.671.29.336 0 .577-.097.723-.29.145-.192.218-.468.218-.827V5.074c0-.36-.073-.635-.218-.828-.146-.192-.387-.289-.723-.289-.317 0-.541.097-.671.29-.13.192-.196.468-.196.827v2.408c-.219-.351-.5-.621-.841-.81-.342-.19-.723-.284-1.142-.284-.34 0-.65.07-.932.21-.282.14-.522.337-.72.592-.198.255-.352.56-.462.915-.11.355-.164.748-.164 1.179 0 .404.052.787.156 1.147.104.361.253.677.447.947.195.27.43.483.706.64.276.157.585.235.93.235zm.742-1.076c-.238 0-.431-.059-.58-.176-.15-.117-.266-.266-.349-.448-.083-.181-.14-.383-.17-.606-.03-.223-.045-.442-.045-.657 0-.246.02-.478.06-.697.039-.22.104-.411.195-.576.09-.164.212-.293.365-.388.153-.094.343-.141.57-.141.23 0 .423.042.578.127.155.085.28.206.374.363.094.157.162.345.204.564.041.219.062.462.062.73 0 .325-.022.608-.065.848-.044.24-.115.438-.215.595-.1.157-.23.273-.391.348-.161.076-.358.114-.593.114zm5.27-5.945c.125 0 .247-.016.366-.048s.224-.08.314-.144c.09-.064.165-.145.221-.241.057-.096.085-.207.085-.332 0-.12-.027-.228-.082-.323-.055-.094-.127-.173-.218-.238-.09-.064-.196-.113-.315-.147-.119-.034-.24-.05-.365-.05-.144 0-.276.018-.397.056-.12.038-.224.09-.311.158s-.156.149-.207.241c-.051.093-.077.194-.077.303 0 .121.027.229.08.323.053.095.124.175.215.241.09.066.195.116.314.15.12.034.245.051.377.051zm-.04 6.953c.337 0 .578-.096.723-.289.146-.192.218-.468.218-.827V7.6c0-.359-.072-.635-.218-.827-.145-.193-.386-.29-.722-.29-.318 0-.542.097-.672.29-.13.192-.195.468-.195.827v3.468c0 .359.065.635.195.827.13.193.354.29.672.29zm7.021 0c.337 0 .577-.096.723-.289.145-.192.218-.468.218-.827V8.508c0-.355-.053-.666-.159-.932-.105-.267-.245-.488-.419-.663-.174-.176-.375-.307-.603-.394-.229-.087-.464-.13-.706-.13-.234 0-.457.029-.669.087-.211.059-.405.14-.58.247-.176.105-.328.233-.457.382-.128.15-.226.315-.294.496 0-.359-.073-.635-.218-.827-.146-.193-.387-.29-.723-.29-.317 0-.541.097-.671.29-.13.192-.196.468-.196.827l.006 3.468c0 .359.065.635.195.827.13.193.355.29.672.29.336 0 .577-.097.722-.29.146-.192.218-.468.218-.827V8.723c0-.2.03-.376.091-.527.06-.151.143-.278.247-.38.104-.102.226-.178.368-.23.142-.05.292-.076.45-.076.129 0 .249.023.36.068.112.046.209.113.292.202.083.088.148.2.196.334.047.134.07.292.07.473v2.482c0 .359.066.635.196.827.13.193.354.29.671.29zm5.106 2.182c.521 0 .97-.065 1.348-.196.378-.13.688-.32.93-.57.242-.249.42-.555.535-.917.115-.363.173-.775.173-1.235V7.652c0-.185-.014-.35-.042-.496-.029-.145-.075-.268-.14-.368-.063-.1-.15-.176-.26-.227-.11-.05-.244-.076-.402-.076-.265 0-.471.069-.62.207-.15.137-.225.342-.225.614v.148c-.241-.378-.53-.65-.864-.816-.334-.167-.716-.25-1.147-.25-.378 0-.714.078-1.009.233-.294.155-.543.366-.745.634-.202.269-.356.584-.462.947-.105.362-.158.751-.158 1.167 0 .442.056.835.17 1.179.113.343.273.633.478.87.206.235.453.416.74.54.287.125.604.188.952.188.208 0 .41-.02.609-.06.198-.04.385-.102.561-.187.176-.085.336-.194.482-.326.145-.132.269-.293.37-.481v.674c0 .272-.03.496-.09.671-.06.176-.147.317-.26.422-.114.106-.252.18-.414.221-.163.042-.348.063-.555.063-.174 0-.336-.008-.485-.023-.15-.015-.29-.031-.425-.048l-.385-.048c-.123-.015-.245-.023-.366-.023-.113 0-.208.016-.286.048-.077.032-.14.076-.187.13-.047.055-.082.119-.105.19-.022.072-.034.148-.034.227 0 .14.052.253.156.34.104.087.258.166.462.238.204.064.447.113.728.145.281.032.605.048.972.048zm.045-3.31c-.389 0-.685-.145-.89-.436-.203-.29-.305-.725-.305-1.303 0-.253.018-.491.053-.714.036-.223.1-.417.19-.584.09-.166.213-.296.366-.39.153-.095.346-.142.58-.142.239 0 .437.044.596.133.158.089.285.213.38.374.094.16.16.354.2.58.04.227.06.479.06.754 0 .306-.03.567-.09.782-.061.216-.146.393-.256.533-.11.14-.239.243-.388.309-.15.066-.314.1-.496.105z"/>
                </g>
            </g>
            <text fill="#000" fill-opacity=".5" font-family="Nunito-Bold, Nunito" font-size="16.247" font-weight="bold">
                <tspan x="30.173" y="86.835">December, 2019</tspan>
            </text>
            <g transform="translate(51.062 18.564)">
                <g transform="translate(116.05)">
                    <rect width="106.765" height="37.128" fill="#FFF" rx="18.564"/>
                    <rect width="105.605" height="35.967" x=".58" y=".58" stroke="#E6E6E6" stroke-width="1.16" rx="17.984"/>
                    <use fill="#000" filter="url(#prefix__i)" xlink:href="#prefix__j"/>
                    <text fill="#71BA00" font-family="Nunito-Bold, Nunito" font-size="13.926" font-weight="bold">
                        <tspan x="31.302" y="22.12">Casual</tspan>
                    </text>
                </g>
                <g transform="translate(232.099)">
                    <rect width="106.765" height="37.136" fill="#FFF" rx="18.568"/>
                    <rect width="105.605" height="35.975" x=".58" y=".58" stroke="#E6E6E6" stroke-width="1.16" rx="17.988"/>
                    <use fill="#FFF" xlink:href="#prefix__k"/>
                    <use fill="#000" filter="url(#prefix__l)" xlink:href="#prefix__k"/>
                    <use stroke="#EEE" stroke-width="1.16" xlink:href="#prefix__k"/>
                    <text fill="#71BA00" font-family="Nunito-Bold, Nunito" font-size="13.926" font-weight="bold">
                        <tspan x="39.883" y="22.123">Sick</tspan>
                    </text>
                </g>
                <rect width="106.765" height="37.136" fill="#71BA00" rx="18.568"/>
                <use fill="#000" filter="url(#prefix__m)" xlink:href="#prefix__n"/>
                <use fill="#000" fill-opacity=".1" xlink:href="#prefix__n"/>
                <text fill="#FFF" font-family="Nunito-Bold, Nunito" font-size="13.926" font-weight="bold">
                    <tspan x="44.383" y="22.123">All</tspan>
                </text>
            </g>
        </g>
    </g>
</svg>
