<svg xmlns="http://www.w3.org/2000/svg" xmlns:xlink="http://www.w3.org/1999/xlink" width="570" height="437" viewBox="0 0 570 437">
    <defs>
        <filter id="prefix__a" width="125.8%" height="126.2%" x="-12.9%" y="-13.1%" filterUnits="objectBoundingBox">
            <feGaussianBlur in="SourceGraphic" stdDeviation="15"/>
        </filter>
        <filter id="prefix__b" width="132.3%" height="226.2%" x="-16.2%" y="-50.8%" filterUnits="objectBoundingBox">
            <feOffset dy="12" in="SourceAlpha" result="shadowOffsetOuter1"/>
            <feGaussianBlur in="shadowOffsetOuter1" result="shadowBlurOuter1" stdDeviation="18.5"/>
            <feColorMatrix in="shadowBlurOuter1" values="0 0 0 0 0.365103676 0 0 0 0 0.43993433 0 0 0 0 0.0115013319 0 0 0 0.0977381993 0"/>
        </filter>
        <filter id="prefix__d" width="121%" height="182.1%" x="-10.5%" y="-28.7%" filterUnits="objectBoundingBox">
            <feOffset dy="-6" in="SourceAlpha" result="shadowOffsetInner1"/>
            <feComposite in="shadowOffsetInner1" in2="SourceAlpha" k2="-1" k3="1" operator="arithmetic" result="shadowInnerInner1"/>
            <feColorMatrix in="shadowInnerInner1" values="0 0 0 0 0.901960784 0 0 0 0 0.901960784 0 0 0 0 0.901960784 0 0 0 1 0"/>
        </filter>
        <filter id="prefix__h" width="128.9%" height="212.8%" x="-14.4%" y="-45.4%" filterUnits="objectBoundingBox">
            <feOffset dy="12" in="SourceAlpha" result="shadowOffsetOuter1"/>
            <feGaussianBlur in="shadowOffsetOuter1" result="shadowBlurOuter1" stdDeviation="18.5"/>
            <feColorMatrix in="shadowBlurOuter1" values="0 0 0 0 0.365103676 0 0 0 0 0.43993433 0 0 0 0 0.0115013319 0 0 0 0.0977381993 0"/>
        </filter>
        <filter id="prefix__j" width="118.8%" height="173.4%" x="-9.4%" y="-25.7%" filterUnits="objectBoundingBox">
            <feOffset dy="-6" in="SourceAlpha" result="shadowOffsetInner1"/>
            <feComposite in="shadowOffsetInner1" in2="SourceAlpha" k2="-1" k3="1" operator="arithmetic" result="shadowInnerInner1"/>
            <feColorMatrix in="shadowInnerInner1" values="0 0 0 0 0.901960784 0 0 0 0 0.901960784 0 0 0 0 0.901960784 0 0 0 1 0"/>
        </filter>
        <filter id="prefix__n" width="188%" height="188%" x="-43.7%" y="-43.7%" filterUnits="objectBoundingBox">
            <feOffset dx="-3" dy="-3" in="SourceAlpha" result="shadowOffsetOuter1"/>
            <feGaussianBlur in="shadowOffsetOuter1" result="shadowBlurOuter1" stdDeviation="3.5"/>
            <feColorMatrix in="shadowBlurOuter1" result="shadowMatrixOuter1" values="0 0 0 0 0.547321705 0 0 0 0 0.575680792 0 0 0 0 0.717476223 0 0 0 0.1 0"/>
            <feMerge>
                <feMergeNode in="shadowMatrixOuter1"/>
                <feMergeNode in="SourceGraphic"/>
            </feMerge>
        </filter>
        <linearGradient id="prefix__f" x1="19.021%" x2="84.259%" y1="8.443%" y2="86.371%">
            <stop offset="0%" stop-color="#FFF"/>
            <stop offset="100%" stop-color="#EDF2FA"/>
        </linearGradient>
        <linearGradient id="prefix__l" x1="19.021%" x2="84.259%" y1="8.433%" y2="86.379%">
            <stop offset="0%" stop-color="#FFF"/>
            <stop offset="100%" stop-color="#EDF2FA"/>
        </linearGradient>
        <ellipse id="prefix__e" cx="34.859" cy="34.853" rx="34.859" ry="34.853"/>
        <ellipse id="prefix__k" cx="38.954" cy="38.951" rx="38.954" ry="38.951"/>
        <rect id="prefix__c" width="380.642" height="97.461" x="0" y="0" rx="10.148"/>
        <rect id="prefix__i" width="425.901" height="109.063" x="0" y="0" rx="10.148"/>
    </defs>
    <g fill="none" fill-rule="evenodd">
        <path fill="#FFF" d="M0 0H570V420H0z" transform="translate(0 17)"/>
        <path fill="#D6404F" d="M380.5 372c2.485 0 4.5 2.015 4.5 4.5s-2.015 4.5-4.5 4.5-4.5-2.015-4.5-4.5 2.015-4.5 4.5-4.5zm26 0c2.485 0 4.5 2.015 4.5 4.5s-2.015 4.5-4.5 4.5-4.5-2.015-4.5-4.5 2.015-4.5 4.5-4.5zm27 0c2.485 0 4.5 2.015 4.5 4.5s-2.015 4.5-4.5 4.5-4.5-2.015-4.5-4.5 2.015-4.5 4.5-4.5zm27 0c2.485 0 4.5 2.015 4.5 4.5s-2.015 4.5-4.5 4.5-4.5-2.015-4.5-4.5 2.015-4.5 4.5-4.5zm26 0c2.485 0 4.5 2.015 4.5 4.5s-2.015 4.5-4.5 4.5-4.5-2.015-4.5-4.5 2.015-4.5 4.5-4.5zm27 0c2.485 0 4.5 2.015 4.5 4.5s-2.015 4.5-4.5 4.5-4.5-2.015-4.5-4.5 2.015-4.5 4.5-4.5zm26 0c2.485 0 4.5 2.015 4.5 4.5s-2.015 4.5-4.5 4.5-4.5-2.015-4.5-4.5 2.015-4.5 4.5-4.5zm-159-26c2.485 0 4.5 2.015 4.5 4.5s-2.015 4.5-4.5 4.5-4.5-2.015-4.5-4.5 2.015-4.5 4.5-4.5zm26 0c2.485 0 4.5 2.015 4.5 4.5s-2.015 4.5-4.5 4.5-4.5-2.015-4.5-4.5 2.015-4.5 4.5-4.5zm27 0c2.485 0 4.5 2.015 4.5 4.5s-2.015 4.5-4.5 4.5-4.5-2.015-4.5-4.5 2.015-4.5 4.5-4.5zm27 0c2.485 0 4.5 2.015 4.5 4.5s-2.015 4.5-4.5 4.5-4.5-2.015-4.5-4.5 2.015-4.5 4.5-4.5zm26 0c2.485 0 4.5 2.015 4.5 4.5s-2.015 4.5-4.5 4.5-4.5-2.015-4.5-4.5 2.015-4.5 4.5-4.5zm27 0c2.485 0 4.5 2.015 4.5 4.5s-2.015 4.5-4.5 4.5-4.5-2.015-4.5-4.5 2.015-4.5 4.5-4.5zm26 0c2.485 0 4.5 2.015 4.5 4.5s-2.015 4.5-4.5 4.5-4.5-2.015-4.5-4.5 2.015-4.5 4.5-4.5zm-159-27c2.485 0 4.5 2.015 4.5 4.5s-2.015 4.5-4.5 4.5-4.5-2.015-4.5-4.5 2.015-4.5 4.5-4.5zm26 0c2.485 0 4.5 2.015 4.5 4.5s-2.015 4.5-4.5 4.5-4.5-2.015-4.5-4.5 2.015-4.5 4.5-4.5zm27 0c2.485 0 4.5 2.015 4.5 4.5s-2.015 4.5-4.5 4.5-4.5-2.015-4.5-4.5 2.015-4.5 4.5-4.5zm27 0c2.485 0 4.5 2.015 4.5 4.5s-2.015 4.5-4.5 4.5-4.5-2.015-4.5-4.5 2.015-4.5 4.5-4.5zm26 0c2.485 0 4.5 2.015 4.5 4.5s-2.015 4.5-4.5 4.5-4.5-2.015-4.5-4.5 2.015-4.5 4.5-4.5zm27 0c2.485 0 4.5 2.015 4.5 4.5s-2.015 4.5-4.5 4.5-4.5-2.015-4.5-4.5 2.015-4.5 4.5-4.5zm26 0c2.485 0 4.5 2.015 4.5 4.5s-2.015 4.5-4.5 4.5-4.5-2.015-4.5-4.5 2.015-4.5 4.5-4.5zm0-26c2.485 0 4.5 2.015 4.5 4.5s-2.015 4.5-4.5 4.5-4.5-2.015-4.5-4.5 2.015-4.5 4.5-4.5zm-79 0c2.485 0 4.5 2.015 4.5 4.5s-2.015 4.5-4.5 4.5-4.5-2.015-4.5-4.5 2.015-4.5 4.5-4.5zm-80 0c2.485 0 4.5 2.015 4.5 4.5s-2.015 4.5-4.5 4.5-4.5-2.015-4.5-4.5 2.015-4.5 4.5-4.5zm26 0c2.485 0 4.5 2.015 4.5 4.5s-2.015 4.5-4.5 4.5-4.5-2.015-4.5-4.5 2.015-4.5 4.5-4.5zm80 0c2.485 0 4.5 2.015 4.5 4.5s-2.015 4.5-4.5 4.5-4.5-2.015-4.5-4.5 2.015-4.5 4.5-4.5zm-53 0c2.485 0 4.5 2.015 4.5 4.5s-2.015 4.5-4.5 4.5-4.5-2.015-4.5-4.5 2.015-4.5 4.5-4.5zm80 0c2.485 0 4.5 2.015 4.5 4.5s-2.015 4.5-4.5 4.5-4.5-2.015-4.5-4.5 2.015-4.5 4.5-4.5zm26-27c2.485 0 4.5 2.015 4.5 4.5s-2.015 4.5-4.5 4.5-4.5-2.015-4.5-4.5 2.015-4.5 4.5-4.5zm-159 0c2.485 0 4.5 2.015 4.5 4.5s-2.015 4.5-4.5 4.5-4.5-2.015-4.5-4.5 2.015-4.5 4.5-4.5zm53 0c2.485 0 4.5 2.015 4.5 4.5s-2.015 4.5-4.5 4.5-4.5-2.015-4.5-4.5 2.015-4.5 4.5-4.5zm53 0c2.485 0 4.5 2.015 4.5 4.5s-2.015 4.5-4.5 4.5-4.5-2.015-4.5-4.5 2.015-4.5 4.5-4.5zm-80 0c2.485 0 4.5 2.015 4.5 4.5s-2.015 4.5-4.5 4.5-4.5-2.015-4.5-4.5 2.015-4.5 4.5-4.5zm107 0c2.485 0 4.5 2.015 4.5 4.5s-2.015 4.5-4.5 4.5-4.5-2.015-4.5-4.5 2.015-4.5 4.5-4.5zm-53 0c2.485 0 4.5 2.015 4.5 4.5s-2.015 4.5-4.5 4.5-4.5-2.015-4.5-4.5 2.015-4.5 4.5-4.5zm-80-27c2.485 0 4.5 2.015 4.5 4.5s-2.015 4.5-4.5 4.5-4.5-2.015-4.5-4.5 2.015-4.5 4.5-4.5zm26 0c2.485 0 4.5 2.015 4.5 4.5s-2.015 4.5-4.5 4.5-4.5-2.015-4.5-4.5 2.015-4.5 4.5-4.5zm27 0c2.485 0 4.5 2.015 4.5 4.5s-2.015 4.5-4.5 4.5-4.5-2.015-4.5-4.5 2.015-4.5 4.5-4.5zm27 0c2.485 0 4.5 2.015 4.5 4.5s-2.015 4.5-4.5 4.5-4.5-2.015-4.5-4.5 2.015-4.5 4.5-4.5zm26 0c2.485 0 4.5 2.015 4.5 4.5s-2.015 4.5-4.5 4.5-4.5-2.015-4.5-4.5 2.015-4.5 4.5-4.5zm27 0c2.485 0 4.5 2.015 4.5 4.5s-2.015 4.5-4.5 4.5-4.5-2.015-4.5-4.5 2.015-4.5 4.5-4.5zm26 0c2.485 0 4.5 2.015 4.5 4.5s-2.015 4.5-4.5 4.5-4.5-2.015-4.5-4.5 2.015-4.5 4.5-4.5zm-159-26c2.485 0 4.5 2.015 4.5 4.5s-2.015 4.5-4.5 4.5-4.5-2.015-4.5-4.5 2.015-4.5 4.5-4.5zm26 0c2.485 0 4.5 2.015 4.5 4.5s-2.015 4.5-4.5 4.5-4.5-2.015-4.5-4.5 2.015-4.5 4.5-4.5zm27 0c2.485 0 4.5 2.015 4.5 4.5s-2.015 4.5-4.5 4.5-4.5-2.015-4.5-4.5 2.015-4.5 4.5-4.5zm27 0c2.485 0 4.5 2.015 4.5 4.5s-2.015 4.5-4.5 4.5-4.5-2.015-4.5-4.5 2.015-4.5 4.5-4.5zm26 0c2.485 0 4.5 2.015 4.5 4.5s-2.015 4.5-4.5 4.5-4.5-2.015-4.5-4.5 2.015-4.5 4.5-4.5zm27 0c2.485 0 4.5 2.015 4.5 4.5s-2.015 4.5-4.5 4.5-4.5-2.015-4.5-4.5 2.015-4.5 4.5-4.5zm26 0c2.485 0 4.5 2.015 4.5 4.5s-2.015 4.5-4.5 4.5-4.5-2.015-4.5-4.5 2.015-4.5 4.5-4.5z" opacity=".2" transform="translate(0 17)"/>
        <path fill="#302F2D" fill-opacity=".08" d="M90 28H439V371H90z" filter="url(#prefix__a)" transform="translate(0 17)"/>
        <g>
            <g transform="translate(0 17) translate(50 10) translate(8.123 8.122)">
                <rect width="397.941" height="354.332" x=".634" y=".634" fill="#FFF" fill-rule="nonzero" stroke="#FF7761" stroke-opacity=".5" stroke-width="1.268" rx="6.342"/>
                <g fill="#000">
                    <text fill-opacity=".75" font-family="Nunito-Regular, Nunito" font-size="25.369" transform="translate(40.617 18.564)">
                        <tspan x="59.881" y="26">All Notices</tspan>
                    </text>
                    <path d="M20.094 19.02l.034.008H5.88l4.478-5.135c.22-.25.34-.59.34-.946 0-.357-.12-.694-.34-.945l-.697-.798c-.219-.25-.51-.389-.822-.389-.312 0-.604.138-.823.388L.339 19.985c-.22.251-.34.586-.339.943 0 .359.12.694.34.945l7.677 8.782c.22.25.511.389.823.389.311 0 .603-.138.822-.389l.697-.797c.22-.25.34-.585.34-.941s-.12-.673-.34-.923L5.83 22.83h14.28c.642 0 1.181-.632 1.181-1.366v-1.128c0-.733-.555-1.316-1.197-1.316z" transform="translate(40.617 18.564)"/>
                </g>
            </g>
            <text fill="#000" fill-opacity=".5" font-family="Nunito-Bold, Nunito" font-size="17.758" font-weight="bold" transform="translate(0 17) translate(50 10) translate(18.568 89.339)">
                <tspan x="0" y="18">December, 19</tspan>
            </text>
            <g>
                <g transform="translate(0 17) translate(50 10) translate(3.481 247.65)">
                    <rect width="380.642" height="97.461" fill="#FFF" rx="10.148"/>
                    <rect width="379.374" height="96.192" x=".634" y=".634" stroke="#E6E6E6" stroke-width="1.268" rx="10.148"/>
                    <use fill="#000" filter="url(#prefix__b)" xlink:href="#prefix__c"/>
                    <use fill="#FFF" xlink:href="#prefix__c"/>
                    <use fill="#000" filter="url(#prefix__d)" xlink:href="#prefix__c"/>
                </g>
                <path fill="#3D91F3" d="M352.656 45.117l-6.5-6.68c-.695-.714-1.821-.714-2.516 0-.694.714-.694 1.87 0 2.585l5.243 5.388-5.243 5.388c-.694.714-.694 1.871 0 2.585.695.714 1.82.714 2.516 0l6.5-6.68c.695-.714.695-1.872 0-2.586z" transform="translate(0 17) translate(50 10) translate(3.481 247.65)"/>
                <text fill="#000" fill-opacity=".5" font-family="Nunito-Light, Nunito" font-size="15.221" font-weight="300" transform="translate(0 17) translate(50 10) translate(3.481 247.65)">
                    <tspan x="95.16" y="67.518">Created on</tspan>
                </text>
                <text fill="#000" fill-opacity=".5" font-family="Nunito-Light, Nunito" font-size="15.221" font-weight="300" transform="translate(0 17) translate(50 10) translate(3.481 247.65)">
                    <tspan x="169.649" y="67.6">Dec 01 at 12:00 PM</tspan>
                </text>
                <text fill="#111D31" font-family="Nunito-SemiBold, Nunito" font-size="17.758" font-weight="500" transform="translate(0 17) translate(50 10) translate(3.481 247.65)">
                    <tspan x="95.283" y="37.818">Christmass Holiday</tspan>
                </text>
                <g transform="translate(0 17) translate(50 10) translate(3.481 247.65) translate(11.62 11.618)">
                    <mask id="prefix__g" fill="#fff">
                        <use xlink:href="#prefix__e"/>
                    </mask>
                    <use fill="url(#prefix__f)" xlink:href="#prefix__e"/>
                    <ellipse cx="45.317" cy="45.308" fill="#E6EDFA" mask="url(#prefix__g)" rx="24.402" ry="24.397"/>
                    <g fill-rule="nonzero" transform="translate(11.62 11.618)">
                        <path fill="#90A4AE" d="M22.864 34.484l7.94-19.919c.332-.833 1.277-1.24 2.111-.907.834.332 1.24 1.277.908 2.11L26.24 34.791l-3.376-.307z"/>
                        <path fill="#FFF9C5" d="M26.016 17.174l.004-.008h-.004v.008z"/>
                        <path fill="#000" d="M32.915 13.658c-.833-.333-1.779.074-2.11.907l-2.08 5.216c.53.085 1.057.23 1.575.436.52.207 1.003.464 1.445.765l2.078-5.214c.332-.833-.074-1.778-.908-2.11z" opacity=".1"/>
                        <path fill="#FFF9C5" d="M35.79 6.445l-5.991.644-3.805 4.431v5.623l.003-.001-.001.002c1.662-.309 3.512-.147 5.303.567 1.78.71 3.227 1.854 4.22 3.21l.018.031 3.13-3.098.349-7.732-3.226-3.677z"/>
                        <path fill="#FFCA28" d="M41.351 37.987c-2.18-3.485-9.565-6.049-18.34-6.049-8.773 0-16.158 2.564-18.338 6.049h1.225l2.658 1.705 2.796.303 1.97-1.138 3.127-1.14 1.678.456 3.57 1.822 2.355-.38 3.038-1.133 2.203-.689 2.81.69 2.279 1.512 3.646-.455 3.323-1.553z"/>
                        <path fill="#000" d="M38.284 39.42l3.067-1.433c-2.18-3.485-9.565-6.049-18.339-6.049-2.017 0-3.961.136-5.785.387 9.051 1.038 16.622 3.64 21.057 7.095z" opacity=".1"/>
                        <path fill="#1EB8E8" d="M45.57 38.361c-2.156-1.46-4.94-1.46-7.095 0-1.695 1.15-3.885 1.15-5.58 0-2.154-1.46-4.939-1.46-7.093 0-1.695 1.15-3.885 1.15-5.58 0-2.154-1.46-4.94-1.46-7.094 0-1.695 1.15-3.884 1.15-5.58 0-2.154-1.46-4.939-1.46-7.093 0-.309.21-.389.629-.18.937.21.308.629.388.937.18 1.695-1.15 3.885-1.15 5.58 0 2.154 1.46 4.939 1.46 7.093 0 1.695-1.15 3.885-1.15 5.58 0 2.155 1.46 4.94 1.46 7.094 0 1.695-1.15 3.885-1.15 5.58 0 1.077.73 2.312 1.095 3.546 1.095 1.235 0 2.47-.365 3.547-1.096 1.695-1.149 3.885-1.149 5.58 0 .308.21.728.13.937-.18.209-.307.128-.727-.18-.936z"/>
                        <g fill="#EF495B">
                            <path d="M9.601 11.77c-.994-1.367-2.449-2.522-4.24-3.236C3.57 7.82 1.718 7.658.056 7.967c0 0 8.066-11.389 19.341-6.896 0 0-5.913 1.582-9.797 10.705l.001-.007zM19.148 15.574c1.662-.309 3.512-.147 5.303.567 1.792.714 3.247 1.87 4.24 3.237 0 0 1.982-13.814-9.294-18.307 0 0 3.204 5.214-.253 14.508l.004-.005z" transform="translate(16.393 5.374)"/>
                        </g>
                        <ellipse cx="7.677" cy="7.764" fill="#FFCA28" rx="3.675" ry="3.674"/>
                        <g fill="#FF9800">
                            <path d="M7.677 2.794c-.373 0-.675-.302-.675-.675V.763c0-.373.302-.675.675-.675.372 0 .674.302.674.675v1.356c0 .373-.302.675-.674.675zM11.668 4.447c-.172 0-.345-.066-.477-.198-.263-.263-.263-.69 0-.954l.96-.959c.263-.263.69-.263.954 0 .263.264.263.69 0 .954l-.96.96c-.131.131-.304.197-.477.197zM14.679 8.438h-1.357c-.373 0-.675-.302-.675-.675 0-.372.302-.674.675-.674h1.357c.372 0 .674.302.674.674 0 .373-.302.675-.674.675zM12.628 13.388c-.173 0-.346-.066-.477-.198l-.96-.959c-.263-.263-.263-.69 0-.954.264-.263.69-.263.954 0l.96.96c.263.263.263.69 0 .953-.132.132-.305.198-.477.198zM7.677 15.438c-.373 0-.675-.302-.675-.674v-1.357c0-.372.302-.674.675-.674.372 0 .674.302.674.674v1.357c0 .373-.302.674-.674.674zM2.725 13.388c-.172 0-.345-.066-.477-.198-.263-.263-.263-.69 0-.953l.96-.96c.263-.263.69-.263.954 0 .263.264.263.69 0 .954l-.96.96c-.131.131-.304.197-.477.197zM2.031 8.438H.675C.302 8.438 0 8.136 0 7.763c0-.372.302-.674.675-.674H2.03c.373 0 .675.302.675.674 0 .373-.302.675-.675.675zM3.685 4.447c-.173 0-.345-.066-.477-.198l-.96-.959c-.263-.263-.263-.69 0-.954.264-.263.691-.263.954 0l.96.96c.263.263.263.69 0 .953-.132.132-.305.198-.477.198z"/>
                        </g>
                    </g>
                </g>
            </g>
            <g>
                <g transform="translate(0 17) translate(50 10) translate(35.975 122.986)">
                    <rect width="425.901" height="109.063" fill="#FFF" rx="10.148"/>
                    <rect width="424.633" height="107.795" x=".634" y=".634" stroke="#E6E6E6" stroke-width="1.268" rx="10.148"/>
                    <use fill="#000" filter="url(#prefix__h)" xlink:href="#prefix__i"/>
                    <use fill="#FFF" xlink:href="#prefix__i"/>
                    <use fill="#000" filter="url(#prefix__j)" xlink:href="#prefix__i"/>
                </g>
                <path fill="#3D91F3" d="M394.588 50.489l-7.274-7.476c-.777-.8-2.037-.8-2.814 0-.777.798-.777 2.093 0 2.892l5.866 6.03-5.866 6.03c-.777.798-.777 2.093 0 2.892.777.799 2.037.799 2.814 0l7.274-7.476c.777-.799.777-2.094 0-2.892z" transform="translate(0 17) translate(50 10) translate(35.975 122.986)"/>
                <text fill="#000" fill-opacity=".5" font-family="Nunito-Light, Nunito" font-size="15.221" font-weight="300" transform="translate(0 17) translate(50 10) translate(35.975 122.986)">
                    <tspan x="106.475" y="74.977">Created on</tspan>
                </text>
                <text fill="#000" fill-opacity=".5" font-family="Nunito-Light, Nunito" font-size="15.221" font-weight="300" transform="translate(0 17) translate(50 10) translate(35.975 122.986)">
                    <tspan x="189.578" y="74.977">Dec 02 at 12:00 PM</tspan>
                </text>
                <text fill="#111D31" font-family="Nunito-SemiBold, Nunito" font-size="17.758" font-weight="500" transform="translate(0 17) translate(50 10) translate(35.975 122.986)">
                    <tspan x="106.475" y="41.67">December Townhall</tspan>
                </text>
                <g transform="translate(0 17) translate(50 10) translate(35.975 122.986) translate(12.985 12.984)">
                    <mask id="prefix__m" fill="#fff">
                        <use xlink:href="#prefix__k"/>
                    </mask>
                    <use fill="url(#prefix__l)" xlink:href="#prefix__k"/>
                    <ellipse cx="50.641" cy="50.636" fill="#E6EDFA" mask="url(#prefix__m)" rx="27.268" ry="27.266"/>
                    <g fill-rule="nonzero" filter="url(#prefix__n)" transform="translate(16.88 16.879)">
                        <path fill="#FFF" d="M36.093 45.443L0 45.443 0 11.361 45.447 11.361 45.447 36.09z"/>
                        <path fill="#E4EAF5" d="M0 11.361L45.447 11.361 45.447 17.041 0 17.041z"/>
                        <path fill="#CAD5E6" d="M8.521 5.68h-2.84V1.42C5.68.636 6.317 0 7.1 0c.784 0 1.42.636 1.42 1.42v4.26zM39.766 5.68h-2.84V1.42c0-.784.635-1.42 1.42-1.42.784 0 1.42.636 1.42 1.42v4.26zM36.093 36.09L36.093 45.443 45.447 36.09z"/>
                        <path fill="#0AC1A7" d="M19.988 35.985L13.003 30.4c-.612-.49-.712-1.384-.221-1.997.49-.613 1.384-.712 1.997-.222l4.999 4L30.657 21.3c.554-.554 1.453-.554 2.008 0 .554.555.554 1.454 0 2.009L19.988 35.985z"/>
                        <path fill="#FF7761" d="M45.447 14.2H0V7.1c0-1.568 1.272-2.84 2.84-2.84h39.766c1.569 0 2.84 1.272 2.84 2.84v7.1z"/>
                    </g>
                </g>
            </g>
        </g>
    </g>
</svg>
