<svg xmlns="http://www.w3.org/2000/svg" width="71" height="60" viewBox="0 0 71 60">
    <g fill="#437FF5" fill-rule="nonzero">
        <path d="M24.545 27.273H15c-1.137 0-2.103-.398-2.898-1.193-.796-.796-1.194-1.761-1.194-2.898v-1.363c0-3.012 1.066-5.583 3.197-7.714 2.13-2.13 4.702-3.195 7.713-3.195h2.727c.739 0 1.378-.27 1.918-.81s.81-1.179.81-1.917V2.728c0-.739-.27-1.379-.81-1.918-.54-.54-1.179-.81-1.918-.81h-2.727c-2.955 0-5.774.576-8.459 1.726-2.684 1.15-5.006 2.706-6.967 4.667-1.96 1.96-3.515 4.282-4.666 6.967A21.251 21.251 0 0 0 0 21.819v29.999c0 2.274.795 4.205 2.386 5.796C3.977 59.204 5.909 60 8.182 60h16.364c2.273 0 4.204-.795 5.796-2.386 1.59-1.591 2.386-3.522 2.386-5.796V35.455c0-2.273-.796-4.204-2.387-5.796-1.59-1.59-3.523-2.386-5.796-2.386zM68.524 29.659c-1.59-1.59-3.522-2.386-5.795-2.386h-9.545c-1.136 0-2.103-.398-2.898-1.193-.795-.796-1.193-1.761-1.193-2.898v-1.363c0-3.012 1.066-5.583 3.196-7.714 2.13-2.13 4.7-3.195 7.714-3.195h2.726c.739 0 1.378-.27 1.918-.81s.81-1.179.81-1.917V2.728c0-.739-.27-1.379-.81-1.918-.54-.54-1.179-.81-1.918-.81h-2.726c-2.957 0-5.775.576-8.461 1.726-2.684 1.15-5.006 2.706-6.966 4.667-1.96 1.96-3.516 4.282-4.667 6.967a21.257 21.257 0 0 0-1.726 8.459v29.999c0 2.274.796 4.205 2.386 5.796C42.16 59.204 44.092 60 46.365 60h16.363c2.273 0 4.205-.795 5.795-2.386 1.592-1.591 2.386-3.522 2.386-5.796V35.455c0-2.274-.794-4.204-2.385-5.796z"/>
    </g>
</svg>
