<svg xmlns="http://www.w3.org/2000/svg" width="100" height="85" viewBox="0 0 100 85">
    <g fill="#000" fill-rule="nonzero" opacity=".2">
        <path d="M34.57 38.413H21.127c-1.6 0-2.96-.56-4.081-1.68-1.12-1.121-1.68-2.482-1.68-4.083v-1.92c0-4.241 1.5-7.862 4.501-10.863 3.001-3 6.623-4.501 10.864-4.501h3.84c1.041 0 1.941-.38 2.702-1.14.76-.76 1.14-1.66 1.14-2.701V3.842c0-1.04-.38-1.941-1.14-2.702C36.512.38 35.612 0 34.57 0H30.73c-4.162 0-8.132.811-11.914 2.43-3.781 1.622-7.052 3.813-9.813 6.574-2.761 2.76-4.951 6.03-6.572 9.812C.811 22.597 0 26.57 0 30.73v42.253c0 3.203 1.12 5.922 3.36 8.164 2.242 2.24 4.963 3.36 8.164 3.36h23.048c3.201 0 5.922-1.12 8.163-3.36 2.24-2.242 3.36-4.961 3.36-8.164V49.937c0-3.202-1.12-5.922-3.362-8.164-2.24-2.24-4.961-3.36-8.162-3.36zM96.513 41.773c-2.24-2.24-4.96-3.36-8.162-3.36H74.906c-1.6 0-2.961-.56-4.08-1.68-1.12-1.121-1.68-2.482-1.68-4.083v-1.92c0-4.241 1.5-7.862 4.5-10.863 3-3 6.621-4.501 10.865-4.501h3.84c1.04 0 1.94-.38 2.7-1.14.76-.76 1.142-1.66 1.142-2.701V3.842c0-1.04-.381-1.941-1.141-2.702C90.292.38 89.392 0 88.35 0h-3.84c-4.164 0-8.134.811-11.917 2.43-3.78 1.622-7.05 3.813-9.811 6.574-2.761 2.76-4.953 6.03-6.573 9.812A29.94 29.94 0 0 0 53.78 30.73v42.253c0 3.203 1.12 5.922 3.36 8.164 2.241 2.24 4.962 3.36 8.163 3.36H88.35c3.202 0 5.923-1.12 8.163-3.36 2.242-2.242 3.36-4.961 3.36-8.164V49.937c0-3.203-1.118-5.922-3.359-8.164z"/>
    </g>
</svg>
