<svg xmlns="http://www.w3.org/2000/svg" width="80" height="80" viewBox="0 0 80 80">
    <path fill="#FFF" fill-rule="nonzero" d="M40 76c6.467 0 12.503-1.653 18.108-4.958 5.46-3.162 9.772-7.473 12.934-12.934C74.347 52.503 76 46.468 76 40c0-6.467-1.653-12.503-4.958-18.108-3.162-5.46-7.473-9.772-12.934-12.934C52.503 5.653 46.468 4 40 4c-6.467 0-12.503 1.653-18.108 4.958-5.46 3.162-9.772 7.473-12.934 12.934C5.653 27.497 4 33.532 4 40c0 6.467 1.653 12.503 4.958 18.108 3.162 5.46 7.473 9.772 12.934 12.934C27.497 74.347 33.532 76 40 76zm0-76c7.308 0 14.07 1.827 20.288 5.48 6.026 3.462 10.77 8.206 14.231 14.232C78.173 25.93 80 32.692 80 40s-1.827 14.07-5.48 20.288c-3.462 6.026-8.206 10.77-14.232 14.231C54.07 78.173 47.308 80 40 80s-14.07-1.827-20.288-5.48c-6.026-3.526-10.77-8.302-14.231-14.328C1.827 53.974 0 47.244 0 40s1.827-13.974 5.48-20.192C9.007 13.782 13.783 9.006 19.809 5.48 26.026 1.827 32.756 0 40 0zm-8.077 57.98V21.924L55.962 40 31.923 57.98z"/>
</svg>
