<svg xmlns="http://www.w3.org/2000/svg" width="130" height="70" viewBox="0 0 130 70">
    <path fill="#437FF5" fill-rule="evenodd" d="M-55 60a5 5 0 1 1 0 10 5 5 0 0 1 0-10zm30 0a5 5 0 1 1 0 10 5 5 0 0 1 0-10zm30 0a5 5 0 1 1 0 10 5 5 0 0 1 0-10zm30 0a5 5 0 1 1 0 10 5 5 0 0 1 0-10zm30 0a5 5 0 1 1 0 10 5 5 0 0 1 0-10zm30 0a5 5 0 1 1 0 10 5 5 0 0 1 0-10zm30 0a5 5 0 1 1 0 10 5 5 0 0 1 0-10zM-55 30a5 5 0 1 1 0 10 5 5 0 0 1 0-10zm30 0a5 5 0 1 1 0 10 5 5 0 0 1 0-10zm30 0a5 5 0 1 1 0 10 5 5 0 0 1 0-10zm30 0a5 5 0 1 1 0 10 5 5 0 0 1 0-10zm30 0a5 5 0 1 1 0 10 5 5 0 0 1 0-10zm30 0a5 5 0 1 1 0 10 5 5 0 0 1 0-10zm30 0a5 5 0 1 1 0 10 5 5 0 0 1 0-10zM-55 0a5 5 0 1 1 0 10 5 5 0 0 1 0-10zm30 0a5 5 0 1 1 0 10 5 5 0 0 1 0-10zM5 0a5 5 0 1 1 0 10A5 5 0 0 1 5 0zm30 0a5 5 0 1 1 0 10 5 5 0 0 1 0-10zm30 0a5 5 0 1 1 0 10 5 5 0 0 1 0-10zm30 0a5 5 0 1 1 0 10 5 5 0 0 1 0-10zm30 0a5 5 0 1 1 0 10 5 5 0 0 1 0-10zm0-30a5 5 0 1 1 0 10 5 5 0 0 1 0-10zm-90 0a5 5 0 1 1 0 10 5 5 0 0 1 0-10zm-90 0a5 5 0 1 1 0 10 5 5 0 0 1 0-10zm30 0a5 5 0 1 1 0 10 5 5 0 0 1 0-10zm90 0a5 5 0 1 1 0 10 5 5 0 0 1 0-10zM5-30a5 5 0 1 1 0 10 5 5 0 0 1 0-10zm90 0a5 5 0 1 1 0 10 5 5 0 0 1 0-10zm30-30a5 5 0 1 1 0 10 5 5 0 0 1 0-10zm-180 0a5 5 0 1 1 0 10 5 5 0 0 1 0-10zm60 0a5 5 0 1 1 0 10 5 5 0 0 1 0-10zm60 0a5 5 0 1 1 0 10 5 5 0 0 1 0-10zm-90 0a5 5 0 1 1 0 10 5 5 0 0 1 0-10zm120 0a5 5 0 1 1 0 10 5 5 0 0 1 0-10zm-60 0a5 5 0 1 1 0 10 5 5 0 0 1 0-10zm-90-30a5 5 0 1 1 0 10 5 5 0 0 1 0-10zm30 0a5 5 0 1 1 0 10 5 5 0 0 1 0-10zm30 0a5 5 0 1 1 0 10 5 5 0 0 1 0-10zm30 0a5 5 0 1 1 0 10 5 5 0 0 1 0-10zm30 0a5 5 0 1 1 0 10 5 5 0 0 1 0-10zm30 0a5 5 0 1 1 0 10 5 5 0 0 1 0-10zm30 0a5 5 0 1 1 0 10 5 5 0 0 1 0-10zm-180-30a5 5 0 1 1 0 10 5 5 0 0 1 0-10zm30 0a5 5 0 1 1 0 10 5 5 0 0 1 0-10zm30 0a5 5 0 1 1 0 10 5 5 0 0 1 0-10zm30 0a5 5 0 1 1 0 10 5 5 0 0 1 0-10zm30 0a5 5 0 1 1 0 10 5 5 0 0 1 0-10zm30 0a5 5 0 1 1 0 10 5 5 0 0 1 0-10zm30 0a5 5 0 1 1 0 10 5 5 0 0 1 0-10z" opacity=".2"/>
</svg>
