<?xml version="1.0" encoding="UTF-8"?>
<svg width="80px" height="80px" viewBox="0 0 80 80" version="1.1" xmlns="http://www.w3.org/2000/svg" xmlns:xlink="http://www.w3.org/1999/xlink">
    <title>5806C9C3-E966-4DDC-81EA-96A798D11931</title>
    <g id="co-worker" stroke="none" stroke-width="1" fill="none" fill-rule="evenodd">
        <g id="cw-4.2.3" transform="translate(-605.000000, -140.000000)" fill-rule="nonzero">
            <g id="modal-/-successful" transform="translate(375.000000, 90.000000)">
                <g id="icon-/-multicolor-/-warning" transform="translate(230.000000, 50.000000)">
                    <g id="Group-4" transform="translate(0.000000, 3.333333)">
                        <g id="Group-3">
                            <path d="M39.9983762,0 C43.7792284,0 47.5593291,1.88825783 49.774518,5.66015719 L78.3478251,54.3074646 C82.923064,62.0974658 77.4563008,72 68.5735622,72 L11.426948,72 C2.54965811,72 -2.92518421,62.1020821 1.6523093,54.3074646 L30.2259922,5.66015719 C32.4432479,1.8851803 36.2210939,0 39.9983762,0" id="Path" fill="#FE8205"></path>
                            <path d="M46.2012533,54.3074174 L74.2105107,5.65998003 C75.4205451,3.55821285 77.1055687,2.04406339 79,1.11330001 C77.491601,0.372382362 75.850227,-1.48029737e-13 74.2081164,-1.48029737e-13 C70.505448,-1.48029737e-13 66.8022271,1.88518541 64.6287695,5.66017238 L36.6196962,54.3074174 C32.1326235,62.1020557 37.4991353,72 46.2012533,72 L55.7828103,72 C47.0806923,72 41.7141805,62.1020557 46.2012533,54.3074174 Z" id="Path" fill="#EA624B" opacity="0.504929315" transform="translate(57.000000, 36.000000) scale(-1, 1) translate(-57.000000, -36.000000) "></path>
                        </g>
                        <g id="Group-2" transform="translate(41.000000, 37.333333) scale(-1, 1) translate(-41.000000, -37.333333) translate(36.000000, 23.333333)">
                            <path d="M5.79989057,0 C2.28541419,0 1.63609215,4.28857754 1.83120639,8.70636362 L2.36754368,24.3405966 C3.12818672,29.2256276 8.47356069,29.2139712 9.23238871,24.3405966 L9.768726,8.70636362 C9.96399149,3.94026768 9.31557695,0 5.79989057,0 L5.79989057,0 Z" id="Path" fill="#FFFFFF"></path>
                            <path d="M6.18561545,24.3427351 L5.48323471,8.70712853 C5.2885251,5.33990323 5.73835777,2.04993325 8,0.674156362 C7.28117887,0.240854808 6.37438275,0 5.23801548,0 C0.635500264,0 -0.21464586,4.28895432 0.040873362,8.70693095 L0.743254106,24.3425375 C1.4812887,27.9618799 5.51294624,28.8905243 7.95800769,27.1484269 C7.10449426,26.5396708 6.44331352,25.6064819 6.18561545,24.3427351 L6.18561545,24.3427351 Z" id="Path" fill="#E6EDF3"></path>
                        </g>
                        <g id="Group" transform="translate(41.000000, 59.333333) scale(-1, 1) translate(-41.000000, -59.333333) translate(37.000000, 55.333333)">
                            <circle id="Oval" fill="#FFFFFF" cx="4" cy="4" r="4"></circle>
                            <path d="M4.20079503,4 C4.20079503,2.58448992 4.91830598,1.3416451 6,0.630596722 C5.39363979,0.231945425 4.67322393,0 3.89960249,0 C1.7458465,0 0,1.79079432 0,4 C0,6.20920568 1.7458465,8 3.89960249,8 C4.67322393,8 5.39363979,7.76789775 6,7.36940328 C4.91830598,6.6583549 4.20079503,5.41551008 4.20079503,4 L4.20079503,4 Z" id="Path" fill="#E6EDF3"></path>
                        </g>
                    </g>
                </g>
            </g>
        </g>
    </g>
</svg>