<svg xmlns="http://www.w3.org/2000/svg" width="80" height="80" viewBox="0 0 80 80">
    <g fill="none">
        <path fill="#1DD1A1" d="M80 40c0 22.092-17.908 40-40 40C17.91 80 0 62.092 0 40S17.91 0 40 0c22.092 0 40 17.908 40 40z"/>
        <path fill="#15BA8B" d="M48 .8C45.78.44 43.497 0 41.169 0 18.433 0 0 17.908 0 40s18.433 40 41.169 40c2.328 0 4.61-.44 6.831-.8C28.515 76.037 13.664 59.83 13.664 40 13.664 20.17 28.515 3.964 48 .8z"/>
        <path fill="#FFF" d="M54.379 28.964L35.289 48.05l-9.668-9.667c-1.286-1.285-3.37-1.285-4.657 0-1.285 1.285-1.285 3.37 0 4.655L32.96 55.035c.643.642 1.487.965 2.33.965.842 0 1.684-.323 2.328-.965l21.418-21.416c1.285-1.285 1.285-3.37 0-4.655-1.287-1.285-3.37-1.285-4.657 0z"/>
    </g>
</svg>
