<svg xmlns="http://www.w3.org/2000/svg" xmlns:xlink="http://www.w3.org/1999/xlink" width="24" height="24" viewBox="0 0 28 28">
    <g transform="translate(2 4)">
        <path id="a" d="M5.567 6.93c.357 0 .66.126.91.377.25.252.375.557.375.916v2.584c0 .36-.125.664-.375.915-.25.252-.553.377-.91.377H1.285c-.357 0-.66-.125-.91-.377A1.25 1.25 0 0 1 0 10.807V8.223c0-.36.125-.664.375-.916.25-.25.553-.377.91-.377h4.282zm0-6.892c.357 0 .66.126.91.377.25.252.375.557.375.916v2.584c0 .36-.125.664-.375.916-.25.25-.553.376-.91.376H1.285c-.357 0-.66-.125-.91-.376A1.25 1.25 0 0 1 0 3.915V1.331C0 .97.125.667.375.415c.25-.251.553-.377.91-.377h4.282zm0 13.784c.357 0 .66.126.91.377s.375.557.375.915V17.7c0 .36-.125.664-.375.915-.25.252-.553.377-.91.377H1.285c-.357 0-.66-.125-.91-.377A1.25 1.25 0 0 1 0 17.7v-2.585c0-.358.125-.664.375-.915s.553-.377.91-.377h4.282zm17.13-6.892c.358 0 .66.126.91.377.25.252.375.557.375.916v2.584c0 .36-.124.664-.374.915-.25.252-.553.377-.91.377H9.85c-.357 0-.66-.125-.91-.377a1.249 1.249 0 0 1-.375-.915V8.223c0-.36.125-.664.375-.916.25-.25.553-.377.91-.377h12.848zm0 6.892c.358 0 .66.126.91.377s.375.556.375.915V17.7c0 .359-.124.664-.374.915s-.553.377-.91.377H9.85c-.357 0-.66-.125-.91-.377a1.25 1.25 0 0 1-.375-.915v-2.585c0-.359.125-.664.375-.915s.553-.377.91-.377h12.848zm.91-13.407c.25.252.375.557.375.916v2.584c0 .36-.124.664-.374.916-.25.25-.553.377-.91.377H9.85c-.357 0-.66-.126-.91-.377a1.25 1.25 0 0 1-.375-.916V1.331c0-.36.125-.664.375-.916.25-.25.553-.376.91-.376h12.848c.357 0 .66.125.91.376z"/>
    </g>
</svg>
