<svg xmlns="http://www.w3.org/2000/svg" xmlns:xlink="http://www.w3.org/1999/xlink" width="24" height="24" viewBox="0 0 24 24">
    <g transform="translate(0)">
        <path id="a" d="M23.758 6.194c.202.254.277.583.227.862l-1.995 8.29c-.126.457-.53.786-1.01.786H10.377c-.48 0-.884-.33-1.01-.786l-2.07-8.239c-.026 0-.026-.025-.026-.05l-.48-1.978h-2.07c-.58 0-1.035-.456-1.035-1.04C3.686 3.456 4.141 3 4.721 3h2.853c.48 0 .884.33 1.01.786l.505 2.003h13.86c.304 0 .607.152.809.405zM11.79 21a1.847 1.847 0 0 1-1.843-1.85c0-1.023.826-1.851 1.843-1.851 1.018 0 1.843.828 1.843 1.85 0 1.022-.825 1.851-1.843 1.851zm7.221 0a1.847 1.847 0 0 1-1.843-1.85c0-1.023.825-1.851 1.843-1.851s1.843.828 1.843 1.85c0 1.022-.825 1.851-1.843 1.851zM4.645 8.806H.985a.988.988 0 0 1 0-1.978h3.66a.988.988 0 0 1 0 1.978zm.859 3.32H1.818a.988.988 0 0 1 0-1.977h3.686a.988.988 0 0 1 0 1.978zm.884 1.37a.988.988 0 0 1 0 1.977H2.727a.972.972 0 0 1-.985-.988c0-.558.455-.99.985-.99h3.66z"/>
    </g>
</svg>
