<svg xmlns="http://www.w3.org/2000/svg" xmlns:xlink="http://www.w3.org/1999/xlink" width="24" height="24" viewBox="0 0 28 28">
       <g transform="translate(2 2)">
               <path id="a" d="M4.793 6.567c-.882 0-1.635-.321-2.26-.962-.623-.641-.935-1.415-.935-2.322 0-.906.312-1.68.936-2.321C3.158.321 3.91 0 4.793 0c.882 0 1.635.32 2.259.962.624.641.936 1.415.936 2.321 0 .907-.312 1.68-.936 2.322-.624.641-1.377.962-2.26.962zm3.8 5.124c-.936-.962-1.404-2.123-1.404-3.483 0-1.36.468-2.52 1.404-3.482.936-.962 2.066-1.443 3.389-1.443s2.452.481 3.388 1.443c.936.962 1.405 2.123 1.405 3.482 0 1.36-.469 2.52-1.405 3.483-.936.961-2.065 1.442-3.388 1.442s-2.453-.48-3.389-1.442zm10.578-5.124c-.882 0-1.635-.321-2.259-.962-.624-.641-.936-1.415-.936-2.322 0-.906.312-1.68.936-2.321C17.536.321 18.289 0 19.172 0c.881 0 1.634.32 2.258.962.624.641.936 1.415.936 2.321 0 .907-.312 1.68-.936 2.322-.624.641-1.377.962-2.259.962zm3.245 0c1.032 0 1.548 1.509 1.548 4.527 0 .667-.233 1.174-.7 1.52-.465.346-1.04.52-1.722.52H19.87c-.857-1.052-1.96-1.6-3.308-1.642a5.753 5.753 0 0 0 1.012-3.283c0-.248-.021-.53-.063-.847a4.89 4.89 0 0 0 1.66.295c.491 0 .986-.092 1.485-.276.5-.183.905-.365 1.217-.545.312-.18.493-.27.543-.27zm-1.865 10.37c.087.5.145.965.174 1.397.03.432.044.875.044 1.328 0 1.026-.304 1.836-.911 2.43-.608.594-1.415.891-2.422.891H6.528c-1.007 0-1.814-.297-2.422-.891-.607-.594-.91-1.404-.91-2.43 0-.453.014-.896.043-1.328.029-.432.087-.898.175-1.398.087-.5.197-.964.33-1.391a6.69 6.69 0 0 1 .537-1.25 4.5 4.5 0 0 1 .774-1.04 3.246 3.246 0 0 1 1.067-.686 3.66 3.66 0 0 1 1.392-.256c.083 0 .262.092.536.275.275.184.579.39.912.616.332.226.777.432 1.335.615a5.35 5.35 0 0 0 1.685.276c.566 0 1.127-.092 1.685-.276.558-.183 1.003-.389 1.336-.615.333-.226.636-.432.91-.616.275-.183.454-.275.537-.275.508 0 .972.085 1.392.256.42.171.776.4 1.067.686.291.287.55.633.774 1.04.225.405.404.822.537 1.25.133.427.243.89.33 1.391zM7.4 11.491c-1.348.043-2.45.59-3.307 1.641H2.42c-.682 0-1.256-.173-1.722-.519-.466-.346-.699-.853-.699-1.52 0-3.018.516-4.527 1.548-4.527.05 0 .23.09.543.27.312.179.717.36 1.217.544.499.184.994.276 1.485.276.557 0 1.11-.098 1.66-.295a6.579 6.579 0 0 0-.063.846c0 1.189.337 2.283 1.011 3.284z"/>
       </g>
</svg>
