<svg xmlns="http://www.w3.org/2000/svg" xmlns:xlink="http://www.w3.org/1999/xlink" width="24" height="24" viewBox="0 0 28 28">
    <g transform="translate(2 2)">
        <path id="a" d="M21.2 1.462C20.933.602 20.133.028 19.333.028H4.667c-.934 0-1.6.574-1.867 1.434L0 10.066v11.472c0 .86.533 1.434 1.333 1.434h1.334c.8 0 1.333-.574 1.333-1.434v-1.434h16v1.434c0 .86.533 1.434 1.333 1.434h1.334c.8 0 1.333-.574 1.333-1.434V10.066l-2.8-8.604zM4.667 15.802c-1.067 0-2-1.004-2-2.151 0-1.147.933-2.151 2-2.151 1.066 0 2 1.004 2 2.151 0 1.147-.934 2.151-2 2.151zm14.666 0c-1.066 0-2-1.004-2-2.151 0-1.147.934-2.151 2-2.151 1.067 0 2 1.004 2 2.151 0 1.147-.933 2.151-2 2.151zM2.667 8.632l2-6.453h14.666l2 6.453H2.667z"/>
    </g>
</svg>
