<svg xmlns="http://www.w3.org/2000/svg" xmlns:xlink="http://www.w3.org/1999/xlink" width="24" height="24" viewBox="0 0 28 28">
    <g transform="translate(2 4)">
        <path id="a" d="M23.033 7.415c-.634-1.49-1.486-2.773-2.556-3.85-1.071-1.077-2.347-1.934-3.828-2.57A11.665 11.665 0 0 0 11.99.037c-1.624 0-3.176.32-4.657.956-1.481.637-2.757 1.494-3.828 2.571-1.07 1.077-1.922 2.36-2.556 3.85A11.85 11.85 0 0 0 0 12.099c0 2.351.629 4.519 1.887 6.502.17.26.41.39.723.39h18.763c.312 0 .553-.13.722-.39a11.944 11.944 0 0 0 1.887-6.502c0-1.633-.316-3.194-.95-4.684zM10.78 2.266a1.646 1.646 0 0 1 1.211-.505c.473 0 .877.169 1.211.505.335.337.502.743.502 1.218 0 .476-.167.882-.502 1.219a1.646 1.646 0 0 1-1.21.504c-.474 0-.877-.168-1.212-.504a1.665 1.665 0 0 1-.502-1.219c0-.475.167-.881.502-1.218zM4.637 13.317a1.647 1.647 0 0 1-1.211.506c-.473 0-.876-.17-1.211-.506a1.664 1.664 0 0 1-.502-1.218c0-.475.167-.881.502-1.218a1.646 1.646 0 0 1 1.211-.505c.473 0 .877.169 1.211.505.335.337.502.743.502 1.218 0 .476-.167.882-.502 1.218zm2.57-6.03a1.646 1.646 0 0 1-1.211.505c-.473 0-.877-.169-1.212-.505a1.665 1.665 0 0 1-.502-1.218c0-.476.168-.882.502-1.218a1.646 1.646 0 0 1 1.212-.505c.473 0 .876.168 1.21.505.335.336.503.742.503 1.218 0 .475-.168.881-.502 1.218zm7.581.115l-1.352 5.141c.447.305.768.714.964 1.225.196.512.223 1.037.08 1.575a2.47 2.47 0 0 1-1.19 1.575 2.49 2.49 0 0 1-1.955.27 2.46 2.46 0 0 1-1.565-1.199 2.53 2.53 0 0 1-.268-1.965c.143-.538.424-.98.843-1.326.42-.345.897-.54 1.432-.585l1.352-5.142a.85.85 0 0 1 .401-.532c.205-.121.42-.15.643-.087a.848.848 0 0 1 .515.397c.12.202.154.42.1.653zm1.988-.115a1.664 1.664 0 0 1-.502-1.218c0-.476.167-.882.502-1.218a1.646 1.646 0 0 1 1.21-.505c.474 0 .877.168 1.212.505.335.336.502.742.502 1.218 0 .475-.167.882-.502 1.218a1.646 1.646 0 0 1-1.211.505c-.473 0-.877-.168-1.211-.505zm4.992 6.03a1.646 1.646 0 0 1-1.212.506c-.473 0-.876-.17-1.21-.506a1.664 1.664 0 0 1-.503-1.218c0-.475.168-.881.502-1.218a1.645 1.645 0 0 1 1.211-.505c.473 0 .877.169 1.212.505.334.337.501.743.501 1.218 0 .476-.167.882-.501 1.218z"/>
    </g>
</svg>
