<svg xmlns="http://www.w3.org/2000/svg" xmlns:xlink="http://www.w3.org/1999/xlink" width="24" height="24" viewBox="0 0 28 28">
    <g transform=" translate(2 2)">
        <path id="a" d="M16.5 14.447a.545.545 0 0 1 0-.77l5.898-5.902a.544.544 0 0 1 .77 0l.32.319c.308.308.478.718.478 1.156 0 .437-.17.848-.48 1.157l-4.356 4.36a1.62 1.62 0 0 1-1.156.478 1.62 1.62 0 0 1-1.155-.48l-.319-.318zM9.513 7.455l-.32-.32a1.622 1.622 0 0 1-.478-1.155c0-.438.17-.849.48-1.157L13.55.463c.615-.617 1.695-.618 2.311 0l.319.32a.545.545 0 0 1 0 .77l-5.898 5.902a.543.543 0 0 1-.77 0zm5.447 5.45l-.77-.77c-3.478 4.013-8.594 9.314-10.47 11.192a2.163 2.163 0 0 1-1.541.639 2.182 2.182 0 0 1-1.54-3.722c1.558-1.56 6.98-6.807 11.197-10.464l-.783-.784a.545.545 0 0 1 0-.77l5.898-5.902a.544.544 0 0 1 .77 0l3.907 3.909a.545.545 0 0 1 0 .77l-5.898 5.902a.543.543 0 0 1-.77 0zm5.738 5.614a3.258 3.258 0 0 1 3.268 3.252 2.18 2.18 0 0 1-2.179 2.18h-9.804a2.18 2.18 0 0 1-2.179-2.18 3.258 3.258 0 0 1 3.268-3.252h7.626z"/>
    </g>
</svg>
