<svg xmlns="http://www.w3.org/2000/svg" xmlns:xlink="http://www.w3.org/1999/xlink" width="24" height="24" viewBox="0 0 28 28">
    <g transform="translate(3 3)">
        <path id="a" d="M19.195 15.383l-.195-.19a.345.345 0 0 0-.416-.05l-1.035.606a4.435 4.435 0 0 0-.727-.298l-.328-1.304a.339.339 0 0 0-.33-.252h-1.36a.339.339 0 0 0-.33.252s-.227.91-.328 1.304c-.267.083-.526.19-.772.322l-1.073-.63a.347.347 0 0 0-.416.05l-.962.941a.328.328 0 0 0-.051.407l.663 1.085a4.241 4.241 0 0 0-.268.642l-1.332.322a.334.334 0 0 0-.258.323v1.332c0 .153.107.286.258.323l1.333.32c.064.2.144.396.238.586H3.67c-1.108 0-1.997-.324-2.667-.972C.334 19.855 0 18.972 0 17.853c0-.494.016-.976.048-1.447.032-.47.096-.979.193-1.524.096-.545.217-1.051.364-1.517.146-.466.343-.92.59-1.363.248-.442.532-.82.853-1.132.321-.313.713-.562 1.176-.748.462-.187.973-.28 1.532-.28.092 0 .289.1.591.3.303.201.637.425 1.004.672.366.246.857.47 1.47.67.615.201 1.233.301 1.856.301s1.242-.1 1.856-.3c.615-.2 1.104-.425 1.471-.671.367-.247.701-.471 1.004-.671.302-.2.499-.3.59-.3.56 0 1.07.092 1.533.279.463.186.855.435 1.176.748.32.312.605.69.852 1.132.247.443.444.897.591 1.363.147.466.268.972.365 1.517.03.17.057.338.08.501zM5.945 9.164C4.915 8.116 4.4 6.851 4.4 5.37c0-1.483.515-2.748 1.546-3.796C6.976.524 8.22 0 9.677 0c1.458 0 2.701.524 3.732 1.573 1.031 1.048 1.547 2.314 1.547 3.796 0 1.481-.516 2.747-1.547 3.795-1.03 1.049-2.274 1.573-3.732 1.573-1.457 0-2.7-.524-3.732-1.573zM19.8 18.81a.26.26 0 0 1 .201.25v1.037a.26.26 0 0 1-.2.251l-1.037.25a3.28 3.28 0 0 1-.232.544l.476.776a.255.255 0 0 1-.04.316l-.748.733a.269.269 0 0 1-.324.039l-.784-.46a3.4 3.4 0 0 1-.587.244l-.254 1.014a.264.264 0 0 1-.257.196h-1.058a.263.263 0 0 1-.257-.196l-.254-1.014a3.45 3.45 0 0 1-.575-.237l-.772.453a.27.27 0 0 1-.323-.039l-.748-.733a.255.255 0 0 1-.04-.316l.462-.754a3.303 3.303 0 0 1-.243-.566l-1.037-.25a.26.26 0 0 1-.2-.251v-1.036a.26.26 0 0 1 .2-.251l1.036-.25c.056-.172.126-.339.209-.5l-.516-.844a.255.255 0 0 1 .04-.316l.748-.733a.27.27 0 0 1 .323-.039l.835.49c.191-.102.392-.185.6-.25.079-.306.255-1.014.255-1.014a.263.263 0 0 1 .257-.196h1.058c.122 0 .227.08.257.196l.255 1.014c.195.06.384.139.565.232l.805-.472a.268.268 0 0 1 .324.04l.748.732a.255.255 0 0 1 .04.316l-.483.787c.097.179.177.365.24.557l1.035.25zm-4.315 2.582c1.021 0 1.852-.813 1.852-1.813s-.83-1.813-1.852-1.813c-1.021 0-1.852.813-1.852 1.813s.83 1.813 1.852 1.813z"/>
    </g>
</svg>
