<svg xmlns="http://www.w3.org/2000/svg" xmlns:xlink="http://www.w3.org/1999/xlink" width="24" height="24" viewBox="0 0 28 28" >
        <g transform="translate(5 2)">
            <path id="a" d="M12 7.5h6v15a1.5 1.5 0 0 1-1.5 1.5h-15C.673 24 0 23.328 0 22.5v-21C0 .673.673 0 1.5 0h9v6c0 .827.674 1.5 1.5 1.5zM14.25 21a.75.75 0 0 0 0-1.5H3.75a.75.75 0 0 0 0 1.5h10.5zm0-3a.75.75 0 0 0 0-1.5H3.75a.75.75 0 0 0 0 1.5h10.5zm0-3a.75.75 0 0 0 0-1.5h-3a.75.75 0 0 0 0 1.5h3zm0-3a.75.75 0 0 0 0-1.5h-3a.75.75 0 0 0 0 1.5h3zM7.864 7.81c0 1.187-.624 2.002-1.723 2.002-.532 0-1.006-.186-1.006-.803V7.285h.613V6.063h-.613v-.501c0-1.397-.625-2.19-2.047-2.19-.15 0-.37.012-.532.024v1.409h.347c.486 0 .659.175.659.803v.455H2.556v1.222h1.006V9.01c0 1.502 1.11 2.2 2.58 2.2 2.208 0 3.226-1.572 3.226-3.411 0-1.398-.902-2.05-1.943-2.05-.416 0-.925.187-1.18.42l.66 1.245c.092-.116.277-.186.427-.186.301 0 .532.198.532.582zM12 0l6 6h-6V0z"/>
        </g>
</svg>
