<svg xmlns="http://www.w3.org/2000/svg" width="100" height="100" viewBox="0 0 100 100">
    <g fill="none">
        <path fill="#F0F3FA" d="M56.799 0H3.442C1.542 0 0 1.54 0 3.441v92.92c0 1.9 1.541 3.442 3.442 3.442h65.405c1.9 0 3.442-1.541 3.442-3.442V15.487L56.8 0z" transform="translate(14)"/>
        <path fill="#D7DEED" d="M72.168 15.54H58.625c-1.068 0-1.934-.87-1.934-1.943V0l15.477 15.54z" transform="translate(14)"/>
        <g>
            <path fill="#D7DEED" d="M15.478 17.266H1.72c-.95 0-1.72-.773-1.72-1.727V1.727C0 .773.77 0 1.72 0h13.758c.95 0 1.72.773 1.72 1.727v13.812c0 .954-.77 1.727-1.72 1.727z" transform="translate(14) translate(9.639 19.23)"/>
            <path fill="#AFB9D2" d="M49.558 3.496H23.954c-.957 0-1.733-.777-1.733-1.737 0-.959.776-1.736 1.733-1.736h25.604c.956 0 1.732.777 1.732 1.736 0 .96-.776 1.737-1.732 1.737z" transform="translate(14) translate(9.639 19.23)"/>
            <path fill="#D7DEED" d="M43.83 10.437H23.963c-.961 0-1.741-.803-1.741-1.795 0-.99.78-1.795 1.741-1.795H43.83c.962 0 1.741.804 1.741 1.795 0 .992-.78 1.795-1.74 1.795z" transform="translate(14) translate(9.639 19.23)"/>
        </g>
        <g>
            <path fill="#D7DEED" d="M15.478 17.266H1.72c-.95 0-1.72-.773-1.72-1.727V1.727C0 .773.77 0 1.72 0h13.758c.95 0 1.72.773 1.72 1.727v13.812c0 .954-.77 1.727-1.72 1.727z" transform="translate(14) translate(9.639 46.154)"/>
            <path fill="#AFB9D2" d="M49.558 3.496H23.954c-.957 0-1.733-.777-1.733-1.737 0-.959.776-1.736 1.733-1.736h25.604c.956 0 1.732.777 1.732 1.736 0 .96-.776 1.737-1.732 1.737z" transform="translate(14) translate(9.639 46.154)"/>
            <path fill="#D7DEED" d="M43.83 10.437H23.963c-.961 0-1.741-.803-1.741-1.795 0-.99.78-1.795 1.741-1.795H43.83c.962 0 1.741.804 1.741 1.795 0 .992-.78 1.795-1.74 1.795z" transform="translate(14) translate(9.639 46.154)"/>
        </g>
        <g>
            <path fill="#D7DEED" d="M15.478 17.266H1.72c-.95 0-1.72-.773-1.72-1.727V1.727C0 .773.77 0 1.72 0h13.758c.95 0 1.72.773 1.72 1.727v13.812c0 .954-.77 1.727-1.72 1.727z" transform="translate(14) translate(9.639 73.077)"/>
            <path fill="#AFB9D2" d="M49.558 3.496H23.954c-.957 0-1.733-.777-1.733-1.737 0-.959.776-1.736 1.733-1.736h25.604c.956 0 1.732.777 1.732 1.736 0 .96-.776 1.737-1.732 1.737z" transform="translate(14) translate(9.639 73.077)"/>
            <path fill="#D7DEED" d="M43.83 10.437H23.963c-.961 0-1.741-.803-1.741-1.795 0-.99.78-1.795 1.741-1.795H43.83c.962 0 1.741.804 1.741 1.795 0 .992-.78 1.795-1.74 1.795z" transform="translate(14) translate(9.639 73.077)"/>
        </g>
    </g>
</svg>
