<?xml version="1.0" encoding="UTF-8"?>
<svg width="24px" height="24px" viewBox="0 0 24 24" version="1.1" xmlns="http://www.w3.org/2000/svg" xmlns:xlink="http://www.w3.org/1999/xlink">
    <!-- Generator: sketchtool 61.2 (101010) - https://sketch.com -->
    <title>579903AA-F0C4-409C-8CCD-7C5D32BFB120</title>
    <desc>Created with sketchtool.</desc>
    <g id="details" stroke="none" stroke-width="1" fill="none" fill-rule="evenodd">
        <g id="tender---details-1.3" transform="translate(-150.000000, -153.000000)" fill="#FFFFFF">
            <g id="alert-/-fill-/-error" transform="translate(135.000000, 145.000000)">
                <g id="componenet/alert/">
                    <g id="icon-/-fill-/-lock" transform="translate(15.000000, 8.000000)">
                        <path d="M6.57211283,8.40662035 L6.57211283,10.2860646 L6.44544971,10.2860646 C5.64821714,10.2860646 5,10.9260319 5,11.7131181 L5,19.5729465 C5,20.3600327 5.64821714,21 6.44544971,21 L17.5545503,21 C18.3517829,21 19,20.3600327 19,19.5729465 L19,11.7094401 C19,10.9223539 18.3517829,10.2823866 17.5545503,10.2823866 L17.5172964,10.2823866 L17.5172964,8.40294238 C17.5172964,5.42378423 15.0622672,3 12.0447046,3 C9.0271421,3.00367797 6.57211283,5.4274622 6.57211283,8.40662035 Z M12.8568387,15.9906007 C12.7450772,16.0715161 12.7152741,16.1487536 12.7152741,16.2774826 C12.7189995,16.8549244 12.7189995,17.4286882 12.7189995,18.00613 L12.7189995,18.00613 C12.7301756,18.2451982 12.6072379,18.4805885 12.3911655,18.5872497 C11.8807877,18.8447078 11.3704098,18.4842664 11.3704098,18.00613 L11.3704098,18.002452 C11.3704098,17.4250102 11.3704098,16.8475685 11.3741352,16.2701267 C11.3741352,16.1524315 11.3480575,16.0751941 11.2437467,15.9979567 C10.7147419,15.6117695 10.5396487,14.9534123 10.8041511,14.3759706 C11.0612028,13.8132407 11.690793,13.4822231 12.2831293,13.5999183 C12.9425226,13.7323253 13.4007451,14.2545975 13.4081958,14.9055987 C13.4081958,15.3579894 13.2256519,15.7257867 12.8568387,15.9906007 Z M8.96753592,8.40662035 C8.96753592,6.72946465 10.3496541,5.36861463 12.0447046,5.36861463 C13.7434806,5.36861463 15.1218733,6.73314262 15.1218733,8.40662035 L15.1218733,10.2860646 L8.96753592,10.2860646 L8.96753592,8.40662035 Z" id="Shape"></path>
                    </g>
                </g>
            </g>
        </g>
    </g>
</svg>