<svg xmlns="http://www.w3.org/2000/svg" width="24" height="24" viewBox="0 0 24 24">
    <path fill="#12B886" fill-rule="evenodd" d="M6.434 12.178c-.158.433-.244.9-.244 1.386v5.857c0 .203.035.398.1.579H3.731C2.777 20 2 19.221 2 18.264v-3.193c0-1.595 1.295-2.893 2.887-2.893zm12.679 0c1.592 0 2.887 1.298 2.887 2.893v3.193c0 .957-.777 1.736-1.732 1.736H17.71c.064-.181.099-.376.099-.579v-5.857c0-.487-.086-.954-.244-1.386zm-5.345-1.507c1.592 0 2.887 1.298 2.887 2.893v5.857c0 .32-.258.579-.577.579H7.922c-.319 0-.577-.26-.577-.579v-5.857c0-1.595 1.295-2.893 2.887-2.893zM5.903 6.243C7.335 6.243 8.5 7.41 8.5 8.845c0 .441-.11.857-.305 1.222-.278.52-.725.935-1.269 1.169-.314.135-.66.21-1.023.21-1.432 0-2.597-1.166-2.597-2.601s1.165-2.602 2.597-2.602zm12.194 0c1.432 0 2.597 1.167 2.597 2.602 0 1.435-1.165 2.602-2.597 2.602-.363 0-.71-.076-1.023-.211-.543-.234-.991-.65-1.269-1.169-.194-.365-.305-.78-.305-1.222 0-1.435 1.165-2.602 2.597-2.602zM12 3c1.915 0 3.472 1.56 3.472 3.48 0 1.3-.717 2.437-1.775 3.034-.502.283-1.081.444-1.697.444-.616 0-1.195-.161-1.697-.444-1.058-.597-1.775-1.734-1.775-3.035C8.528 4.561 10.085 3 12 3z"/>
</svg>
