<svg xmlns="http://www.w3.org/2000/svg" width="30" height="32" viewBox="0 0 30 32">
    <g fill="none" fill-rule="evenodd">
        <path fill="#C71F66" d="M29.87 13.528c0 8.928-6.24 16.609-14.933 18.472C6.227 30.133.005 22.436.005 13.528V3.199C5.18 3.2 10.07 2.247 14.937 0c7.734 3.569 14.644 3.166 14.813 3.2l.12 10.328z"/>
        <path fill="#FFF" d="M29.87 13.528c0 3.994-1.25 7.745-3.416 10.836-5.21 5.2-13.525 5.148-18.656.11-3.523-3.46-5.66-8.265-5.66-13.485V3.154C6.56 2.929 10.905 1.861 14.938 0c4.656 2.149 9.553 3.2 14.809 3.2.006 0-.003-.491.124 10.328z" opacity=".15"/>
        <path fill="#F0F0F0" fill-rule="nonzero" d="M18.137 14.933c-.589 0-1.066-.477-1.066-1.066V11.2c0-1.176-.957-2.133-2.134-2.133-1.176 0-2.133.957-2.133 2.133v2.667c0 .589-.477 1.066-1.066 1.066-.59 0-1.067-.477-1.067-1.066V11.2c0-2.353 1.914-4.267 4.267-4.267 2.352 0 4.266 1.914 4.266 4.267v2.667c0 .589-.477 1.066-1.067 1.066z"/>
        <path fill="#F0F0F0" fill-rule="nonzero" d="M21.337 14.293v7.68c0 .707-.572 1.28-1.28 1.28H9.818c-.707 0-1.28-.573-1.28-1.28 0-8.372-.022-7.79.052-8.039.155-.532.646-.92 1.229-.92h10.24c.707 0 1.28.572 1.28 1.28z"/>
        <path fill="#FFF" fill-rule="nonzero" d="M21.337 14.293v7.04h-4.48c-4.284 0-7.81-3.236-8.268-7.399.155-.532.646-.92 1.229-.92h10.24c.707 0 1.28.572 1.28 1.28z"/>
        <path fill="#999" fill-rule="nonzero" d="M14.938 19.733c-.59 0-1.067-.477-1.067-1.066V17.6c0-.59.477-1.067 1.066-1.067.59 0 1.067.478 1.067 1.067v1.067c0 .589-.477 1.066-1.067 1.066z"/>
    </g>
</svg>
