<svg xmlns="http://www.w3.org/2000/svg" xmlns:xlink="http://www.w3.org/1999/xlink" width="70" height="70" viewBox="0 0 70 70">
    <defs>
        <linearGradient id="b" x1="50%" x2="50%" y1="0%" y2="100%">
            <stop offset="0%" stop-color="#5C83F9"/>
            <stop offset="100%" stop-color="#2F38F1"/>
        </linearGradient>
        <path id="a" d="M69.78 31.115c-.11-.984-1.258-1.724-2.25-1.724-3.207 0-6.054-1.883-7.247-4.796-1.219-2.984-.433-6.462 1.957-8.654.752-.688.844-1.84.213-2.64a34.65 34.65 0 0 0-5.545-5.6 1.95 1.95 0 0 0-2.66.215c-2.086 2.31-5.833 3.169-8.73 1.96a7.774 7.774 0 0 1-4.726-7.598A1.942 1.942 0 0 0 39.073.233 34.928 34.928 0 0 0 31.2.213a1.949 1.949 0 0 0-1.733 2.003c.114 3.245-1.81 6.245-4.793 7.467-2.86 1.169-6.582.317-8.664-1.973a1.95 1.95 0 0 0-2.641-.222 34.794 34.794 0 0 0-5.662 5.598 1.947 1.947 0 0 0 .208 2.66 7.756 7.756 0 0 1 1.958 8.733c-1.208 2.877-4.196 4.731-7.616 4.731-1.11-.036-1.9.71-2.022 1.72a35.086 35.086 0 0 0-.015 7.958c.11.988 1.292 1.722 2.295 1.722 3.049-.078 5.974 1.808 7.203 4.795 1.222 2.983.435 6.46-1.958 8.656a1.943 1.943 0 0 0-.212 2.636 34.772 34.772 0 0 0 5.536 5.602 1.946 1.946 0 0 0 2.664-.21c2.094-2.317 5.841-3.174 8.725-1.963a7.763 7.763 0 0 1 4.736 7.596 1.943 1.943 0 0 0 1.717 2.045 34.69 34.69 0 0 0 7.875.021 1.948 1.948 0 0 0 1.732-2.004c-.117-3.244 1.81-6.244 4.79-7.464 2.88-1.176 6.585-.315 8.668 1.972a1.955 1.955 0 0 0 2.641.22 34.84 34.84 0 0 0 5.662-5.598 1.944 1.944 0 0 0-.209-2.66c-2.436-2.205-3.225-5.715-1.96-8.73 1.189-2.84 4.065-4.745 7.16-4.745l.432.011c1.005.082 1.928-.692 2.049-1.716.31-2.632.312-5.308.015-7.96zM35 55.179c-11.145 0-20.178-9.034-20.178-20.178S23.856 14.823 35 14.823s20.178 9.034 20.178 20.178c0 3.782-1.043 7.32-2.854 10.346l-8.836-8.836a12.34 12.34 0 0 0 .978-4.83c0-3.305-1.287-6.411-3.624-8.747a12.288 12.288 0 0 0-8.746-3.623c-1.103 0-2.2.147-3.262.436-.465.127-.845.51-.969.976-.126.476.016.964.389 1.337 0 0 4.362 4.396 5.821 5.855.153.153.153.518.131.649l-.014.096c-.147 1.604-.43 3.53-.664 4.27l-.094.09-.096.1c-.75.24-2.706.527-4.336.673v-.009l-.073.019a.932.932 0 0 1-.74-.281c-1.519-1.52-5.71-5.68-5.71-5.68-.376-.375-.762-.454-1.019-.454-.599 0-1.135.433-1.304 1.054a12.412 12.412 0 0 0 3.192 11.985 12.29 12.29 0 0 0 8.748 3.623c1.688 0 3.323-.337 4.83-.977l8.932 8.931A20.076 20.076 0 0 1 35 55.18z"/>
    </defs>
    <g fill="none" fill-rule="evenodd">
        <mask id="c" fill="#fff">
            <use xlink:href="#a"/>
        </mask>
        <use fill="url(#b)" fill-rule="nonzero" xlink:href="#a"/>
        <g fill="#437FF5" mask="url(#c)">
            <rect width="345" height="200" rx="3" transform="translate(-60 -34)"/>
        </g>
    </g>
</svg>
