<svg xmlns="http://www.w3.org/2000/svg" xmlns:xlink="http://www.w3.org/1999/xlink" width="83" height="60" viewBox="0 0 83 60">
    <defs>
        <linearGradient id="b" x1="50%" x2="50%" y1="0%" y2="100%">
            <stop offset="0%" stop-color="#5C83F9"/>
            <stop offset="100%" stop-color="#2F38F1"/>
        </linearGradient>
        <path id="a" d="M80.582 17.798h-6.04c-.46 0-.903.178-1.235.496l-1.29 1.236c-2.173-5.03-5.291-10.003-9.503-15.152A11.893 11.893 0 0 0 53.275 0H29.09a11.89 11.89 0 0 0-9.237 4.378c-4.345 5.31-7.401 10.165-9.523 15.134l-1.27-1.218a1.785 1.785 0 0 0-1.235-.496h-6.04c-.986 0-1.785.8-1.785 1.785v4.13c0 .941.732 1.72 1.672 1.78l6.209.391c-.938 2.742-1.67 6.827-1.67 12.588 0 4.998.998 8.284 2.735 10.41v9.624c0 .825.67 1.494 1.494 1.494h6.873c.826 0 1.495-.669 1.495-1.494V52.53h44.75v5.976c0 .825.67 1.494 1.495 1.494h6.872c.826 0 1.495-.669 1.495-1.494v-9.623c1.737-2.127 2.736-5.413 2.736-10.411 0-5.761-.732-9.846-1.67-12.588l6.208-.39a1.784 1.784 0 0 0 1.672-1.781v-4.13c0-.986-.798-1.785-1.784-1.785zM24.952 8.55a5.328 5.328 0 0 1 4.138-1.961h24.185c1.61 0 3.12.715 4.14 1.961 2.946 3.602 5.273 7.05 7.071 10.483l-46.648.009c1.76-3.358 4.1-6.808 7.114-10.492zm-5.083 36.673c-3.421 0-6.194-1.117-6.194-3.828 0-2.71 1.006-4.908 4.427-4.908 3.42 0 7.96 2.198 7.96 4.908 0 2.71-2.773 3.828-6.193 3.828zm27.806-.565H34.691a3.554 3.554 0 0 1-3.55-3.55c0-.549.445-.994.995-.994H50.23c.55 0 .994.445.994.994a3.554 3.554 0 0 1-3.55 3.55zm14.823.565c-3.42 0-6.194-1.117-6.194-3.828 0-2.71 4.54-4.908 7.96-4.908 3.421 0 4.427 2.198 4.427 4.908 0 2.71-2.772 3.828-6.193 3.828z"/>
    </defs>
    <g fill="none" fill-rule="evenodd">
        <mask id="c" fill="#fff">
            <use xlink:href="#a"/>
        </mask>
        <use fill="url(#b)" fill-rule="nonzero" xlink:href="#a"/>
        <g fill="#437FF5" mask="url(#c)">
            <rect width="345" height="200" rx="3" transform="translate(-104 -39)"/>
        </g>
    </g>
</svg>
