<svg xmlns="http://www.w3.org/2000/svg" xmlns:xlink="http://www.w3.org/1999/xlink" width="150" height="150" viewBox="0 0 150 150">
    <defs>
        <filter id="prefix__a" width="139.2%" height="139.2%" x="-19.6%" y="-17.9%" filterUnits="objectBoundingBox">
            <feOffset dy="2" in="SourceAlpha" result="shadowOffsetOuter1"/>
            <feGaussianBlur in="shadowOffsetOuter1" result="shadowBlurOuter1" stdDeviation="7.5"/>
            <feColorMatrix in="shadowBlurOuter1" values="0 0 0 0 0.247446852 0 0 0 0 0.269560608 0 0 0 0 0.373386549 0 0 0 0.120957168 0"/>
        </filter>
        <circle id="prefix__b" cx="60" cy="60" r="60"/>
    </defs>
    <g fill="none" fill-rule="evenodd" transform="translate(15 13)">
        <use fill="#000" filter="url(#prefix__a)" xlink:href="#prefix__b"/>
        <use fill="#FFF" xlink:href="#prefix__b"/>
        <g fill="#BB7A45" fill-rule="nonzero">
            <path d="M34.78 32.106c1.525-1.83 1.412-4.525-.341-6.224-1.875-1.818-4.925-1.818-6.8-.001l-1.607 1.558c-.59.572-1.55.572-2.142 0-.286-.278-.443-.647-.444-1.039 0-.391.158-.76.444-1.037l2.719-2.637c.643-.623.643-1.634 0-2.258-.643-.624-1.686-.624-2.33 0l-.75.728-.717-.695c-.643-.623-1.686-.623-2.33 0-.643.624-.643 1.635 0 2.259l.737.713c-.691.827-1.067 1.85-1.067 2.928 0 1.245.501 2.416 1.41 3.296.936.91 2.168 1.364 3.4 1.364 1.23 0 2.462-.455 3.399-1.363l1.607-1.558c.59-.572 1.55-.572 2.142 0 .59.573.59 1.504 0 2.076l-3.154 3.058c-.643.624-.643 1.635 0 2.258.322.312.743.468 1.165.468.421 0 .843-.156 1.164-.468l1.186-1.149.717.694c.322.312.743.468 1.165.468.421 0 .843-.156 1.165-.468.643-.623.643-1.634 0-2.258l-.737-.713zM38.465 10.463C37.52 11.408 37 12.663 37 14c0 1.336.52 2.592 1.465 3.537C39.44 18.512 40.72 19 42 19c1.281 0 2.562-.488 3.536-1.463 1.95-1.95 1.95-5.124 0-7.075-1.95-1.95-5.122-1.95-7.072 0zm4.715 4.716c-.65.65-1.708.65-2.358 0-.65-.65-.65-1.708 0-2.358.65-.65 1.708-.65 2.358 0 .65.65.65 1.708 0 2.358z" transform="translate(32 32)"/>
            <path d="M55.325 2.251c-.026-.86-.723-1.55-1.59-1.576L31.365.001c-.456-.013-.895.16-1.216.48L2.538 28.107c-3.384 3.385-3.384 8.894 0 12.279l13.056 13.062C17.238 55.094 19.426 56 21.754 56c2.328 0 4.516-.906 6.16-2.552l27.612-27.625c.316-.316.487-.747.473-1.192l-.674-22.38zM25.582 51.162c-1.023 1.024-2.383 1.588-3.828 1.588-1.445 0-2.804-.564-3.828-1.588L4.87 38.1c-2.124-2.125-2.124-5.582 0-7.707L31.98 3.27l20.11.607.608 20.155-27.116 27.13z" transform="translate(32 32)"/>
        </g>
    </g>
</svg>
