<svg xmlns="http://www.w3.org/2000/svg" xmlns:xlink="http://www.w3.org/1999/xlink" width="150" height="150" viewBox="0 0 150 150">
    <defs>
        <filter id="prefix__a" width="139.2%" height="139.2%" x="-19.6%" y="-17.9%" filterUnits="objectBoundingBox">
            <feOffset dy="2" in="SourceAlpha" result="shadowOffsetOuter1"/>
            <feGaussianBlur in="shadowOffsetOuter1" result="shadowBlurOuter1" stdDeviation="7.5"/>
            <feColorMatrix in="shadowBlurOuter1" values="0 0 0 0 0.247446852 0 0 0 0 0.269560608 0 0 0 0 0.373386549 0 0 0 0.120957168 0"/>
        </filter>
        <circle id="prefix__b" cx="60" cy="60" r="60"/>
    </defs>
    <g fill="none" fill-rule="evenodd" transform="translate(15 13)">
        <use fill="#000" filter="url(#prefix__a)" xlink:href="#prefix__b"/>
        <use fill="#FFF" xlink:href="#prefix__b"/>
        <g fill="#108D5F" fill-rule="nonzero">
            <path d="M51.887 26.869h-.157v-3.942C51.73 10.265 41.73 0 29.393 0S7.056 10.265 7.056 22.927v3.942h-.94c-3.45 0-6.114 3.137-6.114 6.757v10.056c-.087 3.509 2.614 6.426 6.032 6.515l.081.001h5.8c.822-.04 1.456-.755 1.418-1.598l-.007-.091v-19.71c0-.965-.549-1.93-1.41-1.93H10.19v-3.942c0-10.885 8.597-19.71 19.202-19.71 10.605 0 19.202 8.825 19.202 19.71v3.942h-1.724c-.862 0-1.411.965-1.411 1.93v19.71c-.087.84.504 1.592 1.322 1.682.03.003.06.006.089.007h1.802l-.156.241c-2.352 3.208-6.043 5.087-9.954 5.068-.856-4.31-4.955-7.09-9.153-6.212-3.591.752-6.18 3.98-6.209 7.74.043 4.412 3.54 7.965 7.838 7.965 2.127-.035 4.156-.932 5.643-2.494 1.003-1.055 1.66-2.405 1.88-3.861 4.9.019 9.519-2.337 12.463-6.355l1.489-2.253c3.37-.241 5.486-2.413 5.486-5.55V34.43c0-3.46-2.508-7.562-6.113-7.562zM10 47H5.958C4.284 46.96 2.96 45.598 3 43.957c0-.027.002-.054.003-.08v-9.525C3.004 32.6 4.248 31 5.958 31H10v16zm24.85 13.39c-.844 1.018-2.031 1.601-3.277 1.61-2.48-.044-4.492-2.244-4.573-4.999-.001-2.76 2.011-5 4.495-5.001 2.484-.001 4.498 2.236 4.499 4.997V57c.063 1.258-.352 2.488-1.144 3.39zM55 44.638C55 46.695 53.05 47 52.15 47H49V31h3.15C53.8 31 55 33.362 55 35.114v9.524z" transform="translate(31 28)"/>
        </g>
    </g>
</svg>
