<svg xmlns="http://www.w3.org/2000/svg" width="30" height="30" viewBox="0 0 30 30">
    <g fill="none" fill-rule="evenodd">
        <circle cx="15" cy="15" r="15" fill="#80C76B"/>
        <path fill="#FFF" d="M20.254 8.923c-1.883-1.897-4.936-1.897-6.82 0l-.284.286-4.56 4.594c-.342.346-.342.906 0 1.251.343.346.9.346 1.242 0l4.845-4.88c1.197-1.206 3.138-1.206 4.335 0s1.197 3.162 0 4.368l-5.63 5.672c-.684.689-1.792.689-2.476 0-.684-.69-.684-1.806 0-2.495l1.24-1.25 3.601-3.628c.17-.171.447-.171.618 0 .17.172.17.45 0 .622l-4.056 4.086c-.343.346-.343.906 0 1.251.343.346.899.346 1.242 0l4.056-4.086c.856-.863.856-2.261 0-3.124-.857-.863-2.245-.863-3.102 0l-4.841 4.878c-1.37 1.38-1.37 3.617 0 4.997s3.59 1.38 4.96 0l5.63-5.672c1.883-1.897 1.883-4.973 0-6.87z"/>
    </g>
</svg>
