<svg xmlns="http://www.w3.org/2000/svg" width="24" height="24" viewBox="0 0 24 24">
    <path fill="#12B886" fill-rule="evenodd" d="M12.421 21C17.61 21 20 17.39 20 13.163c0-3.21-2.119-4.707-4.564-4.707-.978 0-2.173.428-2.77.963l1.548 2.862c.217-.268.652-.428 1.005-.428.706 0 1.25.455 1.25 1.337 0 2.728-1.467 4.6-4.048 4.6-1.25 0-2.363-.427-2.363-1.845v-3.958h1.44V9.178h-1.44v-1.15C10.058 4.818 8.59 3 5.25 3c-.354 0-.87.027-1.25.053V6.29h.815c1.14 0 1.548.4 1.548 1.845v1.043H4v2.809h2.363v3.958c0 3.45 2.608 5.055 6.058 5.055z"/>
</svg>
