<svg xmlns="http://www.w3.org/2000/svg" width="100" height="100" viewBox="0 0 100 100">
    <g fill="none">
        <circle cx="50" cy="50" r="50" fill="#E24C4B"/>
        <path fill="#D1403F" d="M100 49.474C100 77.264 77.263 100 49.474 100 33.369 100 19.158 91.684 10 80c8.526 6.947 19.579 12.105 31.579 12.105 27.79 0 50.526-22.736 50.526-50.526 0-12-5.158-23.053-12.105-31.579 11.684 9.158 20 23.368 20 39.474z"/>
        <path fill="#FFF" d="M73.548 73.548c-1.935 1.936-5.161 1.936-7.096 0L50 57.097 33.548 73.548c-1.935 1.936-5.161 1.936-7.096 0-1.936-1.935-1.936-5.161 0-7.096L42.903 50 26.452 33.548c-1.936-1.935-1.936-5.161 0-7.096 1.935-1.936 5.161-1.936 7.096 0L50 42.903l16.452-16.451c1.935-1.936 5.161-1.936 7.096 0 1.936 1.935 1.936 5.161 0 7.096L57.097 50l16.451 16.452c1.936 1.935 1.936 5.16 0 7.096z"/>
    </g>
</svg>
