<svg xmlns="http://www.w3.org/2000/svg" width="24" height="24" viewBox="0 0 24 24">
    <path fill="#FFF" fill-rule="evenodd" d="M16.644 12.33c.238-.24.624-.24.863 0l4.314 4.314c.239.238.239.624 0 .863l-4.314 4.314c-.239.239-.625.239-.863 0l-4.315-4.314c-.238-.239-.238-.625 0-.863zm-5.932 1.084c.337 0 .61.273.61.61v6.102c0 .337-.273.61-.61.61H4.61c-.337 0-.61-.273-.61-.61v-6.102c0-.337.273-.61.61-.61zm0-9.414c.337 0 .61.273.61.61v6.102c0 .337-.273.61-.61.61H4.61c-.337 0-.61-.273-.61-.61V4.61c0-.337.273-.61.61-.61zm9.414 0c.337 0 .61.273.61.61v6.102c0 .337-.273.61-.61.61h-6.102c-.337 0-.61-.273-.61-.61V4.61c0-.337.273-.61.61-.61z"/>
</svg>
