<svg xmlns="http://www.w3.org/2000/svg" width="100" height="100" viewBox="0 0 100 100">
    <g fill="none">
        <path fill="#1DD1A1" d="M100 50.001C100 77.615 77.615 100 50 100 22.387 100 0 77.615 0 50.001 0 22.385 22.387 0 50 0c27.615 0 50 22.385 50 50.001z"/>
        <path fill="#15BA8B" d="M60 1c-2.776-.45-5.63-1-8.539-1C23.041 0 0 22.385 0 49.999 0 77.615 23.041 100 51.461 100c2.91 0 5.763-.55 8.539-1-24.356-3.953-42.92-24.212-42.92-48.999C17.08 25.212 35.644 4.953 60 1z"/>
        <path fill="#FFF" d="M67.973 36.205L44.112 60.064 32.027 47.98c-1.609-1.606-4.214-1.606-5.822 0-1.607 1.606-1.607 4.213 0 5.82L41.2 68.792c.803.803 1.858 1.207 2.91 1.207 1.053 0 2.106-.404 2.911-1.207l26.773-26.77c1.607-1.605 1.607-4.212 0-5.818-1.608-1.607-4.213-1.607-5.822 0z"/>
    </g>
</svg>
