<svg xmlns="http://www.w3.org/2000/svg" width="50" height="50" viewBox="0 0 50 50">
    <path fill="#12B886" fill-rule="evenodd" d="M37.493 0C44.4 0 50 5.6 50 12.507v24.986C50 44.4 44.4 50 37.493 50H12.507C5.6 50 0 44.4 0 37.493V12.507C0 5.6 5.6 0 12.507 0h24.986zM35.67 15.456H20.682l-.166.005c-1.428.086-2.559 1.27-2.559 2.72v19.075l.005.166c.086 1.428 1.27 2.56 2.72 2.56H35.67l.166-.006c1.428-.086 2.559-1.27 2.559-2.72V18.181l-.005-.166c-.086-1.428-1.27-2.56-2.72-2.56zm0 2.725v19.075H20.682V18.181H35.67zm-4.088-8.175h-16.35l-.166.005c-1.428.086-2.559 1.27-2.559 2.72v19.075h2.725V12.731h16.35v-2.725z"/>
</svg>
