<svg xmlns="http://www.w3.org/2000/svg" width="140" height="140" viewBox="0 0 140 140">
    <g fill="none">
        <g>
            <path fill="#D5D6DB" d="M64.44 125.46L2.023 93.975C.369 93.14-.296 91.123.539 89.469l43.44-86.16c.834-1.654 2.852-2.32 4.507-1.485L110.9 33.31c1.655.834 2.32 2.851 1.485 4.506l-43.44 86.16c-.834 1.654-2.852 2.319-4.507 1.484z" transform="translate(14 7)"/>
            <path fill="#EAEFF1" d="M94.52 118.716H18.4c-1.853 0-3.355-1.502-3.355-3.355V10.553c0-1.853 1.502-3.355 3.355-3.355h76.12c1.853 0 3.355 1.502 3.355 3.355v104.808c0 1.853-1.502 3.355-3.355 3.355z" transform="translate(14 7)"/>
            <path fill="#64798A" d="M37.003 0h-7.78c-2.893 0-5.246 2.353-5.246 5.245v1.953h3.497V5.245c0-.965.784-1.748 1.748-1.748h7.78c.965 0 1.749.783 1.749 1.748v29.72c0 .964-.784 1.747-1.748 1.747h-4.284c-.965 0-1.749-.783-1.749-1.748V18.522h-3.496v16.442c0 2.892 2.353 5.245 5.245 5.245h4.284c2.892 0 5.245-2.353 5.245-5.245V5.245C42.248 2.353 39.895 0 37.003 0z" transform="translate(14 7)"/>
            <g fill="#D5D6DB">
                <path d="M23.621.053H64.447V4.285H23.621zM23.621 16.634H64.447V20.866H23.621zM.115 33.209H64.446V37.441H.115zM.115 49.785H64.446V54.016999999999996H.115zM.115 66.364H64.446V70.596H.115zM.115 82.937H64.446V87.169H.115z" transform="translate(14 7) translate(24.18 19.343)"/>
            </g>
        </g>
        <g>
            <path fill="#1DD1A1" d="M56 28c0 15.464-12.536 28-28 28C12.537 56 0 43.464 0 28S12.537 0 28 0c15.464 0 28 12.536 28 28z" transform="translate(84 84)"/>
            <path fill="#15BA8B" d="M33.6.56C32.046.307 30.448 0 28.818 0 12.903 0 0 12.536 0 28s12.903 28 28.818 28c1.63 0 3.228-.307 4.782-.56C19.96 53.226 9.565 41.881 9.565 28 9.565 14.12 19.96 2.775 33.6.56z" transform="translate(84 84)"/>
            <path fill="#FFF" d="M38.065 20.275l-13.363 13.36-6.767-6.766c-.9-.9-2.36-.9-3.26 0-.9.9-.9 2.36 0 3.259l8.397 8.396c.45.45 1.04.676 1.63.676.59 0 1.18-.226 1.63-.676l14.993-14.99c.9-.9.9-2.36 0-3.26-.9-.899-2.36-.899-3.26 0z" transform="translate(84 84)"/>
        </g>
    </g>
</svg>
