<svg xmlns="http://www.w3.org/2000/svg" width="50" height="50" viewBox="0 0 50 50">
    <g fill="none">
        <path fill="#F5E6FE" d="M40.625 50H9.375C4.197 50 0 45.803 0 40.625V9.375C0 4.197 4.197 0 9.375 0h31.25C45.803 0 50 4.197 50 9.375v31.25C50 45.803 45.803 50 40.625 50z"/>
        <path fill="#D9A4FC" d="M21.844 26.855c.489.489 1.334.147 1.334-.553v-1.043h6.25c.431 0 .781-.35.781-.78 0-.432-.35-.782-.78-.782h-6.25v-1.04c0-.696-.846-1.044-1.335-.554l-1.824 1.824c-.304.304-.304.8 0 1.104l1.824 1.824zM28.156 27.313c-.489-.49-1.334-.143-1.334.553v1.04h-6.25c-.431 0-.781.35-.781.782 0 .43.35.78.78.78h6.25v1.043c0 .697.846 1.04 1.335.553l1.824-1.823c.304-.305.304-.8 0-1.105l-1.824-1.823z"/>
        <path fill="#BE63F9" d="M34.375 13.542h-18.75c-1.723 0-3.125 1.402-3.125 3.125v16.667c0 1.724 1.402 3.125 3.125 3.125h18.75c1.723 0 3.125-1.401 3.125-3.125V16.667c0-1.723-1.402-3.125-3.125-3.125zm0 20.833h-18.75c-.575 0-1.042-.467-1.042-1.042V18.75h20.833v14.583c.001.575-.466 1.042-1.041 1.042z"/>
    </g>
</svg>
