<svg xmlns="http://www.w3.org/2000/svg" width="50" height="50" viewBox="0 0 50 50">
    <g fill="none">
        <path fill="#FFE6E2" d="M40.625 50H9.375C4.197 50 0 45.803 0 40.625V9.375C0 4.197 4.197 0 9.375 0h31.25C45.803 0 50 4.197 50 9.375v31.25C50 45.803 45.803 50 40.625 50z"/>
        <path fill="#FC573B" d="M28.125 23.698c-.575 0-1.042-.465-1.042-1.042V18.75c0-2.298-1.869-4.167-4.167-4.167-2.299 0-4.166 1.869-4.166 4.167v3.906c0 .575-.467 1.042-1.042 1.042s-1.042-.465-1.042-1.042V18.75c0-3.447 2.803-6.25 6.25-6.25s6.25 2.803 6.25 6.25v3.906c.001.575-.466 1.042-1.041 1.042z"/>
        <g fill="#FD907E">
            <path d="M12.273 6.25c-.432 0-.782-.35-.782-.781V.78c0-.431.35-.781.782-.781h1.301c1.149 0 2.083.934 2.083 2.083 0 1.148-.934 2.083-2.083 2.083h-.52v1.303c0 .431-.35.781-.781.781zm.78-3.645h.521c.288 0 .52-.235.52-.52 0-.288-.232-.522-.52-.522h-.52v1.042zM3.418 2.605H1.595v-.782c0-.143.117-.26.26-.26h1.563c.431 0 .781-.35.781-.782C4.2.35 3.85 0 3.418 0H1.855C.851 0 .032.817.032 1.823V5.47c0 .431.35.781.781.781.432 0 .782-.35.782-.781V4.167h1.823c.431 0 .781-.35.781-.781 0-.431-.35-.781-.781-.781zM9.668 0H6.023C5.59 0 5.24.35 5.24.781c0 .431.35.781.782.781h1.042V5.47c0 .431.35.781.781.781.431 0 .781-.35.781-.781V1.562h1.041c.431 0 .781-.35.781-.78C10.45.35 10.1 0 9.668 0z" transform="translate(20.8 31.25)"/>
        </g>
        <path fill="#FC573B" d="M18.75 36.719v-3.646c0-2.153 1.752-3.906 3.906-3.906h1.563c.472 0 .91.125 1.301.328.393-.203.832-.328 1.302-.328h3.647c.472 0 .91.125 1.301.328.164-.084.34-.147.52-.201v-5.075c0-1.292-1.05-2.344-2.343-2.344H15.884c-1.292 0-2.343 1.052-2.343 2.344v10.937c0 1.292 1.051 2.344 2.343 2.344h2.986c-.07-.25-.12-.508-.12-.781z"/>
    </g>
</svg>
