<svg xmlns="http://www.w3.org/2000/svg" width="41" height="40" viewBox="0 0 41 40">
    <path fill="#BBC0CC" fill-rule="evenodd" d="M28.867 13.852c2.785 0 4.966 1.71 4.966 3.894V29.44c0 2.183-2.181 3.893-4.965 3.893H12.132c-2.784 0-4.965-1.71-4.965-3.893V17.746c0-2.183 2.18-3.893 4.965-3.893h4.427v2.637h-4.427c-1.317 0-2.338.675-2.338 1.256V29.44c0 .58 1.021 1.256 2.338 1.256h16.735c1.317 0 2.339-.676 2.339-1.256V17.745c0-.581-1.022-1.256-2.339-1.256H24.44v-2.637zm-8.28-7.185c.726 0 1.314.59 1.314 1.318v13.416l1.645-1.65c.257-.258.592-.387.929-.387.336 0 .672.129.928.386.513.514.513 1.35 0 1.864l-3.922 3.937c-.256.258-.592.386-.928.386h-.02c-.335 0-.671-.128-.928-.386l-3.922-3.937c-.513-.514-.513-1.35 0-1.864.257-.257.593-.387.93-.387.335 0 .671.13.928.387l1.733 1.74V7.985c0-.728.588-1.318 1.314-1.318z"/>
</svg>
