<svg xmlns="http://www.w3.org/2000/svg" width="24" height="24" viewBox="0 0 24 24">
    <path fill="#38C8E7" fill-rule="evenodd" d="M12 3c-4.963 0-9 4.037-9 9s4.037 9 9 9 9-4.037 9-9-4.037-9-9-9zm.585 14.34c-.427.071-1.278.25-1.71.285-.366.03-.71-.18-.921-.48-.211-.3-.262-.685-.136-1.03l1.7-4.677H9.75c-.002-.975.73-1.692 1.665-1.967.446-.131 1.277-.311 1.71-.283.26.016.71.179.921.48.211.3.262.684.136 1.03l-1.7 4.677h1.767c0 .974-.703 1.805-1.664 1.965zm.54-8.715C12.504 8.625 12 8.121 12 7.5s.504-1.125 1.125-1.125 1.125.504 1.125 1.125-.504 1.125-1.125 1.125z"/>
</svg>
