<svg xmlns="http://www.w3.org/2000/svg" width="50" height="50" viewBox="0 0 50 50">
    <path fill="#0084B1" d="M37.493 0C44.4 0 50 5.6 50 12.507v24.986C50 44.4 44.4 50 37.493 50H12.507C5.6 50 0 44.4 0 37.493V12.507C0 5.6 5.6 0 12.507 0h24.986zM34.5 18.57h-1.258l-.287.006c-2.282.091-4.286 1.265-5.51 3.023-.14.2-.269.407-.387.62-.041-.005-.065-.008-.066-.007v-2.57l-.007-.086c-.041-.223-.236-.392-.471-.392h-6.122l-.086.007c-.223.041-.393.236-.393.471v22.28l.008.087c.04.223.236.392.47.392l6.256.002.086-.008c.223-.04.393-.236.393-.47V29.051l.004-.2c.103-2.135 1.838-3.873 3.995-3.897 1.136-.013 2.165.442 2.908 1.185.732.731 1.185 1.743 1.185 2.86v12.926l.007.086c.04.223.236.393.471.393l6.27.001.087-.008c.223-.04.393-.235.393-.47V26.515l-.004-.248c-.131-4.273-3.637-7.698-7.942-7.698zm-20.3.594H9.293c-.637 0-1.153.516-1.153 1.153v20.931c0 .637.516 1.153 1.153 1.153H14.2c.637 0 1.153-.516 1.153-1.153V20.317c0-.637-.516-1.153-1.153-1.153zm-2.434-11.57C9.45 7.592 7.553 9.47 7.553 11.773c0 2.374 1.958 4.235 4.186 4.19 2.197.052 4.197-1.764 4.202-4.174.005-2.302-1.884-4.193-4.174-4.195z"/>
</svg>
