<svg xmlns="http://www.w3.org/2000/svg" width="32" height="32" viewBox="0 0 32 32">
    <path fill="#4373F5" fill-rule="evenodd" d="M16 28c2.192 0 4.221-.548 6.087-1.644 1.807-1.039 3.23-2.462 4.269-4.27C27.452 20.222 28 18.193 28 16s-.548-4.221-1.644-6.087c-1.039-1.807-2.462-3.23-4.27-4.269C20.222 4.548 18.193 4 16 4c-2.173 0-4.192.548-6.058 1.644-1.807 1.058-3.24 2.49-4.298 4.298C4.548 11.808 4 13.827 4 16s.548 4.192 1.644 6.058c1.039 1.807 2.462 3.24 4.27 4.298C11.778 27.452 13.807 28 16 28zm-2.423-6.606V10.577L20.788 16l-7.211 5.394z"/>
</svg>
