<svg xmlns="http://www.w3.org/2000/svg" width="30" height="30" viewBox="0 0 30 30">
    <g fill="none" fill-rule="evenodd">
        <circle cx="15" cy="15" r="15" fill="#F87C32"/>
        <path fill="#FFF" d="M15.35 22.5c4.325 0 6.317-3.009 6.317-6.53 0-2.675-1.766-3.923-3.803-3.923-.815 0-1.811.356-2.31.802l1.29 2.385c.182-.223.544-.357.839-.357.588 0 1.04.38 1.04 1.115 0 2.273-1.222 3.833-3.372 3.833-1.041 0-1.97-.356-1.97-1.537v-3.3h1.2v-2.34h-1.2v-.958c0-2.674-1.222-4.19-4.006-4.19-.295 0-.725.022-1.042.045v2.696h.68c.95 0 1.29.335 1.29 1.538v.87h-1.97v2.34h1.97v3.299c0 2.875 2.173 4.212 5.048 4.212z"/>
    </g>
</svg>
