<svg xmlns="http://www.w3.org/2000/svg" width="100" height="100" viewBox="0 0 100 100">
    <g fill="none">
        <g>
            <path fill="#83A7C5" d="M86.175 23.163v54.933H3.825V23.163c0-2.345 1.9-4.245 4.247-4.245h73.856c2.346 0 4.247 1.9 4.247 4.245z" transform="translate(5 5)"/>
            <path fill="#628DB2" d="M9.951 18.918L80.05 18.918 80.05 78.096 9.951 78.096z" transform="translate(5 5)"/>
            <path fill="#EAEFF1" d="M75.84 4.22v73.876H14.16V4.22C14.16 1.89 16.05 0 18.38 0h53.238c2.332 0 4.221 1.89 4.221 4.22z" transform="translate(5 5)"/>
            <path fill="#8585FF" d="M75.84 4.22v3.773H14.16V4.221C14.16 1.89 16.05 0 18.38 0h53.238c2.332 0 4.221 1.89 4.221 4.22z" transform="translate(5 5)"/>
            <path fill="#FECA57" d="M28.248 18.053c0-2.274-1.843-4.118-4.117-4.118-2.273 0-4.116 1.844-4.116 4.118s1.843 4.118 4.116 4.118c2.274 0 4.117-1.844 4.117-4.118z" transform="translate(5 5)"/>
            <path fill="#D5D6DB" d="M45.935 16.905H32.682c-.82 0-1.485-.665-1.485-1.485 0-.82.665-1.485 1.485-1.485h13.253c.82 0 1.484.665 1.484 1.485 0 .82-.665 1.485-1.484 1.485zM68.476 16.905h-4.952c-.82 0-1.484-.665-1.484-1.485 0-.82.664-1.485 1.484-1.485h4.952c.82 0 1.484.665 1.484 1.485 0 .82-.664 1.485-1.484 1.485zM36.857 21.808h-4.175c-.82 0-1.485-.665-1.485-1.485 0-.82.665-1.484 1.485-1.484h4.175c.82 0 1.485.664 1.485 1.484s-.665 1.485-1.485 1.485zM68.476 21.808h-1.343c-.82 0-1.485-.665-1.485-1.485 0-.82.665-1.484 1.485-1.484h1.343c.82 0 1.484.664 1.484 1.484s-.664 1.485-1.484 1.485z" transform="translate(5 5)"/>
            <path fill="#FF6969" d="M29.898 31.78h-8.564c-.82 0-1.484-.665-1.484-1.485 0-.82.664-1.484 1.484-1.484h8.564c.82 0 1.484.665 1.484 1.484 0 .82-.665 1.485-1.484 1.485z" transform="translate(5 5)"/>
            <path fill="#FF6969" d="M25.616 40.533c-.82 0-1.485-.665-1.485-1.485v-8.752c0-.82.665-1.484 1.485-1.484.82 0 1.485.664 1.485 1.484v8.752c0 .82-.665 1.485-1.485 1.485z" transform="translate(5 5)"/>
            <g fill="#D5D6DB">
                <path d="M48.789 3.128H16.122c-.82 0-1.485-.665-1.485-1.485 0-.82.665-1.484 1.485-1.484h32.667c.82 0 1.484.664 1.484 1.484s-.664 1.485-1.484 1.485zM48.789 10.494H16.122c-.82 0-1.485-.664-1.485-1.484s.665-1.484 1.485-1.484h32.667c.82 0 1.484.664 1.484 1.484s-.664 1.484-1.484 1.484zM48.789 17.86H1.647c-.82 0-1.484-.664-1.484-1.484s.664-1.484 1.484-1.484h47.142c.82 0 1.484.664 1.484 1.484s-.664 1.484-1.484 1.484zM48.789 25.227H1.647c-.82 0-1.484-.664-1.484-1.484s.664-1.485 1.484-1.485h47.142c.82 0 1.484.665 1.484 1.485 0 .82-.664 1.484-1.484 1.484zM48.789 32.594H1.647c-.82 0-1.484-.665-1.484-1.485 0-.82.664-1.484 1.484-1.484h47.142c.82 0 1.484.664 1.484 1.484s-.664 1.485-1.484 1.485zM48.789 39.96H1.647c-.82 0-1.484-.665-1.484-1.485 0-.82.664-1.484 1.484-1.484h47.142c.82 0 1.484.665 1.484 1.484 0 .82-.664 1.484-1.484 1.484z" transform="translate(5 5) translate(19.688 28.652)"/>
            </g>
            <path fill="#41739F" d="M52.806 74.045c0 1.636-1.326 2.962-2.962 2.962h-9.688c-1.636 0-2.962-1.326-2.962-2.962H.45c-.249 0-.45.201-.45.45v3.666c0 2.17 1.76 3.928 3.928 3.928h82.144c2.169 0 3.928-1.758 3.928-3.928v-3.666c0-.249-.201-.45-.45-.45H52.806z" transform="translate(5 5)"/>
        </g>
        <g>
            <path fill="#FE8205" d="M20 0c1.89 0 3.78.944 4.887 2.83l14.287 24.324C41.462 31.049 38.728 36 34.287 36H5.713c-4.438 0-7.176-4.949-4.887-8.846L15.113 2.83C16.222.943 18.111 0 19.999 0" transform="translate(60 61.667)"/>
            <path fill="#EA624B" d="M33.9 27.154L19.894 2.83C19.29 1.78 18.447 1.022 17.5.557 18.254.187 19.075 0 19.896 0c1.851 0 3.703.943 4.79 2.83L38.69 27.154C40.934 31.05 38.25 36 33.9 36h-4.791c4.35 0 7.034-4.949 4.79-8.846z" opacity=".505" transform="translate(60 61.667)"/>
            <g>
                <path fill="#FFF" d="M2.9 0C1.143 0 .818 2.144.916 4.353l.268 7.817c.38 2.443 3.053 2.437 3.432 0l.268-7.817C4.982 1.97 4.658 0 2.9 0z" transform="translate(60 61.667) matrix(-1 0 0 1 23 11.667)"/>
                <path fill="#E6EDF3" d="M3.093 12.171l-.351-7.817C2.644 2.67 2.869 1.025 4 .337 3.64.12 3.187 0 2.619 0 .318 0-.107 2.144.02 4.353l.352 7.818c.369 1.81 2.384 2.274 3.607 1.403-.427-.304-.757-.77-.886-1.403z" transform="translate(60 61.667) matrix(-1 0 0 1 23 11.667)"/>
            </g>
            <g transform="translate(60 61.667) matrix(-1 0 0 1 22.5 27.667)">
                <circle cx="2" cy="2" r="2" fill="#FFF"/>
                <path fill="#E6EDF3" d="M2.1 2c0-.708.36-1.33.9-1.685C2.697.116 2.337 0 1.95 0 .873 0 0 .895 0 2s.873 2 1.95 2c.387 0 .747-.116 1.05-.315-.54-.356-.9-.977-.9-1.685z"/>
            </g>
        </g>
    </g>
</svg>
