<svg xmlns="http://www.w3.org/2000/svg" width="100" height="100" viewBox="0 0 100 100">
    <g fill="none">
        <g>
            <path fill="#83A7C5" d="M86.175 23.163v54.933H3.825V23.163c0-2.345 1.9-4.245 4.247-4.245h73.856c2.346 0 4.247 1.9 4.247 4.245z" transform="translate(5 5)"/>
            <path fill="#628DB2" d="M9.951 18.918L80.05 18.918 80.05 78.096 9.951 78.096z" transform="translate(5 5)"/>
            <path fill="#EAEFF1" d="M75.84 4.22v73.876H14.16V4.22C14.16 1.89 16.05 0 18.38 0h53.238c2.332 0 4.221 1.89 4.221 4.22z" transform="translate(5 5)"/>
            <path fill="#8585FF" d="M75.84 4.22v3.773H14.16V4.221C14.16 1.89 16.05 0 18.38 0h53.238c2.332 0 4.221 1.89 4.221 4.22z" transform="translate(5 5)"/>
            <path fill="#FECA57" d="M28.248 18.053c0-2.274-1.843-4.118-4.117-4.118-2.273 0-4.116 1.844-4.116 4.118s1.843 4.118 4.116 4.118c2.274 0 4.117-1.844 4.117-4.118z" transform="translate(5 5)"/>
            <path fill="#D5D6DB" d="M45.935 16.905H32.682c-.82 0-1.485-.665-1.485-1.485 0-.82.665-1.485 1.485-1.485h13.253c.82 0 1.484.665 1.484 1.485 0 .82-.665 1.485-1.484 1.485zM68.476 16.905h-4.952c-.82 0-1.484-.665-1.484-1.485 0-.82.664-1.485 1.484-1.485h4.952c.82 0 1.484.665 1.484 1.485 0 .82-.664 1.485-1.484 1.485zM36.857 21.808h-4.175c-.82 0-1.485-.665-1.485-1.485 0-.82.665-1.484 1.485-1.484h4.175c.82 0 1.485.664 1.485 1.484s-.665 1.485-1.485 1.485zM68.476 21.808h-1.343c-.82 0-1.485-.665-1.485-1.485 0-.82.665-1.484 1.485-1.484h1.343c.82 0 1.484.664 1.484 1.484s-.664 1.485-1.484 1.485z" transform="translate(5 5)"/>
            <path fill="#FF6969" d="M29.898 31.78h-8.564c-.82 0-1.484-.665-1.484-1.485 0-.82.664-1.484 1.484-1.484h8.564c.82 0 1.484.665 1.484 1.484 0 .82-.665 1.485-1.484 1.485z" transform="translate(5 5)"/>
            <path fill="#FF6969" d="M25.616 40.533c-.82 0-1.485-.665-1.485-1.485v-8.752c0-.82.665-1.484 1.485-1.484.82 0 1.485.664 1.485 1.484v8.752c0 .82-.665 1.485-1.485 1.485z" transform="translate(5 5)"/>
            <g fill="#D5D6DB">
                <path d="M48.789 3.128H16.122c-.82 0-1.485-.665-1.485-1.485 0-.82.665-1.484 1.485-1.484h32.667c.82 0 1.484.664 1.484 1.484s-.664 1.485-1.484 1.485zM48.789 10.494H16.122c-.82 0-1.485-.664-1.485-1.484s.665-1.484 1.485-1.484h32.667c.82 0 1.484.664 1.484 1.484s-.664 1.484-1.484 1.484zM48.789 17.86H1.647c-.82 0-1.484-.664-1.484-1.484s.664-1.484 1.484-1.484h47.142c.82 0 1.484.664 1.484 1.484s-.664 1.484-1.484 1.484zM48.789 25.227H1.647c-.82 0-1.484-.664-1.484-1.484s.664-1.485 1.484-1.485h47.142c.82 0 1.484.665 1.484 1.485 0 .82-.664 1.484-1.484 1.484zM48.789 32.594H1.647c-.82 0-1.484-.665-1.484-1.485 0-.82.664-1.484 1.484-1.484h47.142c.82 0 1.484.664 1.484 1.484s-.664 1.485-1.484 1.485zM48.789 39.96H1.647c-.82 0-1.484-.665-1.484-1.485 0-.82.664-1.484 1.484-1.484h47.142c.82 0 1.484.665 1.484 1.484 0 .82-.664 1.484-1.484 1.484z" transform="translate(5 5) translate(19.688 28.652)"/>
            </g>
            <path fill="#41739F" d="M52.806 74.045c0 1.636-1.326 2.962-2.962 2.962h-9.688c-1.636 0-2.962-1.326-2.962-2.962H.45c-.249 0-.45.201-.45.45v3.666c0 2.17 1.76 3.928 3.928 3.928h82.144c2.169 0 3.928-1.758 3.928-3.928v-3.666c0-.249-.201-.45-.45-.45H52.806z" transform="translate(5 5)"/>
        </g>
        <g transform="translate(65 60)">
            <path fill="#40464C" d="M23.949 19.008c-1.06 0-1.92-.86-1.92-1.92v-5.56c0-4.14-3.367-7.506-7.506-7.506-4.138 0-7.505 3.367-7.505 7.505v5.561c0 1.06-.86 1.92-1.92 1.92s-1.92-.86-1.92-1.92v-5.56C3.178 5.271 8.268.181 14.523.181c6.256 0 11.346 5.09 11.346 11.345v5.561c0 1.06-.86 1.92-1.92 1.92z"/>
            <path fill="#FFE181" d="M25.698 17.088H3.35c-1.736 0-3.155 1.42-3.155 3.155v16.474c0 1.735 1.42 3.155 3.155 3.155h22.348c1.735 0 3.155-1.42 3.155-3.155V20.243c0-1.735-1.42-3.155-3.155-3.155z"/>
            <path fill="#FEC458" d="M8.455 36.717V20.243c0-1.735 1.42-3.155 3.155-3.155H3.35c-1.736 0-3.155 1.42-3.155 3.155v16.474c0 1.735 1.42 3.155 3.155 3.155h8.26c-1.735 0-3.155-1.42-3.155-3.155z"/>
            <path fill="#F9AB49" d="M14.524 35.879c-1.06 0-1.92-.86-1.92-1.92v-4.463c0-1.06.86-1.92 1.92-1.92s1.92.86 1.92 1.92v4.463c0 1.06-.86 1.92-1.92 1.92z"/>
            <circle cx="14.523" cy="26.93" r="3.742" fill="#FEC458"/>
            <path fill="#F9AB49" d="M14.91 26.93c0-1.303.666-2.45 1.677-3.12-.591-.392-1.3-.622-2.064-.622-2.066 0-3.742 1.676-3.742 3.742 0 2.067 1.676 3.743 3.742 3.743.764 0 1.473-.23 2.064-.622-1.01-.67-1.678-1.817-1.678-3.12z"/>
        </g>
    </g>
</svg>
