<svg xmlns="http://www.w3.org/2000/svg" width="100" height="100" viewBox="0 0 100 100">
    <g fill="none">
        <g>
            <path fill="#83A7C5" d="M86.175 23.163v54.933H3.825V23.163c0-2.345 1.9-4.245 4.247-4.245h73.856c2.346 0 4.247 1.9 4.247 4.245z" transform="translate(5 5)"/>
            <path fill="#628DB2" d="M9.951 18.918L80.05 18.918 80.05 78.096 9.951 78.096z" transform="translate(5 5)"/>
            <path fill="#EAEFF1" d="M75.84 4.22v73.876H14.16V4.22C14.16 1.89 16.05 0 18.38 0h53.238c2.332 0 4.221 1.89 4.221 4.22z" transform="translate(5 5)"/>
            <path fill="#8585FF" d="M75.84 4.22v3.773H14.16V4.221C14.16 1.89 16.05 0 18.38 0h53.238c2.332 0 4.221 1.89 4.221 4.22z" transform="translate(5 5)"/>
            <path fill="#FECA57" d="M28.248 18.053c0-2.274-1.843-4.118-4.117-4.118-2.273 0-4.116 1.844-4.116 4.118s1.843 4.118 4.116 4.118c2.274 0 4.117-1.844 4.117-4.118z" transform="translate(5 5)"/>
            <path fill="#D5D6DB" d="M45.935 16.905H32.682c-.82 0-1.485-.665-1.485-1.485 0-.82.665-1.485 1.485-1.485h13.253c.82 0 1.484.665 1.484 1.485 0 .82-.665 1.485-1.484 1.485zM68.476 16.905h-4.952c-.82 0-1.484-.665-1.484-1.485 0-.82.664-1.485 1.484-1.485h4.952c.82 0 1.484.665 1.484 1.485 0 .82-.664 1.485-1.484 1.485zM36.857 21.808h-4.175c-.82 0-1.485-.665-1.485-1.485 0-.82.665-1.484 1.485-1.484h4.175c.82 0 1.485.664 1.485 1.484s-.665 1.485-1.485 1.485zM68.476 21.808h-1.343c-.82 0-1.485-.665-1.485-1.485 0-.82.665-1.484 1.485-1.484h1.343c.82 0 1.484.664 1.484 1.484s-.664 1.485-1.484 1.485z" transform="translate(5 5)"/>
            <path fill="#FF6969" d="M29.898 31.78h-8.564c-.82 0-1.484-.665-1.484-1.485 0-.82.664-1.484 1.484-1.484h8.564c.82 0 1.484.665 1.484 1.484 0 .82-.665 1.485-1.484 1.485z" transform="translate(5 5)"/>
            <path fill="#FF6969" d="M25.616 40.533c-.82 0-1.485-.665-1.485-1.485v-8.752c0-.82.665-1.484 1.485-1.484.82 0 1.485.664 1.485 1.484v8.752c0 .82-.665 1.485-1.485 1.485z" transform="translate(5 5)"/>
            <g fill="#D5D6DB">
                <path d="M48.789 3.128H16.122c-.82 0-1.485-.665-1.485-1.485 0-.82.665-1.484 1.485-1.484h32.667c.82 0 1.484.664 1.484 1.484s-.664 1.485-1.484 1.485zM48.789 10.494H16.122c-.82 0-1.485-.664-1.485-1.484s.665-1.484 1.485-1.484h32.667c.82 0 1.484.664 1.484 1.484s-.664 1.484-1.484 1.484zM48.789 17.86H1.647c-.82 0-1.484-.664-1.484-1.484s.664-1.484 1.484-1.484h47.142c.82 0 1.484.664 1.484 1.484s-.664 1.484-1.484 1.484zM48.789 25.227H1.647c-.82 0-1.484-.664-1.484-1.484s.664-1.485 1.484-1.485h47.142c.82 0 1.484.665 1.484 1.485 0 .82-.664 1.484-1.484 1.484zM48.789 32.594H1.647c-.82 0-1.484-.665-1.484-1.485 0-.82.664-1.484 1.484-1.484h47.142c.82 0 1.484.664 1.484 1.484s-.664 1.485-1.484 1.485zM48.789 39.96H1.647c-.82 0-1.484-.665-1.484-1.485 0-.82.664-1.484 1.484-1.484h47.142c.82 0 1.484.665 1.484 1.484 0 .82-.664 1.484-1.484 1.484z" transform="translate(5 5) translate(19.688 28.652)"/>
            </g>
            <path fill="#41739F" d="M52.806 74.045c0 1.636-1.326 2.962-2.962 2.962h-9.688c-1.636 0-2.962-1.326-2.962-2.962H.45c-.249 0-.45.201-.45.45v3.666c0 2.17 1.76 3.928 3.928 3.928h82.144c2.169 0 3.928-1.758 3.928-3.928v-3.666c0-.249-.201-.45-.45-.45H52.806z" transform="translate(5 5)"/>
        </g>
        <g>
            <path fill="#1DD1A1" d="M40 20c0 11.046-8.954 20-20 20C8.955 40 0 31.046 0 20S8.955 0 20 0c11.046 0 20 8.954 20 20z" transform="translate(60 60)"/>
            <path fill="#15BA8B" d="M24 .4C22.89.22 21.748 0 20.585 0 9.216 0 0 8.954 0 20s9.216 20 20.585 20c1.163 0 2.305-.22 3.415-.4C14.258 38.019 6.832 29.915 6.832 20 6.832 10.085 14.258 1.981 24 .4z" transform="translate(60 60)"/>
            <path fill="#FFF" d="M27.19 14.482l-9.545 9.543-4.834-4.833c-.644-.642-1.686-.642-2.33 0-.642.643-.642 1.685 0 2.328l6 5.997c.32.322.742.483 1.164.483.42 0 .842-.161 1.164-.483l10.71-10.708c.642-.642.642-1.685 0-2.327-.644-.643-1.686-.643-2.33 0z" transform="translate(60 60)"/>
        </g>
    </g>
</svg>
