<svg xmlns="http://www.w3.org/2000/svg" width="100" height="100" viewBox="0 0 100 100">
    <g fill="none">
        <g>
            <path fill="#83A7C5" d="M86.175 23.163v54.933H3.825V23.163c0-2.345 1.9-4.245 4.247-4.245h73.856c2.346 0 4.247 1.9 4.247 4.245z" transform="translate(5 5)"/>
            <path fill="#628DB2" d="M9.951 18.918L80.05 18.918 80.05 78.096 9.951 78.096z" transform="translate(5 5)"/>
            <path fill="#EAEFF1" d="M75.84 4.22v73.876H14.16V4.22C14.16 1.89 16.05 0 18.38 0h53.238c2.332 0 4.221 1.89 4.221 4.22z" transform="translate(5 5)"/>
            <path fill="#8585FF" d="M75.84 4.22v3.773H14.16V4.221C14.16 1.89 16.05 0 18.38 0h53.238c2.332 0 4.221 1.89 4.221 4.22z" transform="translate(5 5)"/>
            <path fill="#FECA57" d="M28.248 18.053c0-2.274-1.843-4.118-4.117-4.118-2.273 0-4.116 1.844-4.116 4.118s1.843 4.118 4.116 4.118c2.274 0 4.117-1.844 4.117-4.118z" transform="translate(5 5)"/>
            <path fill="#D5D6DB" d="M45.935 16.905H32.682c-.82 0-1.485-.665-1.485-1.485 0-.82.665-1.485 1.485-1.485h13.253c.82 0 1.484.665 1.484 1.485 0 .82-.665 1.485-1.484 1.485zM68.476 16.905h-4.952c-.82 0-1.484-.665-1.484-1.485 0-.82.664-1.485 1.484-1.485h4.952c.82 0 1.484.665 1.484 1.485 0 .82-.664 1.485-1.484 1.485zM36.857 21.808h-4.175c-.82 0-1.485-.665-1.485-1.485 0-.82.665-1.484 1.485-1.484h4.175c.82 0 1.485.664 1.485 1.484s-.665 1.485-1.485 1.485zM68.476 21.808h-1.343c-.82 0-1.485-.665-1.485-1.485 0-.82.665-1.484 1.485-1.484h1.343c.82 0 1.484.664 1.484 1.484s-.664 1.485-1.484 1.485z" transform="translate(5 5)"/>
            <path fill="#FF6969" d="M29.898 31.78h-8.564c-.82 0-1.484-.665-1.484-1.485 0-.82.664-1.484 1.484-1.484h8.564c.82 0 1.484.665 1.484 1.484 0 .82-.665 1.485-1.484 1.485z" transform="translate(5 5)"/>
            <path fill="#FF6969" d="M25.616 40.533c-.82 0-1.485-.665-1.485-1.485v-8.752c0-.82.665-1.484 1.485-1.484.82 0 1.485.664 1.485 1.484v8.752c0 .82-.665 1.485-1.485 1.485z" transform="translate(5 5)"/>
            <g fill="#D5D6DB">
                <path d="M48.789 3.128H16.122c-.82 0-1.485-.665-1.485-1.485 0-.82.665-1.484 1.485-1.484h32.667c.82 0 1.484.664 1.484 1.484s-.664 1.485-1.484 1.485zM48.789 10.494H16.122c-.82 0-1.485-.664-1.485-1.484s.665-1.484 1.485-1.484h32.667c.82 0 1.484.664 1.484 1.484s-.664 1.484-1.484 1.484zM48.789 17.86H1.647c-.82 0-1.484-.664-1.484-1.484s.664-1.484 1.484-1.484h47.142c.82 0 1.484.664 1.484 1.484s-.664 1.484-1.484 1.484zM48.789 25.227H1.647c-.82 0-1.484-.664-1.484-1.484s.664-1.485 1.484-1.485h47.142c.82 0 1.484.665 1.484 1.485 0 .82-.664 1.484-1.484 1.484zM48.789 32.594H1.647c-.82 0-1.484-.665-1.484-1.485 0-.82.664-1.484 1.484-1.484h47.142c.82 0 1.484.664 1.484 1.484s-.664 1.485-1.484 1.485zM48.789 39.96H1.647c-.82 0-1.484-.665-1.484-1.485 0-.82.664-1.484 1.484-1.484h47.142c.82 0 1.484.665 1.484 1.484 0 .82-.664 1.484-1.484 1.484z" transform="translate(5 5) translate(19.688 28.652)"/>
            </g>
            <path fill="#41739F" d="M52.806 74.045c0 1.636-1.326 2.962-2.962 2.962h-9.688c-1.636 0-2.962-1.326-2.962-2.962H.45c-.249 0-.45.201-.45.45v3.666c0 2.17 1.76 3.928 3.928 3.928h82.144c2.169 0 3.928-1.758 3.928-3.928v-3.666c0-.249-.201-.45-.45-.45H52.806z" transform="translate(5 5)"/>
        </g>
        <g>
            <path fill="#00DD80" d="M32.303 26.712c-1.075 2.914-2.701 5.447-4.834 7.53-2.427 2.37-5.605 4.253-9.446 5.596-.126.044-.257.08-.39.106-.174.035-.352.054-.528.056h-.034c-.188 0-.376-.019-.563-.056-.133-.026-.262-.062-.388-.105-3.845-1.341-7.027-3.224-9.457-5.594-2.133-2.082-3.759-4.614-4.832-7.528C-.121 21.42-.01 15.583.079 10.893l.002-.072c.018-.387.03-.794.036-1.243.032-2.206 1.786-4.03 3.992-4.153 4.599-.257 8.156-1.757 11.196-4.72l.027-.024c.504-.463 1.14-.69 1.773-.681.61.008 1.219.235 1.705.68l.026.025c3.04 2.963 6.599 4.463 11.198 4.72 2.205.123 3.959 1.947 3.992 4.153.006.452.018.858.036 1.243v.03c.09 4.7.2 10.547-1.76 15.86z" transform="translate(63.333 60)"/>
            <path fill="#00AA63" d="M32.303 26.712c-1.075 2.914-2.701 5.447-4.834 7.53-2.427 2.37-5.605 4.253-9.446 5.596-.126.044-.257.08-.39.106-.174.035-.352.054-.528.056V0c.61.008 1.219.235 1.705.68l.026.025c3.04 2.963 6.599 4.463 11.198 4.72 2.205.123 3.959 1.947 3.992 4.153.006.452.018.858.036 1.243v.03c.09 4.7.2 10.547-1.76 15.86z" transform="translate(63.333 60)"/>
            <path fill="#FFF" d="M27.04 20c0 5.485-4.454 9.95-9.935 9.97h-.035c-5.496 0-9.969-4.473-9.969-9.97 0-5.497 4.473-9.969 9.97-9.969h.034c5.48.02 9.934 4.484 9.934 9.969z" transform="translate(63.333 60)"/>
            <path fill="#E1EBF0" d="M27.04 20c0 5.485-4.454 9.95-9.935 9.97V10.03c5.48.02 9.934 4.484 9.934 9.969z" transform="translate(63.333 60)"/>
            <path fill="#B4D2D7" d="M21.595 18.564l-4.49 4.49-.97.971c-.229.23-.53.344-.83.344-.3 0-.6-.115-.83-.344l-2.086-2.087c-.458-.458-.458-1.2 0-1.66.458-.458 1.201-.458 1.66 0l1.256 1.257 4.63-4.63c.459-.459 1.202-.459 1.66 0 .459.458.459 1.202 0 1.66z" transform="translate(63.333 60)"/>
            <path fill="#6FA5AA" d="M21.595 18.564l-4.49 4.49v-3.32l2.83-2.83c.459-.458 1.202-.458 1.66 0 .459.46.459 1.203 0 1.66z" transform="translate(63.333 60)"/>
        </g>
    </g>
</svg>
