<svg xmlns="http://www.w3.org/2000/svg" width="50" height="50" viewBox="0 0 50 50">
    <g fill="none">
        <path fill="#E3F8FA" d="M40.625 50H9.375C4.197 50 0 45.803 0 40.625V9.375C0 4.197 4.197 0 9.375 0h31.25C45.803 0 50 4.197 50 9.375v31.25C50 45.803 45.803 50 40.625 50z"/>
        <path fill="#26C6DA" d="M22.103 27.897l-1.22-1.22c-1.93-1.93-1.93-5.07 0-6.999l4.055-4.053-1.791-1.79c-.224-.224-.29-.56-.169-.852.119-.292.405-.483.72-.483h6.77c.432 0 .782.35.782.781v6.77c0 .316-.19.6-.483.722-.29.12-.626.055-.851-.168l-1.791-1.793-4.916 4.916c-.843.844-.843 2.217 0 3.063.305.304.305.8 0 1.104-.306.307-.8.307-1.106.002z"/>
        <path fill="#8CE1EB" d="M26.302 37.5h-6.77c-.432 0-.782-.35-.782-.781v-6.77c0-.316.19-.6.483-.722.292-.12.628-.055.851.168l1.791 1.793 4.916-4.918c.843-.843.843-2.217 0-3.062-.305-.305-.305-.8 0-1.105.304-.305.8-.305 1.104 0l1.22 1.22c1.93 1.93 1.93 5.07 0 6.999l-4.052 4.053 1.79 1.79c.224.224.29.56.169.852-.122.292-.405.483-.72.483z"/>
    </g>
</svg>
