<svg xmlns="http://www.w3.org/2000/svg" width="50" height="50" viewBox="0 0 50 50">
    <g fill="none">
        <path fill="#ECEFF1" d="M42.667 7.171C37.926 2.59 31.688 0 25.045 0 5.978 0-5.995 20.658 3.526 37.09L0 49.903l13.172-3.435c5.739 3.1 10.44 2.825 11.885 3.008 22.11 0 33.115-26.747 17.578-42.223l.032-.082z"/>
        <path fill="#4CAF50" d="M25.09 45.226l-.012-.002h-.033c-6.616 0-10.844-3.133-11.26-3.314l-7.797 2.027 2.09-7.579-.497-.78c-2.058-3.277-3.152-7.05-3.152-10.937 0-18.283 22.342-27.425 35.27-14.502 12.898 12.787 3.843 35.087-14.608 35.087z"/>
        <path fill="#FAFAFA" d="M36.402 29.748l-.019.156c-.626-.312-3.674-1.803-4.242-2.008-1.274-.472-.914-.075-3.362 2.728-.364.405-.725.436-1.343.155-.624-.311-2.626-.966-4.996-3.087-1.847-1.653-3.086-3.68-3.452-4.304-.61-1.052.665-1.202 1.826-3.398.207-.437.101-.78-.052-1.09-.156-.311-1.398-3.368-1.918-4.586-.499-1.215-1.012-1.06-1.397-1.06-1.197-.105-2.073-.088-2.844.715-3.356 3.688-2.51 7.493.362 11.54 5.643 7.385 8.65 8.745 14.147 10.633 1.484.472 2.838.405 3.909.252 1.193-.19 3.674-1.5 4.192-2.966.53-1.465.53-2.682.374-2.963-.154-.28-.561-.436-1.185-.717z"/>
    </g>
</svg>
