<svg xmlns="http://www.w3.org/2000/svg" width="80" height="80" viewBox="0 0 80 80">
    <defs>
        <linearGradient id="a" x1="0%" y1="2.382%" y2="100%">
            <stop offset="0%" stop-color="#78B6FB"/>
            <stop offset="100%" stop-color="#437FF5"/>
        </linearGradient>
    </defs>
    <g fill="none" fill-rule="evenodd">
        <circle cx="40" cy="40" r="40" fill="url(#a)"/>
        <path fill="#FFF" fill-rule="nonzero" d="M62.025 33.724h-3.3a.975.975 0 0 0-.674.271l-.705.675c-1.187-2.748-2.891-5.465-5.192-8.278A6.498 6.498 0 0 0 47.107 24H33.893a6.496 6.496 0 0 0-5.047 2.392c-2.373 2.901-4.043 5.553-5.203 8.268l-.694-.665a.975.975 0 0 0-.674-.271h-3.3a.975.975 0 0 0-.975.975v2.256c0 .515.4.94.913.973l3.393.214c-.513 1.497-.913 3.73-.913 6.877 0 2.73.545 4.526 1.495 5.688v5.257c0 .451.365.816.816.816h3.755a.816.816 0 0 0 .817-.816V52.7h24.449v3.265c0 .451.365.816.816.816h3.755c.45 0 .816-.365.816-.816v-5.257c.95-1.162 1.495-2.957 1.495-5.688 0-3.148-.4-5.38-.913-6.877l3.393-.214a.975.975 0 0 0 .913-.973V34.7a.975.975 0 0 0-.975-.975zm-30.393-5.053a2.91 2.91 0 0 1 2.261-1.072h13.214c.88 0 1.704.39 2.26 1.072 1.61 1.968 2.882 3.851 3.865 5.727l-25.486.005c.961-1.835 2.24-3.72 3.886-5.732zm-2.777 20.036c-1.869 0-3.384-.61-3.384-2.092 0-1.48.55-2.681 2.419-2.681 1.868 0 4.349 1.2 4.349 2.681s-1.515 2.092-3.384 2.092zm15.192-.309h-7.094c-1.07 0-1.94-.87-1.94-1.94 0-.3.244-.543.544-.543h9.886c.3 0 .543.244.543.544 0 1.07-.87 1.94-1.939 1.94zm8.098.309c-1.869 0-3.384-.61-3.384-2.092 0-1.48 2.48-2.681 4.35-2.681 1.868 0 2.418 1.2 2.418 2.681s-1.515 2.092-3.384 2.092z"/>
    </g>
</svg>
