<svg xmlns="http://www.w3.org/2000/svg" width="80" height="80" viewBox="0 0 80 80">
    <defs>
        <linearGradient id="a" x1="0%" y1="2.382%" y2="100%">
            <stop offset="0%" stop-color="#78B6FB"/>
            <stop offset="100%" stop-color="#437FF5"/>
        </linearGradient>
    </defs>
    <g fill="none" fill-rule="evenodd">
        <circle cx="40" cy="40" r="40" fill="url(#a)"/>
        <path fill="#FFF" fill-rule="nonzero" d="M62.859 37.002c-.071-.632-.81-1.108-1.447-1.108-2.062 0-3.892-1.21-4.659-3.083a5.012 5.012 0 0 1 1.258-5.563 1.25 1.25 0 0 0 .137-1.698 22.275 22.275 0 0 0-3.564-3.6 1.253 1.253 0 0 0-1.71.139c-1.341 1.485-3.75 2.037-5.612 1.26a4.998 4.998 0 0 1-3.039-4.885 1.249 1.249 0 0 0-1.104-1.314c-1.681-.195-3.377-.2-5.063-.013a1.253 1.253 0 0 0-1.113 1.287c.073 2.087-1.164 4.015-3.081 4.8-1.84.752-4.232.204-5.57-1.268a1.254 1.254 0 0 0-1.698-.142 22.367 22.367 0 0 0-3.64 3.599 1.252 1.252 0 0 0 .134 1.71 4.986 4.986 0 0 1 1.258 5.613c-.777 1.85-2.697 3.042-4.896 3.042-.713-.023-1.22.456-1.3 1.105-.197 1.69-.2 3.413-.01 5.116.072.635.831 1.107 1.476 1.107 1.96-.05 3.84 1.163 4.63 3.083.786 1.918.28 4.153-1.258 5.564a1.25 1.25 0 0 0-.137 1.695 22.354 22.354 0 0 0 3.56 3.601 1.251 1.251 0 0 0 1.712-.135c1.346-1.489 3.755-2.04 5.61-1.262a4.99 4.99 0 0 1 3.044 4.884c-.04.662.446 1.239 1.104 1.314a22.301 22.301 0 0 0 5.062.014 1.252 1.252 0 0 0 1.113-1.289c-.075-2.085 1.164-4.014 3.08-4.798 1.85-.756 4.233-.202 5.572 1.268.444.484 1.18.542 1.698.142a22.397 22.397 0 0 0 3.64-3.6 1.25 1.25 0 0 0-.135-1.71 4.985 4.985 0 0 1-1.26-5.612c.764-1.825 2.614-3.05 4.602-3.05l.279.007c.646.053 1.239-.445 1.317-1.103.199-1.692.2-3.412.01-5.117zm-22.36 15.47c-7.163 0-12.97-5.807-12.97-12.971s5.807-12.972 12.97-12.972c7.165 0 12.973 5.808 12.973 12.972 0 2.431-.67 4.706-1.835 6.65l-5.68-5.68c.411-.97.628-2.02.628-3.105a7.899 7.899 0 0 0-2.33-5.623 7.9 7.9 0 0 0-5.622-2.329c-.709 0-1.414.094-2.097.28a.9.9 0 0 0-.623.628c-.081.306.01.62.25.86 0 0 2.804 2.825 3.742 3.763.099.099.098.333.085.418l-.01.061c-.094 1.032-.276 2.27-.426 2.746l-.06.057-.063.064c-.482.155-1.739.34-2.787.433v-.006l-.047.012a.6.6 0 0 1-.476-.18c-.976-.977-3.67-3.652-3.67-3.652a.916.916 0 0 0-.655-.292c-.385 0-.73.279-.839.678a7.979 7.979 0 0 0 2.053 7.705 7.901 7.901 0 0 0 5.623 2.329 7.934 7.934 0 0 0 3.105-.628l5.742 5.741a12.906 12.906 0 0 1-6.98 2.041z"/>
    </g>
</svg>
