<svg xmlns="http://www.w3.org/2000/svg" width="24" height="24" viewBox="0 0 24 24">
    <path fill-rule="evenodd" d="M12.08 19c3.955 0 5.92-3.267 5.92-6.764 0-2.346-1.503-3.68-3.491-3.68-.879 0-1.688.321-2.174.758l1.04 1.634c.255-.253.671-.414 1.064-.414.995 0 1.503.667 1.503 1.702 0 2.692-1.433 4.854-3.861 4.854-1.133 0-1.92-.529-1.92-1.725v-4.624h1.319V8.969h-1.318V7.59C10.162 5.403 9.145 4 6.809 4c-.231 0-.532.023-.786.046v1.887h.463c1.179 0 1.549.506 1.549 1.725v1.311H6v1.772h2.035v4.624c0 2.37 1.641 3.635 4.046 3.635z" opacity=".498"/>
</svg>
