<svg xmlns="http://www.w3.org/2000/svg" width="24" height="24" viewBox="0 0 24 24">
    <path fill="#BBC0CC" fill-rule="evenodd" d="M18.208 21c.484 0 .903-.173 1.259-.52.355-.345.533-.764.533-1.254V6.591c0-.49-.178-.916-.533-1.276-.356-.36-.775-.541-1.259-.541h-.875V3h-1.792v1.774H8.46V3H6.667v1.774h-.875c-.498 0-.92.18-1.27.54C4.175 5.676 4 6.102 4 6.592v12.635c0 .49.174.909.523 1.255.348.346.771.519 1.269.519h12.416zm0-1.774H5.792v-9.93h12.416v9.93zm-1.75-6.339v-1.774h-1.791v1.774h1.792zm-3.583 0v-1.774h-1.75v1.774h1.75zm-3.542 0v-1.774H7.541v1.774h1.792z"/>
</svg>
