<svg xmlns="http://www.w3.org/2000/svg" width="20" height="20" viewBox="0 0 20 20">
    <path fill="#12B886" fill-rule="evenodd" d="M10 2.5c-4.135 0-7.5 3.364-7.5 7.5 0 4.135 3.365 7.5 7.5 7.5s7.5-3.365 7.5-7.5c0-4.136-3.364-7.5-7.5-7.5zm4.307 6.233l-4.712 4.712c-.2.2-.467.31-.75.31-.284 0-.55-.11-.75-.31l-2.402-2.401c-.2-.2-.31-.467-.31-.75 0-.284.11-.55.31-.75.2-.2.467-.311.75-.311.284 0 .55.11.75.31l1.652 1.652 3.962-3.962c.2-.2.466-.31.75-.31.283 0 .55.11.75.31.413.414.413 1.087 0 1.5z"/>
</svg>
