<svg xmlns="http://www.w3.org/2000/svg" width="50" height="50" viewBox="0 0 50 50">
    <g fill="none">
        <path fill="#1DD1A1" d="M50 25c0 13.807-11.192 25-25 25C11.193 50 0 38.807 0 25S11.193 0 25 0c13.808 0 25 11.193 25 25z"/>
        <path fill="#15BA8B" d="M30 .5C28.612.275 27.185 0 25.73 0 11.52 0 0 11.193 0 25s11.52 25 25.73 25c1.455 0 2.882-.275 4.27-.5C17.822 47.523 8.54 37.394 8.54 25S17.822 2.478 30 .5z"/>
        <path fill="#FFF" d="M33.987 18.102l-11.931 11.93-6.043-6.042c-.804-.803-2.106-.803-2.91 0-.804.803-.804 2.107 0 2.91l7.497 7.497c.402.401.93.603 1.456.603.526 0 1.053-.202 1.455-.603l13.387-13.385c.803-.803.803-2.107 0-2.91-.805-.803-2.107-.803-2.911 0z"/>
    </g>
</svg>
