<svg xmlns="http://www.w3.org/2000/svg" width="30" height="30" viewBox="0 0 30 30">
    <g fill="none" fill-rule="evenodd">
        <circle cx="15" cy="15" r="15" fill="#4373F5"/>
        <path fill="#FFF" fill-rule="nonzero" d="M15.017 24c-.026 0-.055-.011-.074-.032l-3.045-2.938c-.03-.03-.04-.074-.023-.113.015-.04.058-.066.1-.066h1.931V15.27l-4.384-4.245-1.34 1.297c-.03.03-.077.04-.118.025-.038-.018-.064-.057-.064-.097l.004-4.137c0-.057.048-.104.106-.104L12.382 8c.043 0 .082.026.098.063.017.042.008.086-.021.117L11.1 9.494l3.888 3.768 3.89-3.77-1.339-1.3c-.03-.031-.04-.073-.023-.113.018-.04.057-.064.1-.064l4.266.004c.06 0 .106.044.106.103L22 12.259c0 .042-.028.082-.068.097-.04.016-.087.007-.118-.022l-1.357-1.315-4.307 4.175v5.658h1.906c.042 0 .08.026.098.066.018.04.008.084-.024.113l-3.035 2.938c-.023.02-.048.031-.078.031z"/>
    </g>
</svg>
