<?xml version="1.0" encoding="UTF-8"?>
<svg width="80px" height="80px" viewBox="0 0 80 80" version="1.1" xmlns="http://www.w3.org/2000/svg" xmlns:xlink="http://www.w3.org/1999/xlink">
    <!-- Generator: sketchtool 61.2 (101010) - https://sketch.com -->
    <title>2D7E40E3-76EF-40DC-A415-BFBEFE953E47</title>
    <desc>Created with sketchtool.</desc>
    <g id="office" stroke="none" stroke-width="1" fill="none" fill-rule="evenodd">
        <g id="office-setting-3.5---holiday---delete-confirm" transform="translate(-605.000000, -240.000000)" fill-rule="nonzero">
            <g id="modal-/-confirmation" transform="translate(295.000000, 190.000000)">
                <g id="icon-/-multicolor-/-confirm" transform="translate(310.000000, 50.000000)">
                    <g id="Group">
                        <circle id="Oval" fill="#F3705A" cx="40" cy="40" r="40"></circle>
                        <path d="M80,39.5788352 C80,61.8105114 61.8105562,80 39.5789349,80 C26.6948048,80 15.3264024,73.3473366 8,64 C14.8210414,69.557919 23.6631716,73.684304 33.2630769,73.684304 C55.4946982,73.684304 73.684142,55.4948154 73.684142,33.2631392 C73.684142,23.6632102 69.5579053,14.8210582 64,8 C73.3474912,15.3260652 80,26.6944956 80,39.5788352 Z" id="Path" fill="#EA624B"></path>
                    </g>
                    <path d="M39.315731,16.6666667 C48.0589001,16.6666667 56.6666662,20.6497013 56.6666662,30.1767757 C56.6666662,38.9624126 46.4888693,42.3411357 44.3030771,45.5157642 C42.6621209,47.8772031 43.2101809,51.1953356 38.7015814,51.1953356 C35.7646245,51.1953356 34.3299968,48.8323022 34.3299968,46.6701745 C34.3299968,38.6243808 46.2809289,36.8034739 46.2809289,30.1783702 C46.2809289,26.5317729 43.8275544,24.3696452 39.726776,24.3696452 C30.9836068,24.3696452 34.3976983,33.2860301 27.7758438,33.2860301 C25.385335,33.2860301 23.3333336,31.8669345 23.3333336,29.1658694 C23.3317219,22.5391713 30.980383,16.6666667 39.315731,16.6666667 Z M38.9756114,55.581776 C42.0447474,55.581776 44.5771071,58.0787465 44.5771071,61.1242214 C44.5771071,64.1696962 42.0495833,66.6666667 38.9756114,66.6666667 C35.9016395,66.6666667 33.3725037,64.1728852 33.3725037,61.1242214 C33.3725037,58.080341 35.9016395,55.581776 38.9756114,55.581776 Z" id="Shape" fill="#FFFFFF"></path>
                </g>
            </g>
        </g>
    </g>
</svg>