<svg xmlns="http://www.w3.org/2000/svg" width="80" height="80" viewBox="0 0 80 80">
    <g fill="none">
        <g>
            <circle cx="40" cy="40" r="40" fill="#F3705A"/>
            <path fill="#EA624B" d="M80 39.579C80 61.81 61.81 80 39.579 80 26.695 80 15.326 73.347 8 64c6.821 5.558 15.663 9.684 25.263 9.684 22.232 0 40.421-18.19 40.421-40.42 0-9.6-4.126-18.443-9.684-25.264 9.347 7.326 16 18.694 16 31.579z"/>
        </g>
        <path fill="#FFF" d="M39.316 16.667c8.743 0 17.35 3.983 17.35 13.51 0 8.785-10.177 12.164-12.363 15.339-1.64 2.361-1.093 5.68-5.601 5.68-2.937 0-4.372-2.364-4.372-4.526 0-8.046 11.95-9.867 11.95-16.492 0-3.646-2.452-5.808-6.553-5.808-8.743 0-5.33 8.916-11.951 8.916-2.39 0-4.443-1.42-4.443-4.12-.001-6.627 7.647-12.5 15.983-12.5zm-.34 38.915c3.069 0 5.601 2.497 5.601 5.542 0 3.046-2.527 5.543-5.601 5.543s-5.603-2.494-5.603-5.543c0-3.044 2.529-5.542 5.603-5.542z"/>
    </g>
</svg>
