<svg xmlns="http://www.w3.org/2000/svg" width="80" height="80" viewBox="0 0 80 80">
    <g fill="none">
        <path fill="#C5BEC7" d="M52.505 61.131L40.507 56.802 29.268 61.131 27.729 67.72 40.889 71.353 54.44 67.72z" transform="translate(0 2.4)"/>
        <path fill="#E6E6E6" d="M54.242 67.79h-32.45c-1.935 0-3.514 1.579-3.514 3.517v.097c0 1.933 1.58 3.518 3.514 3.518h38.194c1.935 0 3.515-1.585 3.515-3.518v-.097c0-1.938-1.58-3.518-3.515-3.518h-5.744z" transform="translate(0 2.4)"/>
        <path fill="#B3B3B3" d="M35.726 64.46h17.65l-.87-3.329H29.267L28.4 64.46l-.87 3.33h4.063l.483-1.856c.705-1.594.705-1.474 3.649-1.474z" transform="translate(0 2.4)"/>
        <path fill="#E6E6E6" d="M80 52.603l-39.48-3.61L0 52.603v4.306c0 2.32 1.902 4.222 4.224 4.222h71.552c2.322 0 4.224-1.902 4.224-4.222v-4.306z" transform="translate(0 2.4)"/>
        <path fill="#787878" d="M75.776.078H4.224C1.902.078 0 1.98 0 4.301v48.302h80V4.301C80 1.98 78.098.078 75.776.078z" transform="translate(0 2.4)"/>
        <path fill="#C5C3D2" d="M9.963 56.909v-4.306H0v4.306c0 2.32 1.902 4.222 4.224 4.222h9.967c-2.326 0-4.228-1.902-4.228-4.222z" transform="translate(0 2.4)"/>
        <path fill="#87B6E2" d="M72.943 46.451c.498 0 .903-.405.903-.902V7.133c0-.498-.405-.903-.903-.903H7.025c-.498 0-.904.405-.904.903v38.416c0 .497.406.902.904.902h65.918z" transform="translate(0 2.4)"/>
        <path fill="#6F7070" d="M6.121 45.549V7.133c0-.498.406-.903.904-.903h2.938V.078h-5.74C1.904.078 0 1.98 0 4.301v48.302h9.963v-6.152H7.025c-.498 0-.904-.405-.904-.902z" transform="translate(0 2.4)"/>
        <path fill="#6E90CC" d="M9.963 46.451V6.23H7.025c-.498 0-.904.405-.904.903v38.416c0 .497.406.902.904.902h2.938z" transform="translate(0 2.4)"/>
        <path fill="#C5C3D2" d="M24.537 73.245c-.332-.538-.52-1.169-.52-1.841v-.097c0-1.938 1.58-3.518 3.514-3.518h-5.739c-1.935 0-3.514 1.58-3.514 3.518v.097c0 .672.188 1.302.52 1.841.622 1.004 1.732 1.677 2.994 1.677h5.74c-1.259 0-2.373-.673-2.995-1.677z" transform="translate(0 2.4)"/>
        <path fill="#E6E6E6" d="M14.05 13.068l25.78 3.292 27.415-3.292V7.054c0-1.266-1.04-2.302-2.307-2.302H16.352c-1.267 0-2.303 1.036-2.303 2.302v6.014z" transform="translate(0 2.4)"/>
        <path fill="#BDB8C5" d="M18.595 10.135v-3.08c0-1.267 1.036-2.303 2.303-2.303h-4.546c-1.267 0-2.303 1.036-2.303 2.302v6.014h4.546v-2.933z" transform="translate(0 2.4)"/>
        <path fill="#98E38D" d="M14.05 13.068V46.45h53.195V13.068H14.05z" transform="translate(0 2.4)"/>
        <path fill="#51B87C" d="M14.049 13.068L18.595 13.068 18.595 46.451 14.049 46.451z" transform="translate(0 2.4)"/>
        <path fill="#E6E6E6" d="M60.714 46.451L60.714 25.601 39.816 22.185 20.599 25.601 20.599 46.451 21.004 46.451z" transform="translate(0 2.4)"/>
        <path fill="#87B6E2" d="M20.599 25.601h40.115v-6.4c0-.782-.64-1.423-1.423-1.423H22.022c-.783 0-1.423.64-1.423 1.423v6.4z" transform="translate(0 2.4)"/>
        <path fill="#6E90CC" d="M23.445 25.095v-5.894c0-.782.64-1.423 1.424-1.423h-2.847c-.783 0-1.423.64-1.423 1.423v6.4h2.846v-.506z" transform="translate(0 2.4)"/>
        <path fill="#BDB8C5" d="M23.445 46.429L23.445 25.601 20.599 25.601 20.599 46.451 23.445 46.451z" transform="translate(0 2.4)"/>
        <path fill="#FF4D48" d="M56.43 46.451V31.136c0-.783-.64-1.422-1.423-1.422h-3.57c-.783 0-1.424.64-1.424 1.422v15.315h6.418z" transform="translate(0 2.4)"/>
        <path fill="#BB1C4F" d="M51.907 46.451V31.136c0-.783.64-1.422 1.423-1.422h-1.893c-.783 0-1.424.64-1.424 1.422v15.315h1.894z" transform="translate(0 2.4)"/>
        <path fill="#FFD45E" d="M43.234 29.714H26.73c-.783 0-1.424.64-1.424 1.422v15.315h19.351V31.136c0-.783-.64-1.422-1.423-1.422z" transform="translate(0 2.4)"/>
        <path fill="#FFAC38" d="M27.987 46.451V31.136c0-.783.64-1.422 1.423-1.422h-2.68c-.783 0-1.424.64-1.424 1.422v15.315h2.681z" transform="translate(0 2.4)"/>
        <path fill="#817676" d="M40.507 57.983h-.037c-.673 0-1.217-.545-1.217-1.217s.544-1.217 1.217-1.217h.037c.672 0 1.216.545 1.216 1.217s-.544 1.217-1.216 1.217z" transform="translate(0 2.4)"/>
        <path fill="#FF4D48" d="M19.973 9.868h-.024c-.672 0-1.216-.544-1.216-1.216 0-.672.544-1.217 1.216-1.217h.024c.672 0 1.216.545 1.216 1.217s-.544 1.216-1.216 1.216z" transform="translate(0 2.4)"/>
        <path fill="#FFD45E" d="M24.118 9.868h-.023c-.672 0-1.217-.544-1.217-1.216 0-.672.545-1.217 1.217-1.217h.023c.672 0 1.216.545 1.216 1.217s-.544 1.216-1.216 1.216z" transform="translate(0 2.4)"/>
        <path fill="#98E38D" d="M28.268 9.886h-.023c-.672 0-1.217-.544-1.217-1.216 0-.672.545-1.216 1.217-1.216h.023c.672 0 1.217.544 1.217 1.216 0 .672-.545 1.216-1.217 1.216z" transform="translate(0 2.4)"/>
        <path fill="#817676" d="M40.944 44.192H30.165c-.672 0-1.216-.545-1.216-1.217s.544-1.217 1.216-1.217h10.78c.671 0 1.216.545 1.216 1.217s-.545 1.217-1.217 1.217zM40.944 39.988H30.027c-.672 0-1.216-.545-1.216-1.217s.544-1.217 1.216-1.217h10.917c.672 0 1.217.545 1.217 1.217s-.545 1.217-1.217 1.217zM40.944 35.95h-8.586c-.672 0-1.217-.545-1.217-1.217s.545-1.217 1.217-1.217h8.586c.672 0 1.217.545 1.217 1.217s-.545 1.216-1.217 1.216z" transform="translate(0 2.4)"/>
    </g>
</svg>
