<?xml version="1.0" encoding="UTF-8"?>
<svg width="100px" height="100px" viewBox="0 0 100 100" version="1.1" xmlns="http://www.w3.org/2000/svg" xmlns:xlink="http://www.w3.org/1999/xlink">
    <!-- Generator: sketchtool 61.2 (101010) - https://sketch.com -->
    <title>63CC0A5B-4774-4D3B-8E6C-8D57C07172F2</title>
    <desc>Created with sketchtool.</desc>
    <g id="Symbols" stroke="none" stroke-width="1" fill="none" fill-rule="evenodd">
        <g id="illustration-/-document-/-draft" fill-rule="nonzero">
            <g id="file" transform="translate(10.000000, 5.000000)">
                <path d="M46.0281876,89.6144776 L1.44537313,67.1248401 C0.263859275,66.528806 -0.210895522,65.0880384 0.384946695,63.9065245 L31.4134542,2.36379531 C32.0092964,1.18189765 33.4506397,0.706950959 34.6325373,1.30298507 L79.2153518,23.7928145 C80.3968657,24.3888486 80.8716205,25.8296162 80.2757783,27.0111301 L49.2472708,88.5538593 C48.6514286,89.7357569 47.2100853,90.2107036 46.0281876,89.6144776 Z" id="Path" fill="#D5D6DB"></path>
                <path d="M67.5143923,84.7970789 L13.1426866,84.7970789 C11.8191684,84.7970789 10.7462687,83.7241791 10.7462687,82.400661 L10.7462687,7.53793177 C10.7462687,6.21441365 11.8191684,5.14151386 13.1426866,5.14151386 L67.5143923,5.14151386 C68.8379104,5.14151386 69.9108102,6.21441365 69.9108102,7.53793177 L69.9108102,82.400661 C69.9108102,83.7241791 68.8379104,84.7970789 67.5143923,84.7970789 Z" id="Path" fill="#EAEFF1"></path>
                <path d="M26.4304478,0 L20.8730917,0 C18.8071215,0 17.1266738,1.68044776 17.1266738,3.74641791 L17.1266738,5.14151386 L19.6242217,5.14151386 L19.6242217,3.74641791 C19.6242217,3.05731343 20.1839872,2.49754797 20.8730917,2.49754797 L26.4304478,2.49754797 C27.1195522,2.49754797 27.6793177,3.05731343 27.6793177,3.74641791 L27.6793177,24.9743284 C27.6793177,25.6634328 27.1195522,26.2231983 26.4304478,26.2231983 L23.3706397,26.2231983 C22.6815352,26.2231983 22.1217697,25.6634328 22.1217697,24.9743284 L22.1217697,13.2301919 L19.6242217,13.2301919 L19.6242217,24.9743284 C19.6242217,27.0402985 21.3046695,28.7207463 23.3706397,28.7207463 L26.4304478,28.7207463 C28.4964179,28.7207463 30.1768657,27.0402985 30.1768657,24.9743284 L30.1768657,3.74641791 C30.1768657,1.68044776 28.496226,0 26.4304478,0 Z" id="Path" fill="#64798A"></path>
                <g id="Group" transform="translate(17.270789, 13.816631)" fill="#D5D6DB">
                    <rect id="Rectangle" x="16.8722175" y="0.0381876333" width="29.1615352" height="3.02296375"></rect>
                    <rect id="Rectangle" x="16.8722175" y="11.8811514" width="29.1615352" height="3.02296375"></rect>
                    <rect id="Rectangle" x="0.0819402985" y="23.7204691" width="45.950661" height="3.02296375"></rect>
                    <rect id="Rectangle" x="0.0819402985" y="35.5609382" width="45.950661" height="3.02296375"></rect>
                    <rect id="Rectangle" x="0.0819402985" y="47.4027505" width="45.950661" height="3.02296375"></rect>
                    <rect id="Rectangle" x="0.0819402985" y="59.2409168" width="45.950661" height="3.02296375"></rect>
                </g>
            </g>
            <g id="icon-/-multicolor-/-check" transform="translate(60.000000, 60.000000)">
                <g id="Group">
                    <path d="M40,20.0004195 C40,31.0458653 31.0460533,40 20,40 C8.95478573,40 0,31.0458653 0,20.0004195 C0,8.95413469 8.95478573,0 20,0 C31.0460533,0 40,8.95413469 40,20.0004195 L40,20.0004195 Z" id="Path" fill="#1DD1A1"></path>
                    <path d="M24,0.4 C22.8897044,0.219642167 21.7483272,0 20.5845027,0 C9.21649049,0 0,8.95413469 0,19.9995805 C0,31.0458653 9.21649049,40 20.5845027,40 C21.7483272,40 22.8897044,39.7803578 24,39.6 C14.2577166,38.0187237 6.83185838,29.9150642 6.83185838,20.0004195 C6.83185838,10.084936 14.2577166,1.9812765 24,0.4 Z" id="Path" fill="#15BA8B"></path>
                    <path d="M27.1893468,14.4818402 L17.644611,24.0254414 L12.8106535,19.1920585 C12.1672908,18.5496045 11.1252603,18.5496045 10.4818976,19.1920585 C9.83936746,19.8345121 9.83936746,20.8772514 10.4818976,21.5197051 L16.4802331,27.5173273 C16.8014981,27.8385543 17.2234707,28 17.644611,28 C18.0657511,28 18.4868915,27.8385543 18.8089889,27.5173273 L29.5181024,16.809487 C30.1606325,16.1670332 30.1606325,15.1242942 29.5181024,14.4818402 C28.87474,13.8393866 27.8327092,13.8393866 27.1893468,14.4818402 L27.1893468,14.4818402 Z" id="Path" fill="#FFFFFF"></path>
                </g>
            </g>
        </g>
    </g>
</svg>