<svg xmlns="http://www.w3.org/2000/svg" width="100" height="100" viewBox="0 0 100 100">
    <g fill="none">
        <path fill="#FECB5B" d="M.491 28.784c-.307.399-.491.897-.491 1.44v47.408c0 .691.298 1.31.77 1.744.42.386.98.624 1.598.624h74.616c.616 0 1.176-.238 1.598-.624.471-.433.769-1.053.769-1.744V30.223c0-.542-.185-1.04-.491-1.44-.433-.563-1.112-.927-1.876-.927H2.368c-.766 0-1.444.364-1.877.928" transform="translate(10 10)"/>
        <path fill="#F4B537" d="M78.4 28.326L41.092.471c-.84-.628-1.993-.628-2.833 0L.951 28.326c-.817.61-1.152 1.676-.83 2.643.322.968 1.227 1.622 2.247 1.622h74.616c1.02 0 1.925-.654 2.246-1.622.321-.967-.013-2.032-.83-2.643z" transform="translate(10 10)"/>
        <path fill="#FECA57" d="M38.26.47L.95 28.327c-.816.61-1.15 1.676-.83 2.643.323.968 1.228 1.622 2.248 1.622h37.307V0c-.498 0-.996.157-1.416.47z" transform="translate(10 10)"/>
        <path fill="#F4A22A" d="M42.84 56.425l36.02-27.641c-.433-.564-1.112-.928-1.876-.928H2.368c-.766 0-1.444.364-1.877.928l36.02 27.64c1.866 1.433 4.463 1.433 6.33 0z" transform="translate(10 10)"/>
        <path fill="#F4B537" d="M2.368 27.856c-.766 0-1.444.364-1.877.928l36.02 27.64c.933.717 2.049 1.075 3.164 1.075V27.856H2.368z" transform="translate(10 10)"/>
        <path fill="#E3E4E8" d="M62.415 24.373H16.936c-1.307 0-2.368 1.06-2.368 2.367v43.764c0 1.307 1.06 2.367 2.368 2.367h45.48c1.307 0 2.366-1.06 2.366-2.367V26.74c0-1.307-1.06-2.367-2.367-2.367z" transform="translate(10 10)"/>
        <path fill="#F9FAFA" d="M16.936 24.373c-1.307 0-2.368 1.06-2.368 2.367v43.764c0 1.307 1.06 2.367 2.368 2.367h22.74V24.373h-22.74z" transform="translate(10 10)"/>
        <path fill="#FECA57" d="M79.35 77.632V30.223c0-.542-.184-1.04-.49-1.44l-27.39 21.02 27.112 29.573c.471-.433.769-1.053.769-1.744z" transform="translate(10 10)"/>
        <path fill="#FCD486" d="M.491 28.784c-.307.399-.491.897-.491 1.44v47.408c0 .691.298 1.31.77 1.744L27.88 49.803.491 28.783z" transform="translate(10 10)"/>
        <path fill="#F4B537" d="M51.47 49.803l-8.63 6.622c-1.866 1.432-4.463 1.432-6.33 0l-8.629-6.622L.77 79.376c.42.386.98.624 1.598.624h74.616c.616 0 1.176-.238 1.598-.624L51.47 49.803z" transform="translate(10 10)"/>
        <path fill="#FECA57" d="M36.51 56.425l-8.629-6.622L.77 79.376c.42.386.98.624 1.598.624h37.307V57.5c-1.115 0-2.231-.359-3.164-1.075z" transform="translate(10 10)"/>
        <path fill="#8D92A1" d="M49.006 38.548h-18.66c-1.308 0-2.367-1.06-2.367-2.368 0-1.307 1.06-2.367 2.366-2.367h18.66c1.308 0 2.368 1.06 2.368 2.367 0 1.308-1.06 2.368-2.367 2.368zM44.863 47.655H34.488c-1.307 0-2.368-1.06-2.368-2.368 0-1.307 1.06-2.367 2.368-2.367h10.375c1.308 0 2.367 1.06 2.367 2.367 0 1.308-1.06 2.368-2.367 2.368z" transform="translate(10 10)"/>
        <g fill="#C6C9D0">
            <path d="M2.377.063C1.069.063.01 1.123.01 2.43c0 1.308 1.06 2.368 2.367 2.368h9.33V.063h-9.33zM4.152 11.537c0 1.308 1.06 2.368 2.367 2.368h5.188V9.17H6.519c-1.307 0-2.367 1.06-2.367 2.367z" transform="translate(10 10) translate(27.969 33.75)"/>
        </g>
    </g>
</svg>
