<svg xmlns="http://www.w3.org/2000/svg" width="80" height="80" viewBox="0 0 80 80">
    <g fill="none">
        <circle cx="40" cy="40" r="40" fill="#E24C4B"/>
        <path fill="#D1403F" d="M80 39.579C80 61.81 61.81 80 39.579 80 26.695 80 15.326 73.347 8 64c6.821 5.558 15.663 9.684 25.263 9.684 22.232 0 40.421-18.19 40.421-40.42 0-9.6-4.126-18.443-9.684-25.264 9.347 7.326 16 18.694 16 31.579z"/>
        <path fill="#FFF" d="M58.839 58.839c-1.549 1.548-4.13 1.548-5.678 0L40 45.677 26.839 58.84c-1.549 1.548-4.13 1.548-5.678 0-1.548-1.549-1.548-4.13 0-5.678L34.323 40 21.16 26.839c-1.548-1.549-1.548-4.13 0-5.678 1.549-1.548 4.13-1.548 5.678 0L40 34.323 53.161 21.16c1.549-1.548 4.13-1.548 5.678 0 1.548 1.549 1.548 4.13 0 5.678L45.677 40 58.84 53.161c1.548 1.549 1.548 4.13 0 5.678z"/>
    </g>
</svg>
