<?xml version="1.0" encoding="UTF-8"?>
<svg width="24px" height="24px" viewBox="0 0 24 24" version="1.1" xmlns="http://www.w3.org/2000/svg" xmlns:xlink="http://www.w3.org/1999/xlink">
    <title>5E8E664B-0466-4813-B972-9A14411EC8F4</title>
    <g id="details-v2" stroke="none" stroke-width="1" fill="none" fill-rule="evenodd">
        <g id="7.-quotation-details-1.2---hiring-req" transform="translate(-275.000000, -218.000000)" fill="#38C8E7">
            <g id="alert-/-light-/-info" transform="translate(260.000000, 210.000000)">
                <g id="componenet/alert/">
                    <g id="icon-/-fill-/-info" transform="translate(15.000000, 8.000000)">
                        <path d="M12,3 C7.03746404,3 3,7.03746404 3,12 C3,16.962536 7.03746404,21 12,21 C16.962536,21 21,16.962536 21,12 C21,7.03746404 16.9625016,3 12,3 Z M12.5854234,17.3399194 C12.1578411,17.4112003 11.3070373,17.5892308 10.8749914,17.6250086 C10.5092821,17.6552927 10.1641742,17.445948 9.95379943,17.1454421 C9.74287535,16.8449706 9.69233322,16.4604453 9.81755545,16.1154747 L11.5187854,11.4375129 L9.74998283,11.4375129 C9.74847206,10.4627572 10.4796161,9.74603423 11.4147483,9.47097109 C11.8610092,9.33967145 12.6924477,9.15999283 13.1249742,9.18753004 C13.3841056,9.20401117 13.8357915,9.36659062 14.0461662,9.6670965 C14.2570903,9.96756804 14.3076324,10.3520933 14.1824102,10.6970639 L12.4811802,15.3750258 L14.2494335,15.3750258 C14.2497768,16.3486483 13.5458954,17.1798465 12.5854234,17.3399194 L12.5854234,17.3399194 Z M13.1249742,8.62500858 C12.5036358,8.62500858 11.9999657,8.12126981 11.9999657,7.5 C11.9999657,6.87866152 12.5036358,6.37499142 13.1249742,6.37499142 C13.7463127,6.37499142 14.2499828,6.87866152 14.2499828,7.5 C14.2499828,8.12130415 13.7463471,8.62500858 13.1249742,8.62500858 Z" id="Shape"></path>
                    </g>
                </g>
            </g>
        </g>
    </g>
</svg>