<svg xmlns="http://www.w3.org/2000/svg" width="100" height="100" viewBox="0 0 100 100">
    <g fill="none">
        <path fill="#DDFAFF" d="M48.032 20.198V6.281H5.054v13.917c0 9.76 6.507 18 15.42 20.619 1.857.545 3.135 2.246 3.135 4.182V45c0 1.936-1.278 3.637-3.135 4.182-8.913 2.62-15.42 10.859-15.42 20.619V84.22h42.978v-14.42c0-9.76-6.509-18-15.423-20.618-1.858-.546-3.136-2.247-3.136-4.183s1.278-3.637 3.136-4.183C41.523 38.2 48.032 29.96 48.032 20.198z" transform="translate(23 5)"/>
        <path fill="#98EFFF" d="M32.609 40.817C41.523 38.2 48.032 29.96 48.032 20.198V6.281h-6.204v13.917c0 9.761-3.235 18.001-12.149 20.62-1.858.545-3.136 2.246-3.136 4.182 0 1.936 1.278 3.637 3.136 4.183C38.593 51.8 41.827 60.04 41.827 69.802V84.22h6.205v-14.42c0-9.76-6.509-18-15.423-20.618-1.858-.546-3.136-2.247-3.136-4.183s1.278-3.637 3.136-4.183z" transform="translate(23 5)"/>
        <path fill="#BB706A" d="M47.428 7.583H5.658C2.629 7.583.174 5.128.174 2.1V0h52.738v2.1c0 3.028-2.455 5.483-5.484 5.483z" transform="translate(23 5)"/>
        <path fill="#A55B5B" d="M40.963 0v1.933c0 3.12-2.53 5.65-5.65 5.65h11.949c3.12 0 5.65-2.53 5.65-5.65V0h-11.95z" transform="translate(23 5)"/>
        <path fill="#BB706A" d="M5.658 82.417h41.77c3.029 0 5.484 2.455 5.484 5.484V90H.174v-2.1c0-3.028 2.455-5.483 5.484-5.483z" transform="translate(23 5)"/>
        <path fill="#A55B5B" d="M47.262 82.417h-10.27c3.12 0 5.65 2.53 5.65 5.65V90h10.27v-1.933c0-3.12-2.53-5.65-5.65-5.65z" transform="translate(23 5)"/>
        <g fill="#FFC76D">
            <path d="M16.172 21.363c-8.891 0-16.1-7.208-16.1-16.099v.071c1.517.65 3.933 1.46 6.876 1.379 8.376-.228 12.14-7.415 18.257-6.495C26.99.487 31.9 2.048 32.27 5.335c-.002-.023 0-.047 0-.07 0 8.89-7.208 16.098-16.1 16.098zM16.172 58.39c4.92 0 8.908 3.99 8.908 8.91v-.04H7.263v.04c0-4.92 3.989-8.91 8.909-8.91z" transform="translate(23 5) translate(10.371 15.117)"/>
            <path d="M16.172 20.005c-.75 0-1.359.608-1.359 1.358v3.658c0 .75.608 1.358 1.359 1.358.75 0 1.358-.608 1.358-1.358v-3.658c0-.75-.608-1.358-1.358-1.358zM16.172 34.031c-.75 0-1.359.608-1.359 1.359v2.34c0 .75.608 1.358 1.359 1.358.75 0 1.358-.609 1.358-1.359v-2.34c0-.75-.608-1.358-1.358-1.358zM16.172 41.31c-.75 0-1.359.608-1.359 1.358v.508c0 .75.608 1.359 1.359 1.359.75 0 1.358-.608 1.358-1.359v-.508c0-.75-.608-1.358-1.358-1.358zM16.172 50.683c-.75 0-1.359.608-1.359 1.358v6.254c0 .75.608 1.358 1.359 1.358.75 0 1.358-.608 1.358-1.358V52.04c0-.75-.608-1.358-1.358-1.358z" transform="translate(23 5) translate(10.371 15.117)"/>
        </g>
    </g>
</svg>
