<svg xmlns="http://www.w3.org/2000/svg" width="20" height="20" viewBox="0 0 20 20">
    <path fill="#FA5252" fill-rule="evenodd" d="M10 3.067c1.267 0 2.439.316 3.517.95 1.044.6 1.866 1.422 2.466 2.466.634 1.078.95 2.25.95 3.517s-.316 2.439-.95 3.517c-.6 1.044-1.422 1.866-2.466 2.466-1.078.634-2.25.95-3.517.95-1.256 0-2.422-.316-3.5-.95-1.044-.61-1.872-1.439-2.483-2.483-.634-1.078-.95-2.244-.95-3.5 0-1.256.316-2.422.95-3.5.6-1.044 1.422-1.872 2.466-2.483 1.078-.634 2.25-.95 3.517-.95zm0 1.366c-1 0-1.933.256-2.8.767-.844.489-1.511 1.156-2 2-.511.867-.767 1.8-.767 2.8 0 1 .256 1.933.767 2.8.489.844 1.156 1.511 2 2 .867.511 1.8.767 2.8.767 1 0 1.933-.256 2.8-.767.844-.489 1.511-1.156 2-2 .511-.867.767-1.8.767-2.8 0-1-.256-1.933-.767-2.8-.489-.844-1.156-1.511-2-2-.867-.511-1.8-.767-2.8-.767zm.683 7.65v1.4H9.317v-1.4h1.366zm0-5.566v4.166H9.317V6.517h1.366z"/>
</svg>
