<svg xmlns="http://www.w3.org/2000/svg" width="16" height="16" viewBox="0 0 16 16">
    <path fill="#38C8E7" fill-rule="evenodd" d="M8 13.547c1.013 0 1.951-.254 2.813-.76.836-.48 1.494-1.138 1.974-1.974.506-.862.76-1.8.76-2.813 0-1.013-.254-1.951-.76-2.813-.48-.836-1.138-1.494-1.974-1.974-.862-.506-1.8-.76-2.813-.76-1.004 0-1.938.254-2.8.76-.836.49-1.498 1.151-1.987 1.987-.506.862-.76 1.796-.76 2.8 0 1.004.254 1.938.76 2.8.48.836 1.138 1.498 1.974 1.987.862.506 1.8.76 2.813.76zm0-1.094c-.8 0-1.547-.204-2.24-.613-.676-.391-1.209-.924-1.6-1.6-.409-.693-.613-1.44-.613-2.24 0-.8.204-1.547.613-2.24.391-.676.924-1.209 1.6-1.6.693-.409 1.44-.613 2.24-.613.8 0 1.547.204 2.24.613.676.391 1.209.924 1.6 1.6.409.693.613 1.44.613 2.24 0 .8-.204 1.547-.613 2.24-.391.676-.924 1.209-1.6 1.6-.693.409-1.44.613-2.24.613zm.547-6.12v-1.12H7.453v1.12h1.094zm0 4.454V7.453H7.453v3.334h1.094z"/>
</svg>
