<svg xmlns="http://www.w3.org/2000/svg" width="100" height="100" viewBox="0 0 100 100">
    <g fill="none">
        <g>
            <path fill="#F4B537" d="M79.086 16.675V2.571c0-1.415-1.138-2.571-2.53-2.571h-66.27c-1.39 0-2.529 1.156-2.529 2.57v14.105h71.329z" transform="translate(0 3)"/>
            <path fill="#EAA01C" d="M16.263 0h-5.976c-1.392 0-2.53 1.156-2.53 2.57v14.105h5.977V2.571c0-1.415 1.138-2.571 2.53-2.571z" transform="translate(0 3)"/>
            <path fill="#FECA57" d="M64.766 16.675l14.32-14.104c0-1.415-1.138-2.571-2.53-2.571h-66.27c-1.39 0-2.529 1.156-2.529 2.57l14.32 14.105h42.689z" transform="translate(0 3)"/>
            <path fill="#F4B537" d="M7.757 2.57l5.977 5.888V2.571c0-1.415 1.138-2.571 2.53-2.571h-5.977c-1.392 0-2.53 1.156-2.53 2.57z" transform="translate(0 3)"/>
            <path fill="#FECA57" d="M63.205 75.008c0-9.888 8.015-17.903 17.902-17.903 2.007 0 3.936.33 5.737.938V19.487c0-1.693-1.386-3.079-3.08-3.079H3.08c-1.695 0-3.08 1.386-3.08 3.08v53.594c0 1.694 1.385 3.079 3.08 3.079h60.162c-.024-.381-.037-.766-.037-1.153z" transform="translate(0 3)"/>
            <path fill="#F4B537" d="M5.977 73.082V19.487c0-1.693 1.386-3.079 3.08-3.079H3.08c-1.695 0-3.08 1.386-3.08 3.08v53.594c0 1.694 1.385 3.079 3.08 3.079h5.976c-1.693 0-3.08-1.385-3.08-3.079z" transform="translate(0 3)"/>
            <path fill="#F4B537" d="M63.205 75.008c0-6.802 3.792-12.717 9.378-15.748L59.195 46.285l-6.54 6.337c-5.145 4.988-13.321 4.988-18.467 0l-6.54-6.337L0 73.082c0 1.694 1.385 3.079 3.08 3.079h60.162c-.024-.381-.037-.766-.037-1.153z" transform="translate(0 3)"/>
            <path fill="#EAA01C" d="M31.812 50.32l-4.163-4.035L0 73.082c0 1.694 1.385 3.079 3.08 3.079h2.068l26.664-25.842z" transform="translate(0 3)"/>
            <path fill="#FCD486" d="M83.764 16.408H3.08c-1.695 0-3.08 1.386-3.08 3.08L34.188 53.02c5.146 4.987 13.322 4.987 18.467 0l34.189-33.534c0-1.693-1.386-3.079-3.08-3.079z" transform="translate(0 3)"/>
            <path fill="#FECA57" d="M0 19.487l5.977 5.863v-5.863c0-1.693 1.386-3.079 3.08-3.079H3.08c-1.695 0-3.08 1.386-3.08 3.08z" transform="translate(0 3)"/>
        </g>
        <g>
            <path fill="#1DD1A1" d="M40 20c0 11.046-8.954 20-20 20C8.955 40 0 31.046 0 20S8.955 0 20 0c11.046 0 20 8.954 20 20z" transform="translate(60 57)"/>
            <path fill="#15BA8B" d="M24 .4C22.89.22 21.748 0 20.585 0 9.216 0 0 8.954 0 20s9.216 20 20.585 20c1.163 0 2.305-.22 3.415-.4C14.258 38.019 6.832 29.915 6.832 20 6.832 10.085 14.258 1.981 24 .4z" transform="translate(60 57)"/>
            <path fill="#FFF" d="M27.19 14.482l-9.545 9.543-4.834-4.833c-.644-.642-1.686-.642-2.33 0-.642.643-.642 1.685 0 2.328l6 5.997c.32.322.742.483 1.164.483.42 0 .842-.161 1.164-.483l10.71-10.708c.642-.642.642-1.685 0-2.327-.644-.643-1.686-.643-2.33 0z" transform="translate(60 57)"/>
        </g>
    </g>
</svg>
