<svg xmlns="http://www.w3.org/2000/svg" width="100" height="100" viewBox="0 0 100 100">
    <g fill="none">
        <g>
            <path fill="#F4B537" d="M79.086 16.675V2.571c0-1.415-1.138-2.571-2.53-2.571h-66.27c-1.39 0-2.529 1.156-2.529 2.57v14.105h71.329z" transform="translate(0 3)"/>
            <path fill="#EAA01C" d="M16.263 0h-5.976c-1.392 0-2.53 1.156-2.53 2.57v14.105h5.977V2.571c0-1.415 1.138-2.571 2.53-2.571z" transform="translate(0 3)"/>
            <path fill="#FECA57" d="M64.766 16.675l14.32-14.104c0-1.415-1.138-2.571-2.53-2.571h-66.27c-1.39 0-2.529 1.156-2.529 2.57l14.32 14.105h42.689z" transform="translate(0 3)"/>
            <path fill="#F4B537" d="M7.757 2.57l5.977 5.888V2.571c0-1.415 1.138-2.571 2.53-2.571h-5.977c-1.392 0-2.53 1.156-2.53 2.57z" transform="translate(0 3)"/>
            <path fill="#FECA57" d="M63.205 75.008c0-9.888 8.015-17.903 17.902-17.903 2.007 0 3.936.33 5.737.938V19.487c0-1.693-1.386-3.079-3.08-3.079H3.08c-1.695 0-3.08 1.386-3.08 3.08v53.594c0 1.694 1.385 3.079 3.08 3.079h60.162c-.024-.381-.037-.766-.037-1.153z" transform="translate(0 3)"/>
            <path fill="#F4B537" d="M5.977 73.082V19.487c0-1.693 1.386-3.079 3.08-3.079H3.08c-1.695 0-3.08 1.386-3.08 3.08v53.594c0 1.694 1.385 3.079 3.08 3.079h5.976c-1.693 0-3.08-1.385-3.08-3.079z" transform="translate(0 3)"/>
            <path fill="#F4B537" d="M63.205 75.008c0-6.802 3.792-12.717 9.378-15.748L59.195 46.285l-6.54 6.337c-5.145 4.988-13.321 4.988-18.467 0l-6.54-6.337L0 73.082c0 1.694 1.385 3.079 3.08 3.079h60.162c-.024-.381-.037-.766-.037-1.153z" transform="translate(0 3)"/>
            <path fill="#EAA01C" d="M31.812 50.32l-4.163-4.035L0 73.082c0 1.694 1.385 3.079 3.08 3.079h2.068l26.664-25.842z" transform="translate(0 3)"/>
            <path fill="#FCD486" d="M83.764 16.408H3.08c-1.695 0-3.08 1.386-3.08 3.08L34.188 53.02c5.146 4.987 13.322 4.987 18.467 0l34.189-33.534c0-1.693-1.386-3.079-3.08-3.079z" transform="translate(0 3)"/>
            <path fill="#FECA57" d="M0 19.487l5.977 5.863v-5.863c0-1.693 1.386-3.079 3.08-3.079H3.08c-1.695 0-3.08 1.386-3.08 3.08z" transform="translate(0 3)"/>
        </g>
        <g transform="translate(60 57)">
            <circle cx="20" cy="20" r="20" fill="#E24C4B"/>
            <path fill="#D1403F" d="M40 19.79C40 30.904 30.905 40 19.79 40 13.346 40 7.662 36.674 4 32c3.41 2.779 7.832 4.842 12.632 4.842 11.115 0 20.21-9.095 20.21-20.21C36.842 11.832 34.78 7.41 32 4c4.674 3.663 8 9.347 8 15.79z"/>
            <path fill="#FFF" d="M29.42 29.42c-.775.774-2.065.774-2.84 0L20 22.838l-6.58 6.58c-.775.775-2.065.775-2.84 0-.774-.774-.774-2.064 0-2.838L17.162 20l-6.58-6.58c-.775-.775-.775-2.065 0-2.84.774-.774 2.064-.774 2.838 0L20 17.162l6.58-6.58c.775-.775 2.065-.775 2.84 0 .774.774.774 2.064 0 2.838L22.838 20l6.58 6.58c.775.775.775 2.065 0 2.84z"/>
        </g>
    </g>
</svg>
