<?xml version="1.0" encoding="UTF-8"?>
<svg width="100px" height="100px" viewBox="0 0 100 100" version="1.1" xmlns="http://www.w3.org/2000/svg" xmlns:xlink="http://www.w3.org/1999/xlink">
    <title>76B95697-59A2-4917-A355-5E2494E278F7</title>
    <g id="details-v2" stroke="none" stroke-width="1" fill="none" fill-rule="evenodd">
        <g id="1.-b2b-tender-list-1.2---empty" transform="translate(-705.000000, -210.000000)" fill-rule="nonzero">
            <g id="table-/-empty-list" transform="translate(270.000000, 160.000000)">
                <g id="Group" transform="translate(100.000000, 50.000000)">
                    <g id="illustration-/-general-/-list" transform="translate(335.000000, 0.000000)">
                        <g id="check-box" transform="translate(14.000000, 0.000000)">
                            <path d="M56.7986509,0 L3.44231294,0 C1.5412905,0 0,1.54070173 0,3.44143333 L0,96.3611079 C0,98.2616446 1.5412905,99.8025412 3.44231294,99.8025412 L68.8468437,99.8025412 C70.7478661,99.8025412 72.2891566,98.2616446 72.2891566,96.3611079 L72.2891566,15.4865474 L56.7986509,0 Z" id="Path" fill="#F0F3FA"></path>
                            <path d="M72.1681782,15.5391899 L58.625408,15.5391899 C57.5568622,15.5391899 56.6907265,14.6695992 56.6907265,13.5967912 L56.6907265,0 L72.1681782,15.5391899 Z" id="Path" fill="#D7DEED"></path>
                            <g id="Group-2" transform="translate(9.638554, 19.230769)">
                                <path d="M15.4776464,17.2660491 L1.71980343,17.2660491 C0.770093221,17.2660491 6.03961325e-14,16.492884 6.03961325e-14,15.5393855 L6.03961325e-14,1.72666358 C6.03961325e-14,0.773165059 0.770093221,6.64357458e-13 1.71980343,6.64357458e-13 L15.4776464,6.64357458e-13 C16.4273566,6.64357458e-13 17.1974499,0.773165059 17.1974499,1.72666358 L17.1974499,15.5393855 C17.197255,16.4930796 16.4273566,17.2660491 15.4776464,17.2660491 Z" id="Path" fill="#D7DEED"></path>
                                <path d="M49.5579501,3.49631992 L23.9535887,3.49631992 C22.9970482,3.49631992 22.2214166,2.71859341 22.2214166,1.75946953 C22.2214166,0.800345645 22.9970482,0.0226191399 23.9535887,0.0226191399 L49.5579501,0.0226191399 C50.5144906,0.0226191399 51.2901223,0.800345645 51.2901223,1.75946953 C51.2901223,2.71859341 50.5144906,3.49631992 49.5579501,3.49631992 Z" id="Path" fill="#AFB9D2"></path>
                                <path d="M43.8303873,10.4373899 L23.9629712,10.4373899 C23.0015362,10.4373899 22.2219357,9.63361515 22.2219357,8.6423675 C22.2219357,7.65111985 23.0015362,6.84734509 23.9629712,6.84734509 L43.8303873,6.84734509 C44.7918223,6.84734509 45.5714229,7.65111985 45.5714229,8.6423675 C45.5714229,9.63361515 44.7918223,10.4373899 43.8303873,10.4373899 Z" id="Path" fill="#D7DEED"></path>
                            </g>
                            <g id="Group-2-Copy" transform="translate(9.638554, 46.153846)">
                                <path d="M15.4776464,17.2660491 L1.71980343,17.2660491 C0.770093221,17.2660491 6.03961325e-14,16.492884 6.03961325e-14,15.5393855 L6.03961325e-14,1.72666358 C6.03961325e-14,0.773165059 0.770093221,6.64357458e-13 1.71980343,6.64357458e-13 L15.4776464,6.64357458e-13 C16.4273566,6.64357458e-13 17.1974499,0.773165059 17.1974499,1.72666358 L17.1974499,15.5393855 C17.197255,16.4930796 16.4273566,17.2660491 15.4776464,17.2660491 Z" id="Path" fill="#D7DEED"></path>
                                <path d="M49.5579501,3.49631992 L23.9535887,3.49631992 C22.9970482,3.49631992 22.2214166,2.71859341 22.2214166,1.75946953 C22.2214166,0.800345645 22.9970482,0.0226191399 23.9535887,0.0226191399 L49.5579501,0.0226191399 C50.5144906,0.0226191399 51.2901223,0.800345645 51.2901223,1.75946953 C51.2901223,2.71859341 50.5144906,3.49631992 49.5579501,3.49631992 Z" id="Path" fill="#AFB9D2"></path>
                                <path d="M43.8303873,10.4373899 L23.9629712,10.4373899 C23.0015362,10.4373899 22.2219357,9.63361515 22.2219357,8.6423675 C22.2219357,7.65111985 23.0015362,6.84734509 23.9629712,6.84734509 L43.8303873,6.84734509 C44.7918223,6.84734509 45.5714229,7.65111985 45.5714229,8.6423675 C45.5714229,9.63361515 44.7918223,10.4373899 43.8303873,10.4373899 Z" id="Path" fill="#D7DEED"></path>
                            </g>
                            <g id="Group-2-Copy-2" transform="translate(9.638554, 73.076923)">
                                <path d="M15.4776464,17.2660491 L1.71980343,17.2660491 C0.770093221,17.2660491 6.03961325e-14,16.492884 6.03961325e-14,15.5393855 L6.03961325e-14,1.72666358 C6.03961325e-14,0.773165059 0.770093221,6.64357458e-13 1.71980343,6.64357458e-13 L15.4776464,6.64357458e-13 C16.4273566,6.64357458e-13 17.1974499,0.773165059 17.1974499,1.72666358 L17.1974499,15.5393855 C17.197255,16.4930796 16.4273566,17.2660491 15.4776464,17.2660491 Z" id="Path" fill="#D7DEED"></path>
                                <path d="M49.5579501,3.49631992 L23.9535887,3.49631992 C22.9970482,3.49631992 22.2214166,2.71859341 22.2214166,1.75946953 C22.2214166,0.800345645 22.9970482,0.0226191399 23.9535887,0.0226191399 L49.5579501,0.0226191399 C50.5144906,0.0226191399 51.2901223,0.800345645 51.2901223,1.75946953 C51.2901223,2.71859341 50.5144906,3.49631992 49.5579501,3.49631992 Z" id="Path" fill="#AFB9D2"></path>
                                <path d="M43.8303873,10.4373899 L23.9629712,10.4373899 C23.0015362,10.4373899 22.2219357,9.63361515 22.2219357,8.6423675 C22.2219357,7.65111985 23.0015362,6.84734509 23.9629712,6.84734509 L43.8303873,6.84734509 C44.7918223,6.84734509 45.5714229,7.65111985 45.5714229,8.6423675 C45.5714229,9.63361515 44.7918223,10.4373899 43.8303873,10.4373899 Z" id="Path" fill="#D7DEED"></path>
                            </g>
                        </g>
                    </g>
                </g>
            </g>
        </g>
    </g>
</svg>