<?xml version="1.0" encoding="UTF-8"?>
<svg width="120px" height="100px" viewBox="0 0 120 100" version="1.1" xmlns="http://www.w3.org/2000/svg" xmlns:xlink="http://www.w3.org/1999/xlink">
    <!-- Generator: sketchtool 61.2 (101010) - https://sketch.com -->
    <title>1EB7D4B1-CDC8-4E6A-B4C5-12FA20E04CF3</title>
    <desc>Created with sketchtool.</desc>
    <g id="number-verify" stroke="none" stroke-width="1" fill="none" fill-rule="evenodd">
        <g id="number-verify-1.3---eligible" transform="translate(-652.000000, -170.000000)" fill-rule="nonzero">
            <g id="modal" transform="translate(435.000000, 120.000000)">
                <g id="illustration" transform="translate(217.000000, 50.000000)">
                    <g id="login">
                        <path d="M64.5251462,20.47154 L64.5251462,85.1888889 C64.5251462,86.802924 63.2152047,88.1128655 61.6011696,88.1128655 L32.3614035,88.1128655 C30.7473684,88.1128655 29.4374269,86.802924 29.4374269,85.1888889 L29.4374269,20.47154 C29.4374269,18.8575049 30.7473684,17.5475634 32.3614035,17.5475634 L61.6011696,17.5475634 C63.2152047,17.5475634 64.5251462,18.8575049 64.5251462,20.47154 Z" id="Path" fill="#E8E8E8"></path>
                        <path d="M63.634375,37.6635069 L47.5,37.6635069 C45.19375,37.6635069 43.365625,35.6519927 43.50625,33.2617996 C43.5125,33.1541019 43.515625,33.0498784 43.515625,32.9421808 L43.515625,32.8865949 C43.503125,30.4616606 45.403125,28.4814135 47.740625,28.4814135 L50,28.4814135 C52.7875,28.4814135 55.05,26.1363839 55.05,23.2424438 C55.05,20.3485036 52.7875,18 50,18 L35,18 C32.2385763,18 30,20.2385763 30,23 L30,81.0517644 L30,81.0517644 C30,84.8906645 32.796875,88 36.25,88 L49.6125,88 C52.490625,88 54.809375,85.4986352 54.65625,82.4761527 C54.5125,79.6412725 52.0625,77.5185865 49.328125,77.5185865 L45.153125,77.5185865 C42.7125,77.5185865 40.89375,75.3924264 40.921875,72.8597945 C40.921875,72.8389498 40.921875,72.8181051 40.921875,72.7972604 C40.921875,72.7764157 40.921875,72.755571 40.921875,72.7347263 C40.89375,70.2020944 42.7125,68.0759343 45.153125,68.0759343 L55.515625,68.0759343 C58.39375,68.0759343 60.7125,65.5745695 60.559375,62.552087 C60.415625,59.7172068 57.965625,57.5945208 55.23125,57.5945208 L49.70625,57.5945208 C47.2375,57.5945208 45.228125,55.4961537 45.240625,52.9357288 L45.240625,52.8731947 L45.2375,52.5709464 C45.221875,50.1355899 47.121875,48.1518686 49.471875,48.1518686 L63.91875,48.1518686 C66.796875,48.1518686 79.115625,45.6505037 78.9625,42.6280212 C78.821875,39.7861929 66.36875,37.6635069 63.634375,37.6635069 Z" id="Path" fill="#CACACA" opacity="0.404805"></path>
                        <path d="M98.1859649,17.8536062 L62.9033138,0.309746589 C60.9559454,-0.659064327 58.677193,0.763937622 58.677193,2.92768031 L58.677193,96.8847953 C58.677193,98.8769981 60.6304094,100.286355 62.5212476,99.6606238 L97.8038986,87.9647173 C99.0007797,87.5670565 99.8077973,86.4500975 99.8077973,85.1888889 L99.8077973,20.47154 C99.8077973,19.3623782 99.180117,18.3467836 98.1859649,17.8536062 Z" id="Path" fill="#4B9FD8"></path>
                        <path d="M99.8077973,49.9062378 L99.8077973,85.1888889 C99.8077973,86.4500975 99.0007797,87.5670565 97.8038986,87.9647173 L62.5212476,99.6606238 C60.6304094,100.286355 58.677193,98.8769981 58.677193,96.8847953 L58.677193,49.9062378 C66.8923977,47.3020793 72.1666667,46.3333333 74.5,47 C78,47.5 81,53.5 86.5,54.5 C90.4686924,55.2215804 94.9046249,53.6903264 99.8077973,49.9062378 Z" id="Path" fill="#3789C9"></path>
                        <path d="M76.2210526,44.0582846 L76.2210526,55.754191 C76.2210526,57.3682261 74.9111111,58.6781676 73.297076,58.6781676 C71.6830409,58.6781676 70.3730994,57.3682261 70.3730994,55.754191 L70.3730994,44.0582846 C70.3730994,42.4442495 71.6830409,41.134308 73.297076,41.134308 C74.9111111,41.134308 76.2210526,42.4442495 76.2210526,44.0582846 Z" id="Path" fill="#35569B"></path>
                        <path d="M76.22,47.65 L76.2210526,55.754191 C76.2210526,57.3682261 74.9111111,58.6781676 73.297076,58.6781676 C71.6830409,58.6781676 70.3730994,57.3682261 70.3730994,55.754191 L70.37,46.97 C71.79,46.99 72.6666667,47 73,47 C74,47 75.0733333,47.2166667 76.22,47.65 Z" id="Path" fill="#1A3459"></path>
                        <path d="M45.8116959,47.5670565 L22.419883,30.0231969 C20.4939571,28.5787524 17.7415205,29.9588694 17.7415205,32.3623782 L17.7415205,41.134308 L2.92670565,41.134308 C1.31267057,41.134308 0.00272904483,42.4442495 0.00272904483,44.0582846 L0.00272904483,55.754191 C0.00272904483,57.3682261 1.31267057,58.6781676 2.92670565,58.6781676 L17.7415205,58.6781676 L17.7415205,67.4500975 C17.7415205,69.8653021 20.5076023,71.2239766 22.419883,69.7892788 L45.8116959,52.2454191 C46.591423,51.6606238 46.9812865,50.7834308 46.9812865,49.9062378 C46.9812865,49.0290448 46.591423,48.1518519 45.8116959,47.5670565 Z" id="Path" fill="#FFCC5B"></path>
                        <path d="M46.9812865,49.9062378 C46.9812865,50.7834308 46.591423,51.6606238 45.8116959,52.2454191 L22.419883,69.7892788 C20.5076023,71.2239766 17.7415205,69.8653021 17.7415205,67.4500975 L17.7415205,58.6781676 L2.92670565,58.6781676 C1.31267057,58.6781676 0.00272904483,57.3682261 0.00272904483,55.754191 L0.00272904483,49.9062378 L46.9812865,49.9062378 Z" id="Path" fill="#FDBC4B"></path>
                    </g>
                    <g id="tick" transform="translate(80.000000, 60.000000)">
                        <path d="M40,20 C40,31.0458374 31.0458374,40 20,40 C8.95416258,40 0,31.0458374 0,20 C0,8.95416258 8.95416258,0 20,0 C31.0458374,0 40,8.95416258 40,20 Z" id="Path" fill="#60DA89"></path>
                        <path d="M18.5577392,33.5150147 C20.2081298,31.9509888 20.9399414,29.7903442 20.9399414,29.7903442 L18.2800293,27.5320434 C18.2800293,27.5320434 15.0115967,21.2530517 15.0317383,21.2689209 C7.734375,12.782898 13.2434082,1.27746578 13.3056641,1.14776609 C5.55297852,3.90167234 0,11.3027954 0,20 C0,30.2938843 7.77862547,38.7716675 17.77771,39.8779297 C16.4749145,37.9046631 16.7718506,35.2078247 18.5577392,33.5150147 Z" id="Path" fill="#00CE64"></path>
                        <path d="M18.7774658,30.7504273 C18.1542969,30.7504273 17.527771,30.5511475 16.9998169,30.1437378 L7.57171633,22.8710938 C6.29791258,21.8887329 6.06170656,20.0595093 7.04437258,18.7857055 C8.02673344,17.512207 9.85595703,17.2760009 11.1297608,18.2583618 L18.4240723,23.885498 L28.4881592,12.7471923 C29.5666504,11.5536499 31.4083862,11.4602661 32.6022339,12.5390625 C33.7957764,13.6172485 33.8891602,15.4592895 32.8103637,16.652832 L20.9399414,29.7903442 C20.3674316,30.4238891 19.5751953,30.7504273 18.7774658,30.7504273 Z" id="Path" fill="#FFFFFF"></path>
                    </g>
                </g>
            </g>
        </g>
    </g>
</svg>