<?xml version="1.0" encoding="UTF-8"?>
<svg width="96px" height="100px" viewBox="0 0 96 100" version="1.1" xmlns="http://www.w3.org/2000/svg" xmlns:xlink="http://www.w3.org/1999/xlink">
    <!-- Generator: sketchtool 61.2 (101010) - https://sketch.com -->
    <title>73E8E379-CB50-4CE2-97EC-AF4B473BB5DD</title>
    <desc>Created with sketchtool.</desc>
    <g id="number-verify" stroke="none" stroke-width="1" fill="none" fill-rule="evenodd">
        <g id="number-verify-1.2" transform="translate(-688.000000, -170.000000)">
            <g id="modal" transform="translate(435.000000, 120.000000)">
                <g id="pay" transform="translate(253.000000, 50.000000)">
                    <path d="M56.825,100 L6.28125,100 C2.828125,100 0.03125,97.2 0.03125,93.75 L0.03125,6.25 C0.03125,2.796875 2.828125,0 6.28125,0 L56.821875,0 C60.275,0 63.0718776,2.796875 63.0718776,6.25 L63.0718776,93.75 C63.075,97.203125 60.275,100 56.825,100 Z" id="Path" fill="#464646" fill-rule="nonzero"></path>
                    <rect id="Rectangle" fill="#3789C9" fill-rule="nonzero" x="6.28125" y="13.64375" width="50.53125" height="66.746875"></rect>
                    <g id="Group" transform="translate(21.679688, 5.859375)" fill="#6F7070" fill-rule="nonzero">
                        <circle id="Oval" cx="9.8828125" cy="84.3375" r="4.75625"></circle>
                        <path d="M18.8609375,0.09375 L0.8859375,0.09375 C0.4078125,0.09375 0.0171875,0.48125 0.0171875,0.9625 L0.0171875,0.9625 C0.0171875,1.440625 0.4046875,1.83125 0.8859375,1.83125 L18.8609375,1.83125 C19.3390625,1.83125 19.7296875,1.44375 19.7296875,0.9625 L19.7296875,0.9625 C19.7296875,0.484375 19.3390625,0.09375 18.8609375,0.09375 Z" id="Path"></path>
                    </g>
                    <path d="M23.18125,80.390625 C25.940625,80.390625 28.178125,78.153125 28.178125,75.39375 C28.178125,72.634375 25.940625,70.396875 23.18125,70.396875 L16.496875,70.396875 C14.184375,70.396875 12.30625,68.50625 12.31875,66.196875 L12.31875,66.14375 C12.31875,66.040625 12.315625,65.940625 12.309375,65.8375 C12.171875,63.559375 13.978125,61.640625 16.2625,61.640625 L25.115625,61.640625 C27.821875,61.640625 30.246875,59.615625 30.3875,56.9125 C30.5375,54.03125 28.246875,51.646875 25.396875,51.646875 L22.659375,51.646875 C20.3375,51.646875 18.45625,49.75625 18.471875,47.434375 L18.475,47.14375 L18.475,47.084375 C18.459375,44.640625 20.446875,42.640625 22.890625,42.640625 L26.428125,42.640625 C29.134375,42.640625 31.559375,40.615625 31.7,37.9125 C31.85,35.03125 29.559375,32.646875 26.709375,32.646875 L13.9375,32.646875 C11.521875,32.646875 9.721875,30.61875 9.75,28.203125 C9.75,28.184375 9.75,28.1625 9.75,28.14375 C9.75,28.125 9.75,28.103125 9.75,28.084375 C9.721875,25.66875 11.525,23.640625 13.9375,23.640625 L18.06875,23.640625 C20.775,23.640625 23.2,21.615625 23.340625,18.9125 C23.490625,16.03125 21.2,13.646875 18.35,13.646875 L6.28125,13.646875 L6.28125,80.39375 L23.18125,80.39375 L23.18125,80.390625 Z" id="Path" fill="#4B9FD8" fill-rule="nonzero"></path>
                    <g id="Group" opacity="0.15" transform="translate(32.617188, 67.578125)" fill="#010101" fill-rule="nonzero">
                        <path d="M0.0578125,3.253125 L27.9515625,31.15 C29.4640625,30.009375 30.4578125,28.215625 30.4578125,26.175 L30.4578125,0.115625 L0.0578125,3.253125 Z" id="Path"></path>
                    </g>
                    <path d="M29.55,75.4625 C27.825,75.4625 26.425,74.065625 26.425,72.3375 L26.425,21.696875 C26.425,19.96875 27.825,18.571875 29.55,18.571875 C31.275,18.571875 32.675,19.96875 32.675,21.696875 L32.675,72.3375 C32.675,74.065625 31.275,75.4625 29.55,75.4625 Z" id="Path" fill="#2B71B8" fill-rule="nonzero"></path>
                    <g id="sms" transform="translate(33.000000, 30.000000)">
                        <path d="M2.56567383,0.129394531 L59.9348145,0.129394531 C61.3155263,0.129394531 62.4348145,1.24868266 62.4348145,2.62939453 L62.4348145,25.1293945 L62.4348145,25.1293945 L0.0656738281,25.1293945 L0.0656738281,2.62939453 C0.0656738281,1.24868266 1.18496195,0.129394531 2.56567383,0.129394531 Z" id="Rectangle" fill="#F4BD50" fill-rule="nonzero"></path>
                        <path d="M31.2512207,21.5786133 L1.6965332,39.0375977 C2.43481445,39.6313477 3.3605957,40.0004883 4.38208008,40.0004883 L58.1203613,40.0004883 C59.1418457,40.0004883 60.067627,39.6313477 60.8059082,39.0375977 L31.2512207,21.5786133 Z" id="Path" fill="#FFDB70" fill-rule="nonzero"></path>
                        <g id="Group" transform="translate(0.000000, 3.134766)" fill="#FFCC5B" fill-rule="nonzero">
                            <path d="M31.2531738,18.4458008 L1.6887207,35.9262695 C0.696533203,35.1489258 0.0695800781,33.918457 0.0695800781,32.559082 L0.0695800781,0.0161132813 L31.2531738,18.4458008 Z" id="Path"></path>
                            <path d="M62.4348145,0.0161132813 L62.4348145,32.559082 C62.4348145,33.918457 61.8098145,35.1274414 60.8156738,35.9262695 L31.2512207,18.4458008 L62.4348145,0.0161132813 Z" id="Path"></path>
                        </g>
                        <g id="Group" transform="translate(3.417969, 10.336914)" fill="#FFDB70" fill-rule="nonzero">
                            <path d="M2.2355957,9.03466797 C1.04418945,9.03466797 0.0773925781,9.99951172 0.0773925781,11.1928711 L0.0773925781,19.2944336 C0.0773925781,20.487793 1.04418945,21.4526367 2.2355957,21.4526367 C3.42700195,21.4526367 4.39379883,20.487793 4.39379883,19.2944336 L4.39379883,11.1928711 C4.39379883,9.99951172 3.42700195,9.03466797 2.2355957,9.03466797 Z" id="Path"></path>
                            <path d="M2.2355957,0.0854492187 C1.04418945,0.0854492187 0.0773925781,1.05029297 0.0773925781,2.24365234 L0.0773925781,4.77099609 C0.0773925781,5.96435547 1.04418945,6.92919922 2.2355957,6.92919922 C3.42700195,6.92919922 4.39379883,5.96435547 4.39379883,4.77099609 L4.39379883,2.24365234 C4.39379883,1.05029297 3.42700195,0.0854492187 2.2355957,0.0854492187 Z" id="Path"></path>
                        </g>
                        <path d="M60.8059082,16.0004883 L60.8059082,30.7836914 C60.8059082,31.9750977 59.8410645,32.9418945 58.6477051,32.9418945 C57.4543457,32.9418945 56.489502,31.9750977 56.489502,30.7836914 L56.489502,18.1586914 L51.0148926,18.1586914 C49.8215332,18.1586914 48.8566895,17.1918945 48.8566895,16.0004883 C48.8566895,14.809082 49.8215332,13.8422852 51.0148926,13.8422852 L58.6477051,13.8422852 C59.8410645,13.8442383 60.8059082,14.809082 60.8059082,16.0004883 Z" id="Path" fill="#F8C053" fill-rule="nonzero"></path>
                        <path d="M0,3.125 L62.5,3.125 L32.5976342,22.2625141 C31.7761311,22.7882761 30.7238689,22.7882761 29.9023658,22.2625141 L0,3.125 L0,3.125 Z" id="Path-2" fill="#F4BD50"></path>
                    </g>
                </g>
            </g>
        </g>
    </g>
</svg>