<?xml version="1.0" encoding="UTF-8"?>
<svg width="100px" height="100px" viewBox="0 0 100 100" version="1.1" xmlns="http://www.w3.org/2000/svg" xmlns:xlink="http://www.w3.org/1999/xlink">
    <!-- Generator: sketchtool 61.2 (101010) - https://sketch.com -->
    <title>AA26AA6F-E6E4-482C-8C3C-2034A7298BB0</title>
    <desc>Created with sketchtool.</desc>
    <g id="number-verify" stroke="none" stroke-width="1" fill="none" fill-rule="evenodd">
        <g id="number-verify-1.1" transform="translate(-676.000000, -170.000000)" fill-rule="nonzero">
            <g id="modal" transform="translate(435.000000, 120.000000)">
                <g id="browser" transform="translate(241.000000, 50.000000)">
                    <path d="M0.096875,77.290625 C0.096875,80.740625 2.89375,83.540625 6.346875,83.540625 L80.46875,83.540625 C83.91875,83.540625 86.71875,80.740625 86.71875,77.290625 L86.71875,20.95 L0.096875,20.95 L0.096875,77.290625 Z" id="Path" fill="#F3F3F3"></path>
                    <path d="M43.73125,38.51875 L27.596875,38.51875 C25.290625,38.51875 23.4625,36.709375 23.603125,34.559375 C23.609375,34.4625 23.6125,34.36875 23.6125,34.271875 L23.6125,34.221875 C23.6,32.040625 25.5,30.259375 27.8375,30.259375 L30.096875,30.259375 C32.884375,30.259375 35.146875,28.15 35.146875,25.546875 C35.146875,22.94375 32.884375,20.83125 30.096875,20.83125 L0.096875,20.83125 L0.096875,77.546875 C0.096875,81 2.89375,83.796875 6.346875,83.796875 L29.709375,83.796875 C32.5875,83.796875 34.90625,81.546875 34.753125,78.828125 C34.609375,76.278125 32.159375,74.36875 29.425,74.36875 L25.25,74.36875 C22.809375,74.36875 20.990625,72.45625 21.01875,70.178125 C21.01875,70.159375 21.01875,70.140625 21.01875,70.121875 C21.01875,70.103125 21.01875,70.084375 21.01875,70.065625 C20.990625,67.7875 22.809375,65.875 25.25,65.875 L35.6125,65.875 C38.490625,65.875 40.809375,63.625 40.65625,60.90625 C40.5125,58.35625 38.0625,56.446875 35.328125,56.446875 L29.803125,56.446875 C27.334375,56.446875 25.325,54.559375 25.3375,52.25625 L25.3375,52.2 L25.334375,51.928125 C25.31875,49.7375 27.21875,47.953125 29.56875,47.953125 L44.015625,47.953125 C46.89375,47.953125 49.2125,45.703125 49.059375,42.984375 C48.91875,40.428125 46.465625,38.51875 43.73125,38.51875 Z" id="Path" fill="#E8E8E8"></path>
                    <path d="M93.021875,49.45625 C93.021875,39.771875 85.146875,31.896875 75.4625,31.896875 C65.778125,31.896875 57.9,39.775 57.9,49.45625 L57.9,69.95 L61.80625,69.95 L61.80625,49.459375 C61.80625,41.91875 67.91875,35.803125 75.459375,35.803125 C83,35.803125 89.1125,41.915625 89.1125,49.459375 L89.1125,69.95 L93.01875,69.95 L93.01875,49.45625 L93.021875,49.45625 Z" id="Path" fill="#C0BFBF"></path>
                    <path d="M75.4625,35.803125 C67.921875,35.803125 61.809375,41.915625 61.809375,49.459375 L61.809375,69.95 L89.11875,69.95 L89.11875,49.459375 C89.115625,41.915625 83.003125,35.803125 75.4625,35.803125 Z M65.7125,62.134375 L65.7125,49.453125 C65.7125,44.078125 70.084375,39.70625 75.4625,39.70625 C80.8375,39.70625 85.209375,44.078125 85.209375,49.453125 L85.209375,62.134375 L65.7125,62.134375 Z" id="Shape" fill="#CACACA"></path>
                    <path d="M93.596875,60.334375 L57.328125,60.334375 C53.875,60.334375 51.078125,63.13125 51.078125,66.584375 L51.078125,93.6875 C51.078125,97.140625 53.875,99.9375 57.328125,99.9375 L93.596875,99.9375 C97.05,99.9375 99.846875,97.140625 99.846875,93.6875 L99.846875,66.584375 C99.846875,63.134375 97.05,60.334375 93.596875,60.334375 Z" id="Path" fill="#FDBC4B"></path>
                    <path d="M99.828125,93.6875 L99.828125,66.584375 C99.828125,63.13125 97.028125,60.334375 93.578125,60.334375 L85.5375,60.334375 C83.784375,60.334375 82.359375,61.6625 82.359375,63.3 C82.359375,64.9375 83.78125,66.265625 85.5375,66.265625 L86.959375,66.265625 C88.428125,66.265625 89.625,67.3875 89.615625,68.759375 L89.615625,68.790625 C89.615625,68.85 89.61875,68.9125 89.621875,68.971875 C89.709375,70.325 88.559375,71.4625 87.109375,71.4625 L76.9625,71.4625 C75.24375,71.4625 73.7,72.665625 73.609375,74.26875 C73.5125,75.978125 74.96875,77.39375 76.78125,77.39375 L85.86875,77.39375 C87.346875,77.39375 88.540625,78.515625 88.53125,79.89375 L88.53125,80.065625 L88.53125,80.1 C88.540625,81.55 87.278125,82.7375 85.721875,82.7375 L82.25,82.7375 C80.53125,82.7375 78.9875,83.940625 78.896875,85.54375 C78.8,87.253125 80.25625,88.66875 82.06875,88.66875 L88.584375,88.66875 C90.11875,88.66875 91.2625,89.871875 91.246875,91.30625 C91.246875,91.31875 91.246875,91.33125 91.246875,91.340625 C91.246875,91.353125 91.246875,91.3625 91.246875,91.375 C91.265625,92.80625 90.121875,94.0125 88.584375,94.0125 L85.959375,94.0125 C84.240625,94.0125 82.696875,95.215625 82.60625,96.81875 C82.509375,98.528125 83.965625,99.94375 85.778125,99.94375 L93.575,99.94375 C97.03125,99.9375 99.828125,97.140625 99.828125,93.6875 Z" id="Path" fill="#FFCC5B"></path>
                    <path d="M81.525,76.91875 C81.525,73.56875 78.809375,70.853125 75.459375,70.853125 C72.109375,70.853125 69.39375,73.56875 69.39375,76.91875 C69.39375,79.26875 70.746875,81.284375 72.7,82.290625 L71.390625,89.41875 L79.525,89.41875 L78.215625,82.290625 C80.175,81.284375 81.525,79.26875 81.525,76.91875 Z" id="Path" fill="#464646"></path>
                    <path d="M86.71875,20.95 L86.71875,6.25 C86.71875,2.796875 83.91875,0 80.46875,0 L6.346875,0 C2.89375,0 0.096875,2.796875 0.096875,6.25 L0.096875,20.95 C0.096875,20.95 86.71875,20.95 86.71875,20.95 Z" id="Path" fill="#6F7070"></path>
                    <circle id="Oval" fill="#FFFFFF" cx="11.471875" cy="10.475" r="4.034375"></circle>
                    <circle id="Oval" fill="#FFE28F" cx="22.8625" cy="10.475" r="4.034375"></circle>
                    <circle id="Oval" fill="#FDBC4B" cx="34.253125" cy="10.475" r="4.034375"></circle>
                    <g id="Group" transform="translate(48.437500, 7.226562)" fill="#787878">
                        <path d="M13.096875,3.2484375 C13.096875,4.9734375 14.49375,6.3734375 16.221875,6.3734375 L24.828125,6.3734375 C26.55625,6.3734375 27.953125,4.9734375 27.953125,3.2484375 C27.953125,1.5234375 26.55625,0.1234375 24.828125,0.1234375 L16.221875,0.1234375 C14.49375,0.1234375 13.096875,1.5234375 13.096875,3.2484375 Z" id="Path"></path>
                        <path d="M0.134375,3.2484375 C0.134375,4.9734375 1.53125,6.3734375 3.259375,6.3734375 L6.91875,6.3734375 C8.646875,6.3734375 10.04375,4.9734375 10.04375,3.2484375 C10.04375,1.5234375 8.646875,0.1234375 6.91875,0.1234375 L3.259375,0.1234375 C1.53125,0.1234375 0.134375,1.5234375 0.134375,3.2484375 Z" id="Path"></path>
                    </g>
                </g>
            </g>
        </g>
    </g>
</svg>