<svg xmlns="http://www.w3.org/2000/svg" width="47" height="48" viewBox="0 0 47 48">
    <g fill="#000" fill-rule="evenodd" opacity=".197">
        <path fill-rule="nonzero" d="M46.698 41.748L32.58 27.63a1.05 1.05 0 0 0-1.486 0l-1.486 1.486-4.234-4.234c2.537-2.645 4.106-6.225 4.106-10.17C29.48 6.6 22.88 0 14.768 0S.057 6.6.057 14.712s6.6 14.712 14.711 14.712c3.41 0 6.546-1.177 9.043-3.132l4.31 4.31-1.485 1.486a1.05 1.05 0 0 0 0 1.486l14.118 14.118a1.047 1.047 0 0 0 1.486 0l4.458-4.458a1.05 1.05 0 0 0 0-1.486zm-31.93-14.426c-6.953 0-12.61-5.657-12.61-12.61 0-6.953 5.657-12.61 12.61-12.61 6.953 0 12.61 5.657 12.61 12.61 0 6.953-5.657 12.61-12.61 12.61zm26.729 18.141L28.864 32.831l2.973-2.972L44.469 42.49l-2.972 2.972z"/>
        <text font-family="Rubik-Regular, Rubik" font-size="18">
            <tspan x="12.813" y="21">!</tspan>
        </text>
    </g>
</svg>
