<svg xmlns="http://www.w3.org/2000/svg" width="24" height="24" viewBox="0 0 24 24">
    <path fill="#FFF" fill-rule="evenodd" d="M20.944 11c-.029-.252-.324-.443-.579-.443-.825 0-1.557-.484-1.864-1.233-.313-.767-.11-1.661.504-2.225.193-.177.217-.473.054-.679-.422-.536-.901-1.02-1.425-1.44-.205-.165-.506-.142-.684.055-.537.594-1.5.815-2.245.505-.775-.326-1.264-1.112-1.216-1.954.016-.265-.178-.495-.442-.526-.672-.078-1.35-.08-2.024-.005-.261.028-.455.253-.446.515.03.834-.465 1.606-1.232 1.92-.736.3-1.693.081-2.228-.507-.177-.194-.473-.218-.68-.058-.539.424-1.03.908-1.456 1.44-.166.207-.141.506.054.684.627.567.829 1.47.503 2.246-.31.74-1.078 1.216-1.958 1.216-.285-.01-.489.182-.52.442-.079.676-.08 1.365-.004 2.047.029.254.333.442.59.442.784-.02 1.537.465 1.852 1.234.315.767.113 1.66-.503 2.225-.192.177-.217.473-.055.678.419.533.898 1.018 1.424 1.44.206.167.506.143.685-.054.539-.595 1.502-.816 2.244-.504.777.325 1.265 1.11 1.218 1.953-.016.265.178.496.441.526.344.04.69.06 1.037.06.33 0 .659-.018.988-.055.261-.029.455-.253.446-.515-.03-.834.465-1.606 1.231-1.92.74-.302 1.694-.08 2.23.508.177.193.471.217.678.057.539-.423 1.028-.907 1.456-1.44.167-.206.143-.506-.053-.684-.627-.567-.83-1.47-.505-2.245.306-.73 1.046-1.22 1.842-1.22l.11.003c.259.02.496-.178.528-.442.079-.676.08-1.365.004-2.046zm-8.93 4.021c-1.655 0-3.002-1.347-3.002-3.002 0-1.655 1.347-3.002 3.002-3.002 1.656 0 3.002 1.347 3.002 3.002 0 1.655-1.346 3.002-3.002 3.002z"/>
</svg>
