<?xml version="1.0" encoding="UTF-8"?>
<svg width="24px" height="24px" viewBox="0 0 24 24" version="1.1" xmlns="http://www.w3.org/2000/svg" xmlns:xlink="http://www.w3.org/1999/xlink">
    <!-- Generator: sketchtool 61.2 (101010) - https://sketch.com -->
    <title>5C78FAE4-EC34-4A0E-8A9C-1F48A7DE37D5</title>
    <desc>Created with sketchtool.</desc>
    <g id="office" stroke="none" stroke-width="1" fill="none" fill-rule="evenodd">
        <g id="office-settings-2.2.3---attendance---edit---successful" transform="translate(-275.000000, -203.000000)" fill="#FFFFFF">
            <g id="alert-/-fill-/-success" transform="translate(260.000000, 195.000000)">
                <g id="componenet/alert/">
                    <g id="icon-/-fill-/-check" transform="translate(15.000000, 8.000000)">
                        <path d="M12,3 C7.0374297,3 3,7.03731472 3,11.999953 C3,16.9625914 7.0374297,21 12,21 C16.9625703,21 21,16.9625914 21,11.999953 C21,7.03731472 16.9626642,3 12,3 Z M17.1679588,10.4797853 L11.5137166,16.133998 C11.2732983,16.374415 10.9537111,16.5067382 10.6137447,16.5067382 C10.2737783,16.5067382 9.95419115,16.374415 9.71377292,16.133998 L6.83204115,13.2522813 C6.59162293,13.0118643 6.45920508,12.6922788 6.45920508,12.3523142 C6.45920508,12.0122556 6.59162293,11.6926701 6.83204115,11.4522531 C7.07236547,11.2118362 7.39195267,11.079419 7.73201298,11.079419 C8.07197938,11.079419 8.39166049,11.2118362 8.63198481,11.452347 L10.6136508,13.4339088 L15.3678274,8.67975708 C15.6082456,8.43934011 15.9278328,8.30701686 16.2677992,8.30701686 C16.6077656,8.30701686 16.9273528,8.43934011 17.167771,8.67975708 C17.6641971,9.17618056 17.6641971,9.98354959 17.1679588,10.4797853 Z" id="Shape"></path>
                    </g>
                </g>
            </g>
        </g>
    </g>
</svg>