<svg xmlns="http://www.w3.org/2000/svg" width="35" height="32" viewBox="0 0 35 32">
    <path fill="#FFF" d="M29.592 19.361c.915 0 1.775.353 2.42.993l.013.012 2.59 2.632c.525.533.511 1.384-.031 1.9-.266.254-.609.38-.951.38-.357 0-.714-.138-.983-.41l-1.69-1.718v7.505c0 .743-.613 1.345-1.368 1.345-.755 0-1.367-.602-1.367-1.345V23.11l-1.767 1.714c-.538.521-1.403.515-1.933-.013-.53-.529-.525-1.38.013-1.902l2.64-2.56c.645-.636 1.502-.987 2.414-.987zM29.532 0C32.546 0 35 2.413 35 5.378v11.429c0 .556-.348 1.054-.876 1.254-.527.2-1.126.06-1.505-.352l-6.706-7.29-9.961 12.461 3.143 4.01h5.036c.755 0 1.367.603 1.367 1.345 0 .743-.612 1.345-1.367 1.345H5.469C2.453 29.58 0 27.167 0 24.202V5.378C0 2.413 2.453 0 5.469 0zm0 2.69H5.468c-1.508 0-2.735 1.205-2.735 2.688v18.824c0 1.482 1.227 2.689 2.735 2.689h10.174L9.57 19.145l-1.926 2.463c-.46.588-1.319.698-1.917.245-.599-.452-.71-1.296-.25-1.885l3.009-3.847c.258-.33.658-.524 1.083-.524.424 0 .824.193 1.083.523l3.577 4.563L24.765 7.505c.25-.311.625-.499 1.028-.513.402-.014.79.148 1.06.442l5.413 5.883V5.378c0-1.483-1.227-2.689-2.735-2.689zM9.57 4.84c2.262 0 4.102 1.81 4.102 4.034 0 2.224-1.84 4.034-4.102 4.034-2.261 0-4.101-1.81-4.101-4.034 0-2.224 1.84-4.034 4.101-4.034zm0 2.69c-.754 0-1.367.603-1.367 1.344 0 .741.613 1.344 1.367 1.344s1.367-.603 1.367-1.344c0-.741-.613-1.345-1.367-1.345z"/>
</svg>
