<svg xmlns="http://www.w3.org/2000/svg" width="50" height="50" viewBox="0 0 50 50">
    <g fill="none">
        <g fill="#90A4AE">
            <circle cx="9.239" cy="6.158" r="6.154"/>
            <path d="M17.06 18.158c-.158-1.578-1.49-2.777-3.077-2.77h-1.668c-.408 0-.8.161-1.089.45L9.24 17.825 7.25 15.838c-.29-.289-.681-.45-1.09-.45H4.48c-1.587-.007-2.919 1.192-3.077 2.77l-1.394 14c-.085.845.531 1.6 1.377 1.684.053.006.107.008.161.008H3.23l1.262 12.615c.158 1.579 1.49 2.778 3.077 2.77h3.354c1.586.008 2.918-1.191 3.077-2.77L15.26 33.85h1.67c.85.004 1.543-.681 1.547-1.53 0-.055-.002-.109-.008-.162l-1.409-14z"/>
        </g>
        <circle cx="30.777" cy="23.081" r="6.154" fill="#FAFAFA"/>
        <path fill="#FFC107" d="M47.7 18.465h-3.874c-.556-1.6-1.405-3.082-2.504-4.372l1.929-3.354c.423-.736.17-1.677-.567-2.1l-.002-.001-5.354-3.077c-.355-.2-.775-.255-1.17-.15-.39.108-.722.367-.923.72L33.32 9.468c-1.674-.315-3.392-.315-5.065 0L26.328 6.13c-.423-.737-1.363-.992-2.1-.57h-.002L19.808 8.1c-.214 1.13-.608 2.219-1.17 3.224l1.447 2.514c.873 1.113 1.417 2.449 1.569 3.855l1.4 14.003c.166 1.717-.392 3.426-1.539 4.714-.566.62-1.25 1.122-2.012 1.477l4.714 2.71c.737.424 1.677.17 2.1-.567l.002-.001 1.916-3.339c1.674.312 3.391.312 5.065 0l1.917 3.339c.422.737 1.362.992 2.1.57l.002-.001 5.353-3.077c.738-.422.993-1.362.57-2.1v-.002l-1.93-3.354c1.102-1.287 1.955-2.769 2.514-4.369H47.7c.85 0 1.539-.689 1.539-1.538v-6.154c0-.85-.69-1.539-1.539-1.539z"/>
        <path fill="#000" d="M9.239 12.312c-3.4 0-6.154-2.756-6.154-6.154C3.085 2.759 5.84.004 9.239.004c3.398 0 6.153 2.755 6.153 6.154 0 3.398-2.755 6.154-6.153 6.154zm0-9.231c-1.7 0-3.077 1.377-3.077 3.077s1.377 3.077 3.077 3.077c1.699 0 3.076-1.378 3.076-3.077 0-1.7-1.377-3.077-3.076-3.077zM10.925 49.235H7.54c-1.579-.002-2.9-1.198-3.058-2.77L3.232 33.85H1.546C.696 33.854.004 33.17 0 32.32c0-.055.002-.109.008-.162l1.409-14c.158-1.571 1.48-2.768 3.058-2.77h1.687c.408 0 .8.161 1.089.45l1.988 1.99 1.987-1.987c.289-.29.68-.452 1.09-.452h1.686c1.579.001 2.9 1.198 3.058 2.769l1.41 14c.084.845-.532 1.6-1.378 1.684-.053.006-.107.008-.161.008h-1.686l-1.262 12.615c-.158 1.572-1.48 2.768-3.058 2.77zM3.232 30.773h1.391c.793-.004 1.46.596 1.539 1.385l1.39 14h3.385l1.378-14c.08-.79.746-1.389 1.539-1.385h1.375L14 18.465h-1.047l-2.627 2.628c-.601.6-1.575.6-2.176 0l-2.624-2.628h-1.05L3.232 30.773zM24.992 40.804c-.267 0-.53-.07-.763-.203l-4.034-2.308c-.737-.425-.99-1.367-.566-2.104.425-.738 1.367-.991 2.105-.567l2.701 1.539 1.727-3.003c.355-.617 1.086-.91 1.769-.708 1.868.529 3.846.529 5.714 0 .682-.202 1.414.091 1.769.708l1.726 3.003 2.686-1.539-1.729-3.003c-.349-.608-.242-1.374.258-1.864 1.389-1.364 2.374-3.083 2.85-4.97.17-.68.778-1.16 1.48-1.166h3.477v-3.077h-3.477c-.703 0-1.317-.478-1.49-1.16-.475-1.886-1.46-3.606-2.849-4.969-.5-.49-.607-1.257-.258-1.864l1.729-3.004-2.686-1.538-1.739 2.997c-.355.617-1.086.91-1.769.708-1.868-.529-3.846-.529-5.714 0-.675.19-1.395-.1-1.747-.708L24.435 9l-2.686 1.538 1.73 3.003c.342.601.24 1.356-.247 1.847-.338.341-.652.707-.963 1.076-.532.663-1.5.769-2.163.237-.662-.532-.768-1.5-.236-2.163.018-.022.036-.044.055-.064l.323-.382-1.945-3.354c-.423-.737-.17-1.677.567-2.1l.002-.001 5.354-3.077c.356-.2.775-.254 1.17-.151.39.109.722.368.923.72l1.916 3.338c1.674-.312 3.391-.312 5.065 0l1.917-3.338c.2-.352.533-.611.923-.72.395-.104.814-.05 1.17.15l5.353 3.078c.737.422.993 1.362.57 2.1v.001l-1.93 3.354c1.106 1.288 1.962 2.77 2.523 4.372H47.7c.85 0 1.539.69 1.539 1.539v6.154c0 .85-.69 1.538-1.539 1.538h-3.874c-.556 1.6-1.405 3.083-2.504 4.372l1.929 3.354c.423.737.17 1.677-.567 2.1l-.002.002-5.354 3.077c-.737.423-1.677.17-2.1-.568l-.002-.001-1.917-3.339c-1.673.312-3.39.312-5.064 0l-1.917 3.339c-.275.478-.784.772-1.336.772z"/>
        <path fill="#000" d="M30.777 29.235c-3.399 0-6.154-2.756-6.154-6.154 0-3.399 2.755-6.154 6.154-6.154s6.154 2.755 6.154 6.154c0 3.398-2.755 6.154-6.154 6.154zm0-9.231c-1.7 0-3.077 1.378-3.077 3.077 0 1.7 1.378 3.077 3.077 3.077 1.7 0 3.077-1.378 3.077-3.077 0-1.7-1.378-3.077-3.077-3.077z"/>
    </g>
</svg>
