<svg xmlns="http://www.w3.org/2000/svg" width="50" height="50" viewBox="0 0 50 50">
    <g fill="none">
        <path fill="#ECEFF1" d="M33.854 7.202c0-2.912-2.34-5.27-5.223-5.27H6.785c-2.885 0-5.223 2.36-5.223 5.27v29.715c0 2.912 2.34 5.27 5.223 5.27h23.27c2.097 0 3.8-1.716 3.8-3.833V7.202z"/>
        <circle cx="17.708" cy="10.417" r="3.75" fill="#90A4AE"/>
        <path fill="#90A4AE" d="M23.802 24.583H11.615c-.777 0-1.407-.629-1.407-1.406v-.937c0-2.844 2.313-5.157 5.157-5.157h4.687c2.844 0 5.156 2.313 5.156 5.157v.937c0 .777-.629 1.406-1.406 1.406z"/>
        <path fill="#000" d="M19.27 31.25H9.897c-.863 0-1.563-.7-1.563-1.563 0-.862.7-1.562 1.563-1.562h9.375c.862 0 1.562.7 1.562 1.563 0 .862-.7 1.562-1.562 1.562zM18.27 37.5H9.897c-.863 0-1.563-.7-1.563-1.563 0-.862.7-1.562 1.563-1.562h8.375c.862 0 1.562.7 1.562 1.563 0 .862-.7 1.562-1.562 1.562zM17.708 14.583c-2.298 0-4.166-1.868-4.166-4.166S15.41 6.25 17.708 6.25s4.167 1.869 4.167 4.167-1.869 4.166-4.167 4.166zm0-5.208c-.575 0-1.041.467-1.041 1.042s.466 1.041 1.041 1.041 1.042-.466 1.042-1.041-.467-1.042-1.042-1.042zM24.48 25c-.863 0-1.563-.7-1.563-1.563v-1.041c0-1.436-1.17-2.604-2.605-2.604h-5.208c-1.435 0-2.604 1.168-2.604 2.604v1.041c0 .863-.7 1.563-1.563 1.563-.862 0-1.562-.7-1.562-1.563v-1.041c0-3.16 2.569-5.73 5.73-5.73h5.207c3.16 0 5.73 2.57 5.73 5.73v1.041c0 .863-.7 1.563-1.563 1.563z"/>
        <path fill="#000" d="M21.417 43.75H5.729C2.57 43.75 0 41.181 0 38.02V5.73C0 2.568 2.569 0 5.73 0h23.958c3.16 0 5.729 2.569 5.729 5.73v13.582c0 .863-.7 1.563-1.563 1.563-.862 0-1.562-.7-1.562-1.563V5.73c0-1.435-1.17-2.604-2.605-2.604H5.73c-1.435 0-2.604 1.169-2.604 2.604v32.292c0 1.435 1.169 2.604 2.604 2.604h15.688c.862 0 1.562.7 1.562 1.563 0 .862-.7 1.562-1.562 1.562z"/>
        <path fill="#000" d="M35.417 45.833C29.673 45.833 25 41.16 25 35.417 25 29.673 29.673 25 35.417 25c5.743 0 10.416 4.673 10.416 10.417 0 5.743-4.673 10.416-10.416 10.416zm0-17.708c-4.021 0-7.292 3.27-7.292 7.292 0 4.02 3.27 7.291 7.292 7.291 4.02 0 7.291-3.27 7.291-7.291 0-4.021-3.27-7.292-7.291-7.292z"/>
        <path fill="#000" d="M48.438 50c-.4 0-.8-.152-1.105-.458l-6.391-6.392c-.61-.61-.61-1.6 0-2.21.61-.61 1.6-.61 2.21 0l6.392 6.391c.61.61.61 1.6 0 2.21-.306.307-.706.459-1.106.459z"/>
    </g>
</svg>
