<svg xmlns="http://www.w3.org/2000/svg" width="29" height="93" viewBox="0 0 29 93">
    <g fill="#9EDCEF" fill-rule="evenodd" opacity=".5">
        <path d="M5 62c2.762 0 5 2.238 5 5s-2.238 5-5 5-5-2.238-5-5 2.238-5 5-5M5 41.333c2.762 0 5 2.239 5 5 0 2.762-2.238 5-5 5s-5-2.238-5-5c0-2.761 2.238-5 5-5M5 20.666c2.762 0 5 2.24 5 5 0 2.761-2.238 5-5 5s-5-2.239-5-5c0-2.76 2.238-5 5-5M5 0c2.762 0 5 2.239 5 5s-2.238 5-5 5-5-2.239-5-5 2.238-5 5-5M24 62c2.762 0 5 2.238 5 5s-2.238 5-5 5-5-2.238-5-5 2.238-5 5-5M5 83c2.762 0 5 2.238 5 5s-2.238 5-5 5-5-2.238-5-5 2.238-5 5-5M24 83c2.762 0 5 2.238 5 5s-2.238 5-5 5-5-2.238-5-5 2.238-5 5-5M24 41.333c2.762 0 5 2.239 5 5 0 2.762-2.238 5-5 5s-5-2.238-5-5c0-2.761 2.238-5 5-5M24 20.666c2.762 0 5 2.24 5 5 0 2.761-2.238 5-5 5s-5-2.239-5-5c0-2.76 2.238-5 5-5M24 0c2.762 0 5 2.239 5 5s-2.238 5-5 5-5-2.239-5-5 2.238-5 5-5"/>
    </g>
</svg>
