<svg xmlns="http://www.w3.org/2000/svg" width="50" height="18" viewBox="0 0 50 18">
    <g fill="#C8D4D7" fill-rule="evenodd">
        <path d="M7 3.5C7 5.433 5.433 7 3.5 7S0 5.433 0 3.5 1.567 0 3.5 0 7 1.567 7 3.5M21 3.5C21 5.433 19.433 7 17.5 7S14 5.433 14 3.5 15.567 0 17.5 0 21 1.567 21 3.5M36 3.5C36 5.433 34.433 7 32.5 7S29 5.433 29 3.5 30.567 0 32.5 0 36 1.567 36 3.5M50 3.5C50 5.433 48.433 7 46.5 7S43 5.433 43 3.5 44.567 0 46.5 0 50 1.567 50 3.5M7 14.5C7 16.433 5.433 18 3.5 18S0 16.433 0 14.5 1.567 11 3.5 11 7 12.567 7 14.5M21 14.5c0 1.933-1.567 3.5-3.5 3.5S14 16.433 14 14.5s1.567-3.5 3.5-3.5 3.5 1.567 3.5 3.5M36 14.5c0 1.933-1.567 3.5-3.5 3.5S29 16.433 29 14.5s1.567-3.5 3.5-3.5 3.5 1.567 3.5 3.5M50 14.5c0 1.933-1.567 3.5-3.5 3.5S43 16.433 43 14.5s1.567-3.5 3.5-3.5 3.5 1.567 3.5 3.5"/>
    </g>
</svg>
