<?xml version="1.0" encoding="UTF-8" standalone="no"?>
<!DOCTYPE svg PUBLIC "-//W3C//DTD SVG 1.1//EN" "http://www.w3.org/Graphics/SVG/1.1/DTD/svg11.dtd">
<svg version="1.1" xmlns="http://www.w3.org/2000/svg" xmlns:xlink="http://www.w3.org/1999/xlink" preserveAspectRatio="xMidYMid meet" viewBox="0 0 640 640" width="640" height="640"><defs><path d="M250.88 640L250.88 353.75L155 353.75L155 240L250.88 240C250.88 186.23 250.88 156.35 250.88 150.38C250.88 53 310.38 0 397.25 0C438.88 0 474.63 3.13 485 4.5C485 11.28 485 45.2 485 106.25C448.85 106.25 428.77 106.25 424.75 106.25C377.5 106.25 368.38 128.75 368.38 161.63C368.38 166.85 368.38 192.98 368.38 240L475 240L460.38 353.75L368.38 353.75L368.38 640" id="a434WFpN18"></path></defs><g><g><g><use xlink:href="#a434WFpN18" opacity="1" fill="#437ff5" fill-opacity="1"></use><g><use xlink:href="#a434WFpN18" opacity="1" fill-opacity="0" stroke="#000000" stroke-width="1" stroke-opacity="0"></use></g></g></g></g></svg>