<?xml version="1.0" encoding="UTF-8" standalone="no"?>
<!DOCTYPE svg PUBLIC "-//W3C//DTD SVG 1.1//EN" "http://www.w3.org/Graphics/SVG/1.1/DTD/svg11.dtd">
<svg version="1.1" xmlns="http://www.w3.org/2000/svg" xmlns:xlink="http://www.w3.org/1999/xlink" preserveAspectRatio="xMidYMid meet" viewBox="0 0 640 640" width="640" height="640"><defs><path d="M624.57 110.52C616.45 89.02 603.94 69.76 587.56 53.76C571.56 37.51 552.18 24.88 530.93 16.88C510.55 9 487.29 3.5 453.29 2C419.03 0.38 408.15 0 321.26 0C234.37 0 223.49 0.38 189.36 1.88C155.35 3.37 131.97 8.88 111.72 16.75C90.21 24.88 70.96 37.38 54.96 53.76C38.7 69.76 26.08 89.14 18.07 110.4C10.2 130.78 4.7 154.03 3.2 188.04C1.57 222.3 1.2 233.17 1.2 320.06C1.2 406.96 1.57 417.83 3.07 451.96C4.57 485.97 10.07 509.35 17.95 529.61C26.08 551.11 38.7 570.36 54.96 586.37C70.96 602.62 90.34 615.25 111.59 623.25C131.97 631.13 155.23 636.63 189.24 638.12C223.36 639.63 234.25 640 321.14 640C408.03 640 418.91 639.63 453.04 638.12C487.04 636.63 510.42 631.13 530.68 623.25C573.69 606.62 607.69 572.61 624.32 529.61C632.2 509.23 637.7 485.97 639.2 451.96C640.7 417.83 641.07 406.96 641.07 320.06C641.07 233.17 640.95 222.3 639.45 188.16C637.95 154.16 632.45 130.78 624.57 110.52ZM570.81 508.85C560.06 536.73 537.93 558.86 510.05 569.61C498.79 573.99 481.79 579.24 450.66 580.61C416.9 582.12 406.78 582.49 321.39 582.49C235.99 582.49 225.74 582.12 192.11 580.61C160.85 579.24 143.97 573.99 132.72 569.61C118.85 564.49 106.22 556.36 95.97 545.73C85.34 535.36 77.21 522.85 72.08 508.98C67.71 497.73 62.46 480.72 61.09 449.59C59.58 415.83 59.21 405.71 59.21 320.31C59.21 234.92 59.58 224.67 61.09 191.04C62.46 159.78 67.71 142.9 72.08 131.65C77.21 117.77 85.34 105.15 96.09 94.89C106.47 84.26 118.97 76.14 132.85 71.02C144.1 66.64 161.11 61.39 192.24 60.01C225.99 58.51 236.12 58.14 321.51 58.14C407.03 58.14 417.15 58.51 450.79 60.01C482.04 61.39 498.92 66.64 510.17 71.02C524.05 76.14 536.68 84.26 546.93 94.89C557.56 105.27 565.68 117.77 570.81 131.65C575.19 142.9 580.44 159.9 581.81 191.04C583.31 224.8 583.69 234.92 583.69 320.31C583.69 405.71 583.31 415.71 581.81 449.46C580.44 480.72 575.19 497.6 570.81 508.85Z" id="bEN0hm6H1"></path><path d="M155.59 320C155.59 410.77 229.23 484.41 320 484.41C410.77 484.41 484.41 410.77 484.41 320C484.41 229.23 410.77 155.59 320 155.59C229.23 155.59 155.59 229.23 155.59 320ZM213.35 320C213.35 261.11 261.12 213.35 320 213.35C378.89 213.35 426.65 261.11 426.65 320C426.65 378.89 378.89 426.65 320 426.65C261.12 426.65 213.35 378.89 213.35 320Z" id="f6X0sw2LOG"></path><path d="M492.17 187.54C470.97 187.54 453.79 170.35 453.79 149.16C453.79 127.96 470.97 110.77 492.17 110.77C513.37 110.77 530.55 127.96 530.55 149.16C530.55 170.35 513.37 187.54 492.17 187.54Z" id="d1B3gkL2J9"></path></defs><g><g><g><use xlink:href="#bEN0hm6H1" opacity="1" fill="#437ff5" fill-opacity="1"></use><g><use xlink:href="#bEN0hm6H1" opacity="1" fill-opacity="0" stroke="#000000" stroke-width="1" stroke-opacity="0"></use></g></g><g><use xlink:href="#f6X0sw2LOG" opacity="1" fill="#437ff5" fill-opacity="1"></use><g><use xlink:href="#f6X0sw2LOG" opacity="1" fill-opacity="0" stroke="#000000" stroke-width="1" stroke-opacity="0"></use></g></g><g><use xlink:href="#d1B3gkL2J9" opacity="1" fill="#437ff5" fill-opacity="1"></use><g><use xlink:href="#d1B3gkL2J9" opacity="1" fill-opacity="0" stroke="#000000" stroke-width="1" stroke-opacity="0"></use></g></g></g></g></svg>