<?xml version="1.0" encoding="UTF-8" standalone="no"?>
<!DOCTYPE svg PUBLIC "-//W3C//DTD SVG 1.1//EN" "http://www.w3.org/Graphics/SVG/1.1/DTD/svg11.dtd">
<svg version="1.1" xmlns="http://www.w3.org/2000/svg" xmlns:xlink="http://www.w3.org/1999/xlink" preserveAspectRatio="xMidYMid meet" viewBox="0 0 640 640" width="640" height="640"><defs><path d="M49.25 600L49.25 226.13L165.38 226.13L165.38 600L49.25 600ZM40 107.25C40 70.13 70.13 40 107.25 40C144.38 40 174.5 70.13 174.5 107.25C174.5 144.38 144.38 175.13 107.25 175.13C70.13 175.13 40 144.38 40 107.25ZM600 600L484.13 600C484.13 490.8 484.13 430.13 484.13 418C484.13 374.63 483.25 319 423.75 319C363.38 319 354.13 366.13 354.13 414.88C354.13 427.22 354.13 488.92 354.13 600L238.13 600L238.13 226.13L349.5 226.13L349.5 277.13C350.48 277.13 351.02 277.13 351.13 277.13C366.63 247.75 404.5 216.75 461 216.75C578.5 216.75 600.13 294.13 600.13 394.63C600.13 408.32 600.13 476.78 600.13 600L600 600Z" id="b4CbKzk8HP"></path></defs><g><g><g><use xlink:href="#b4CbKzk8HP" opacity="1" fill="#437ff5" fill-opacity="1"></use><g><use xlink:href="#b4CbKzk8HP" opacity="1" fill-opacity="0" stroke="#000000" stroke-width="1" stroke-opacity="0"></use></g></g></g></g></svg>