<svg xmlns="http://www.w3.org/2000/svg" width="36" height="40" viewBox="0 0 36 40">
    <path fill="#333" fill-rule="evenodd" d="M26.487 9.365c2.78 0 5.725 1.487 7.824 4.056-6.877 3.702-5.76 13.346 1.189 15.925-.957 2.083-1.415 3.012-2.647 4.852-1.717 2.57-4.14 5.768-7.14 5.796-2.668.024-3.352-1.706-6.972-1.686-3.619.02-4.374 1.716-7.042 1.692-3-.027-5.296-2.916-7.015-5.485C-.122 27.331-.624 18.9 2.34 14.417c2.106-3.185 5.429-5.05 8.553-5.05 3.181 0 5.181 1.713 7.81 1.713 2.552 0 4.107-1.715 7.784-1.715zM25.68 0c.368 2.431-.647 4.81-1.983 6.494-1.43 1.804-3.896 3.203-6.278 3.13-.435-2.326.682-4.72 2.035-6.334C20.944 1.512 23.497.148 25.68 0z"/>
</svg>
