<?xml version="1.0" encoding="utf-8"?>
<!-- Designed by Vexels.com - 2016 All Rights Reserved - https://vexels.com/terms-and-conditions/  -->

<svg version="1.1" id="Layer_1" xmlns="http://www.w3.org/2000/svg" xmlns:xlink="http://www.w3.org/1999/xlink" x="0px" y="0px"
	 width="1200px" height="1200px" viewBox="0 0 1200 1200" enable-background="new 0 0 1200 1200" xml:space="preserve">
<g>
	<path fill="#575756" d="M1141.251,665.504c1.928-74.542-46.417-72.566-46.417-72.566
		c-39.695-116.138-312.456-109.367-312.456-109.367l-63.766-89.966c-40.684-31.958-218.687-27.111-218.687-27.111
		c-233.612,1.407-358.18,195.995-407.266,297.231c-3.755-1.68-7.957-2.645-12.406-2.645C63.543,661.08,50,674.6,50,691.332
		c0,12.654,7.81,23.479,18.884,28.004c-0.94,2.743-1.436,4.151-1.436,4.151c-5.783,33.762,40.585,22.32,49.335,15.547
		c8.699-6.798,11.614-13.571,11.614-13.571c3.806-29.014,24.173-55.189,24.173-55.189c29.956-45.427,101.582-28.004,101.582-28.004
		c72.515,11.591,97.677,120.911,97.677,120.911c7.76,12.604,30.004,3.855,30.004,3.855l480.92-0.395
		c11.617,0,22.095-13.125,22.095-13.125l5.882-15.322c-0.197-2.546,0.742-5.512,0.742-8.106c0-52.696,38.409-96.344,88.781-104.523
		c27.977-7.737,47.798,2.174,47.798,2.174c49.383,6.773,84.183,67.747,84.183,67.747c14.484,33.861,37.767,28.966,37.767,28.966
		L1141.251,665.504z M468.288,495.659c0,0-5.436,13.517-14.481,13.517l-156.255,0.916c0,0-19.869-17.129,3.609-49.654
		c0,0,50.57-58.676,158.974-47.852c0,0,9.045,2.721,9.045,10.827L468.288,495.659z M728.991,500.7l-208.946,5.783
		c-26.149-0.914-23.234-19.303-23.234-19.303v-60.974c-0.99-25.112,30.004-26.124,30.004-26.124h131.539
		c58.081,9.739,86.108,77.385,86.108,77.385C755.091,500.7,728.991,500.7,728.991,500.7z"/>
	<path fill="#575756" d="M230.129,650.724c-50.569,0-91.499,41.003-91.499,91.522c0,50.57,40.93,91.522,91.499,91.522
		c50.519,0,91.547-40.952,91.547-91.522C321.676,691.727,280.648,650.724,230.129,650.724z M233.194,773.191
		c-18.834,0-33.96-15.201-33.96-34.033c0-18.759,15.125-33.861,33.96-33.861c18.686,0,33.91,15.102,33.91,33.861
		C267.103,757.991,251.879,773.191,233.194,773.191z"/>
	<path fill="#575756" d="M1005.164,635.227c-52.989,0-95.946,42.932-95.946,95.898c0,53.04,42.957,95.994,95.946,95.994
		c53.04,0,95.946-42.954,95.946-95.994C1101.11,678.159,1058.204,635.227,1005.164,635.227z M1008.181,762.068
		c-18.736,0-33.96-15.15-33.96-33.909c0-18.832,15.224-33.985,33.96-33.985c18.832,0,34.008,15.152,34.008,33.985
		C1042.189,746.918,1027.013,762.068,1008.181,762.068z"/>
</g>
</svg>
